G75*
G70*
%OFA0B0*%
%FSLAX24Y24*%
%IPPOS*%
%LPD*%
%AMOC8*
5,1,8,0,0,1.08239X$1,22.5*
%
%ADD10R,0.0433X0.0394*%
%ADD11R,0.0800X0.0260*%
%ADD12R,0.0500X0.0394*%
%ADD13R,0.0394X0.0500*%
%ADD14R,0.0217X0.0157*%
%ADD15R,0.1000X0.0940*%
%ADD16R,0.0940X0.1000*%
%ADD17R,0.2500X0.2126*%
%ADD18R,0.0630X0.0394*%
%ADD19R,0.0394X0.0433*%
D10*
X023949Y020180D03*
X024618Y020180D03*
X024618Y021180D03*
X023949Y021180D03*
X023949Y024180D03*
X024618Y024180D03*
X024618Y026180D03*
X023949Y026180D03*
X026949Y027180D03*
X027618Y027180D03*
X029949Y025180D03*
X030618Y025180D03*
X030618Y024180D03*
X029949Y024180D03*
X029949Y021180D03*
X030618Y021180D03*
X030618Y020180D03*
X029949Y020180D03*
X033199Y019430D03*
X033868Y019430D03*
X038699Y019430D03*
X039368Y019430D03*
X036368Y029430D03*
X035699Y029430D03*
X017468Y026980D03*
X016799Y026980D03*
X016068Y026980D03*
X015399Y026980D03*
X015399Y026280D03*
X016068Y026280D03*
X016799Y026280D03*
X017468Y026280D03*
X017468Y025580D03*
X016799Y025580D03*
X016699Y024130D03*
X017368Y024130D03*
X033199Y007930D03*
X033868Y007930D03*
X038699Y007930D03*
X039368Y007930D03*
D11*
X030243Y007930D03*
X030243Y008430D03*
X030243Y008930D03*
X030243Y009430D03*
X030243Y007430D03*
X030243Y006930D03*
X030243Y006430D03*
X030243Y005930D03*
X027823Y005930D03*
X027823Y006430D03*
X027823Y006930D03*
X027823Y007430D03*
X027823Y007930D03*
X027823Y008430D03*
X027823Y008930D03*
X027823Y009430D03*
X026743Y011930D03*
X026743Y012430D03*
X026743Y012930D03*
X026743Y013430D03*
X026743Y013930D03*
X026743Y014430D03*
X026743Y014930D03*
X026743Y015430D03*
X024323Y015430D03*
X024323Y014930D03*
X024323Y014430D03*
X024323Y013930D03*
X024323Y013430D03*
X024323Y012930D03*
X024323Y012430D03*
X024323Y011930D03*
D12*
X021801Y014930D03*
X021066Y014930D03*
X013751Y026380D03*
X013016Y026380D03*
X005551Y022230D03*
X004816Y022230D03*
D13*
X017383Y001712D03*
X017383Y002448D03*
X023503Y002602D03*
X023503Y003338D03*
X024613Y005982D03*
X024613Y006718D03*
X023583Y010562D03*
X023583Y011298D03*
X003483Y024812D03*
X003483Y025548D03*
X021733Y029512D03*
X021733Y030248D03*
X025833Y029848D03*
X025833Y029112D03*
D14*
X025923Y010674D03*
X025923Y010424D03*
X025923Y010158D03*
X025144Y010158D03*
X025144Y010414D03*
X025144Y010670D03*
D15*
X011483Y026380D03*
X009283Y026380D03*
D16*
X018833Y026930D03*
X018833Y024730D03*
D17*
X010033Y024130D03*
D18*
X013023Y023232D03*
X013023Y025028D03*
D19*
X021530Y011079D03*
X021530Y010409D03*
M02*
