G75*
G70*
%OFA0B0*%
%FSLAX24Y24*%
%IPPOS*%
%LPD*%
%AMOC8*
5,1,8,0,0,1.08239X$1,22.5*
%
%ADD10R,0.0276X0.0354*%
%ADD11R,0.0500X0.1000*%
%ADD12C,0.0100*%
%ADD13C,0.0250*%
D10*
X004352Y006008D03*
X004864Y006008D03*
X005652Y006008D03*
X006164Y006008D03*
D11*
X006408Y011608D03*
X005608Y011608D03*
X004908Y011608D03*
X004208Y011608D03*
D12*
X004008Y009090D02*
X004008Y003508D01*
X006608Y003508D01*
X006608Y008990D01*
X006601Y008983D01*
X006415Y008983D01*
X006283Y009115D01*
X006283Y009301D01*
X006358Y009376D01*
X006358Y010041D01*
X005551Y010758D01*
X005546Y010758D01*
X005505Y010799D01*
X005462Y010837D01*
X005462Y010842D01*
X005458Y010846D01*
X005458Y010904D01*
X005455Y010961D01*
X005458Y010965D01*
X005458Y011008D01*
X005317Y011008D01*
X005258Y011067D01*
X005199Y011008D01*
X004617Y011008D01*
X004558Y011067D01*
X004558Y012149D01*
X004617Y012208D01*
X005199Y012208D01*
X005258Y012149D01*
X005258Y011067D01*
X005258Y012149D01*
X005317Y012208D01*
X005899Y012208D01*
X005958Y012149D01*
X005958Y011067D01*
X005899Y011008D01*
X005758Y011008D01*
X005758Y010975D01*
X006565Y010258D01*
X006570Y010258D01*
X006608Y010220D01*
X006608Y010690D01*
X006501Y010583D01*
X006315Y010583D01*
X006183Y010715D01*
X006183Y010901D01*
X006258Y010976D01*
X006258Y011008D01*
X006117Y011008D01*
X006058Y011067D01*
X006058Y012149D01*
X006117Y012208D01*
X006608Y012208D01*
X006608Y013108D01*
X004008Y013108D01*
X004008Y012208D01*
X004499Y012208D01*
X004558Y012149D01*
X004558Y011067D01*
X004499Y011008D01*
X004358Y011008D01*
X004358Y009376D01*
X004433Y009301D01*
X004433Y009115D01*
X004301Y008983D01*
X004115Y008983D01*
X004008Y009090D01*
X004008Y009021D02*
X004077Y009021D01*
X004008Y008923D02*
X006608Y008923D01*
X006608Y008824D02*
X004008Y008824D01*
X004008Y008726D02*
X006608Y008726D01*
X006608Y008627D02*
X004008Y008627D01*
X004008Y008529D02*
X006608Y008529D01*
X006608Y008430D02*
X004008Y008430D01*
X004008Y008332D02*
X006608Y008332D01*
X006608Y008233D02*
X004008Y008233D01*
X004008Y008135D02*
X006608Y008135D01*
X006608Y008036D02*
X004008Y008036D01*
X004008Y007938D02*
X006608Y007938D01*
X006608Y007839D02*
X005473Y007839D01*
X005454Y007848D02*
X005162Y007848D01*
X004899Y007721D01*
X004899Y007721D01*
X004717Y007493D01*
X004717Y007493D01*
X004652Y007208D01*
X004717Y006923D01*
X004899Y006695D01*
X005162Y006568D01*
X005345Y006568D01*
X005454Y006568D01*
X005454Y006568D01*
X005717Y006695D01*
X005717Y006695D01*
X005900Y006923D01*
X005965Y007208D01*
X005900Y007493D01*
X005717Y007721D01*
X005454Y007848D01*
X005677Y007741D02*
X006608Y007741D01*
X006608Y007642D02*
X005781Y007642D01*
X005717Y007721D02*
X005717Y007721D01*
X005717Y007721D01*
X005859Y007544D02*
X006608Y007544D01*
X006608Y007445D02*
X005910Y007445D01*
X005900Y007493D02*
X005900Y007493D01*
X005933Y007347D02*
X006608Y007347D01*
X006608Y007248D02*
X005955Y007248D01*
X005965Y007208D02*
X005965Y007208D01*
X005951Y007150D02*
X006608Y007150D01*
X006608Y007051D02*
X005929Y007051D01*
X005906Y006953D02*
X006608Y006953D01*
X006608Y006854D02*
X005844Y006854D01*
X005900Y006923D02*
X005900Y006923D01*
X005766Y006756D02*
X006608Y006756D01*
X006608Y006657D02*
X006277Y006657D01*
X006333Y006601D02*
X006201Y006733D01*
X006015Y006733D01*
X005883Y006601D01*
X005883Y006415D01*
X006013Y006285D01*
X005985Y006285D01*
X005926Y006227D01*
X005926Y005789D01*
X005985Y005731D01*
X006343Y005731D01*
X006402Y005789D01*
X006402Y006227D01*
X006343Y006285D01*
X006314Y006285D01*
X006314Y006396D01*
X006333Y006415D01*
X006333Y006601D01*
X006333Y006559D02*
X006608Y006559D01*
X006608Y006460D02*
X006333Y006460D01*
X006314Y006362D02*
X006608Y006362D01*
X006608Y006263D02*
X006365Y006263D01*
X006402Y006165D02*
X006608Y006165D01*
X006608Y006066D02*
X006402Y006066D01*
X006402Y005968D02*
X006608Y005968D01*
X006608Y005869D02*
X006402Y005869D01*
X006383Y005771D02*
X006608Y005771D01*
X006608Y005672D02*
X004008Y005672D01*
X004008Y005574D02*
X006608Y005574D01*
X006608Y005475D02*
X004008Y005475D01*
X004008Y005377D02*
X006608Y005377D01*
X006608Y005278D02*
X004008Y005278D01*
X004008Y005180D02*
X006608Y005180D01*
X006608Y005081D02*
X004008Y005081D01*
X004008Y004983D02*
X006608Y004983D01*
X006608Y004884D02*
X004008Y004884D01*
X004008Y004786D02*
X006608Y004786D01*
X006608Y004687D02*
X004008Y004687D01*
X004008Y004589D02*
X006608Y004589D01*
X006608Y004490D02*
X004008Y004490D01*
X004008Y004392D02*
X006608Y004392D01*
X006608Y004293D02*
X004008Y004293D01*
X004008Y004195D02*
X006608Y004195D01*
X006608Y004096D02*
X004008Y004096D01*
X004008Y003998D02*
X006608Y003998D01*
X006608Y003899D02*
X004008Y003899D01*
X004008Y003801D02*
X006608Y003801D01*
X006608Y003702D02*
X004008Y003702D01*
X004008Y003604D02*
X006608Y003604D01*
X005831Y005731D02*
X005473Y005731D01*
X005414Y005789D01*
X005414Y005858D01*
X005102Y005858D01*
X005102Y005789D01*
X005043Y005731D01*
X004685Y005731D01*
X004632Y005783D01*
X004630Y005773D01*
X004610Y005739D01*
X004582Y005711D01*
X004548Y005691D01*
X004510Y005681D01*
X004371Y005681D01*
X004371Y005989D01*
X004333Y005989D01*
X004064Y005989D01*
X004064Y005811D01*
X004075Y005773D01*
X004094Y005739D01*
X004122Y005711D01*
X004156Y005691D01*
X004195Y005681D01*
X004333Y005681D01*
X004333Y005989D01*
X004333Y006027D01*
X004064Y006027D01*
X004064Y006205D01*
X004075Y006243D01*
X004094Y006277D01*
X004122Y006305D01*
X004156Y006325D01*
X004195Y006335D01*
X004333Y006335D01*
X004333Y006027D01*
X004371Y006027D01*
X004371Y006327D01*
X004283Y006415D01*
X004283Y006601D01*
X004415Y006733D01*
X004601Y006733D01*
X004733Y006601D01*
X004733Y006495D01*
X004943Y006285D01*
X005043Y006285D01*
X005102Y006227D01*
X005102Y006158D01*
X005414Y006158D01*
X005414Y006227D01*
X005473Y006285D01*
X005831Y006285D01*
X005890Y006227D01*
X005890Y005789D01*
X005831Y005731D01*
X005871Y005771D02*
X005945Y005771D01*
X005926Y005869D02*
X005890Y005869D01*
X005890Y005968D02*
X005926Y005968D01*
X005926Y006066D02*
X005890Y006066D01*
X005890Y006165D02*
X005926Y006165D01*
X005963Y006263D02*
X005854Y006263D01*
X005936Y006362D02*
X004867Y006362D01*
X004768Y006460D02*
X005883Y006460D01*
X005883Y006559D02*
X004733Y006559D01*
X004677Y006657D02*
X004977Y006657D01*
X004899Y006695D02*
X004899Y006695D01*
X004899Y006695D01*
X004850Y006756D02*
X004008Y006756D01*
X004008Y006854D02*
X004772Y006854D01*
X004717Y006923D02*
X004717Y006923D01*
X004710Y006953D02*
X004008Y006953D01*
X004008Y007051D02*
X004687Y007051D01*
X004665Y007150D02*
X004008Y007150D01*
X004008Y007248D02*
X004661Y007248D01*
X004652Y007208D02*
X004652Y007208D01*
X004683Y007347D02*
X004008Y007347D01*
X004008Y007445D02*
X004706Y007445D01*
X004757Y007544D02*
X004008Y007544D01*
X004008Y007642D02*
X004836Y007642D01*
X004939Y007741D02*
X004008Y007741D01*
X004008Y007839D02*
X005143Y007839D01*
X005639Y006657D02*
X005939Y006657D01*
X006108Y006508D02*
X006164Y006452D01*
X006164Y006008D01*
X005652Y006008D02*
X004864Y006008D01*
X004864Y006152D01*
X004508Y006508D01*
X004339Y006657D02*
X004008Y006657D01*
X004008Y006559D02*
X004283Y006559D01*
X004283Y006460D02*
X004008Y006460D01*
X004008Y006362D02*
X004336Y006362D01*
X004333Y006263D02*
X004371Y006263D01*
X004371Y006165D02*
X004333Y006165D01*
X004333Y006066D02*
X004371Y006066D01*
X004371Y005968D02*
X004333Y005968D01*
X004333Y005869D02*
X004371Y005869D01*
X004371Y005771D02*
X004333Y005771D01*
X004076Y005771D02*
X004008Y005771D01*
X004008Y005869D02*
X004064Y005869D01*
X004064Y005968D02*
X004008Y005968D01*
X004008Y006066D02*
X004064Y006066D01*
X004064Y006165D02*
X004008Y006165D01*
X004008Y006263D02*
X004086Y006263D01*
X004628Y005771D02*
X004645Y005771D01*
X005083Y005771D02*
X005433Y005771D01*
X005414Y006165D02*
X005102Y006165D01*
X005065Y006263D02*
X005451Y006263D01*
X006377Y009021D02*
X004339Y009021D01*
X004433Y009120D02*
X006283Y009120D01*
X006283Y009218D02*
X004433Y009218D01*
X004418Y009317D02*
X006298Y009317D01*
X006358Y009415D02*
X005552Y009415D01*
X005454Y009368D02*
X005345Y009368D01*
X005162Y009368D01*
X004899Y009495D01*
X004899Y009495D01*
X004899Y009495D01*
X004717Y009723D01*
X004717Y009723D01*
X004652Y010008D01*
X004652Y010008D01*
X004717Y010293D01*
X004717Y010293D01*
X004899Y010521D01*
X004899Y010521D01*
X005162Y010648D01*
X005454Y010648D01*
X005717Y010521D01*
X005717Y010521D01*
X005717Y010521D01*
X005900Y010293D01*
X005900Y010293D01*
X005965Y010008D01*
X005965Y010008D01*
X005900Y009723D01*
X005900Y009723D01*
X005717Y009495D01*
X005717Y009495D01*
X005454Y009368D01*
X005732Y009514D02*
X006358Y009514D01*
X006358Y009612D02*
X005811Y009612D01*
X005889Y009711D02*
X006358Y009711D01*
X006358Y009809D02*
X005919Y009809D01*
X005942Y009908D02*
X006358Y009908D01*
X006358Y010006D02*
X005964Y010006D01*
X005943Y010105D02*
X006286Y010105D01*
X006175Y010203D02*
X005920Y010203D01*
X005893Y010302D02*
X006065Y010302D01*
X005954Y010400D02*
X005814Y010400D01*
X005843Y010499D02*
X005735Y010499D01*
X005732Y010597D02*
X005560Y010597D01*
X005621Y010696D02*
X004358Y010696D01*
X004358Y010794D02*
X005510Y010794D01*
X005458Y010893D02*
X004358Y010893D01*
X004358Y010991D02*
X005458Y010991D01*
X005608Y010908D02*
X005608Y011608D01*
X005258Y011582D02*
X005258Y011582D01*
X005258Y011484D02*
X005258Y011484D01*
X005258Y011385D02*
X005258Y011385D01*
X005258Y011287D02*
X005258Y011287D01*
X005258Y011188D02*
X005258Y011188D01*
X005258Y011090D02*
X005258Y011090D01*
X005608Y010908D02*
X006508Y010108D01*
X006508Y009208D01*
X006516Y010302D02*
X006608Y010302D01*
X006608Y010400D02*
X006405Y010400D01*
X006295Y010499D02*
X006608Y010499D01*
X006608Y010597D02*
X006515Y010597D01*
X006408Y010808D02*
X006408Y011608D01*
X006058Y011582D02*
X005958Y011582D01*
X005958Y011484D02*
X006058Y011484D01*
X006058Y011385D02*
X005958Y011385D01*
X005958Y011287D02*
X006058Y011287D01*
X006058Y011188D02*
X005958Y011188D01*
X005958Y011090D02*
X006058Y011090D01*
X006258Y010991D02*
X005758Y010991D01*
X005851Y010893D02*
X006183Y010893D01*
X006183Y010794D02*
X005962Y010794D01*
X006073Y010696D02*
X006202Y010696D01*
X006184Y010597D02*
X006301Y010597D01*
X006058Y011681D02*
X005958Y011681D01*
X005958Y011779D02*
X006058Y011779D01*
X006058Y011878D02*
X005958Y011878D01*
X005958Y011976D02*
X006058Y011976D01*
X006058Y012075D02*
X005958Y012075D01*
X005934Y012173D02*
X006082Y012173D01*
X006608Y012272D02*
X004008Y012272D01*
X004008Y012370D02*
X006608Y012370D01*
X006608Y012469D02*
X004008Y012469D01*
X004008Y012567D02*
X006608Y012567D01*
X006608Y012666D02*
X004008Y012666D01*
X004008Y012764D02*
X006608Y012764D01*
X006608Y012863D02*
X004008Y012863D01*
X004008Y012961D02*
X006608Y012961D01*
X006608Y013060D02*
X004008Y013060D01*
X004534Y012173D02*
X004582Y012173D01*
X004558Y012075D02*
X004558Y012075D01*
X004558Y011976D02*
X004558Y011976D01*
X004558Y011878D02*
X004558Y011878D01*
X004558Y011779D02*
X004558Y011779D01*
X004558Y011681D02*
X004558Y011681D01*
X004558Y011582D02*
X004558Y011582D01*
X004558Y011484D02*
X004558Y011484D01*
X004558Y011385D02*
X004558Y011385D01*
X004558Y011287D02*
X004558Y011287D01*
X004558Y011188D02*
X004558Y011188D01*
X004558Y011090D02*
X004558Y011090D01*
X004358Y010597D02*
X005056Y010597D01*
X004881Y010499D02*
X004358Y010499D01*
X004358Y010400D02*
X004802Y010400D01*
X004724Y010302D02*
X004358Y010302D01*
X004358Y010203D02*
X004696Y010203D01*
X004674Y010105D02*
X004358Y010105D01*
X004358Y010006D02*
X004652Y010006D01*
X004675Y009908D02*
X004358Y009908D01*
X004358Y009809D02*
X004697Y009809D01*
X004727Y009711D02*
X004358Y009711D01*
X004358Y009612D02*
X004805Y009612D01*
X004884Y009514D02*
X004358Y009514D01*
X004358Y009415D02*
X005064Y009415D01*
X004208Y009208D02*
X004208Y011608D01*
X005258Y011681D02*
X005258Y011681D01*
X005258Y011779D02*
X005258Y011779D01*
X005258Y011878D02*
X005258Y011878D01*
X005258Y011976D02*
X005258Y011976D01*
X005258Y012075D02*
X005258Y012075D01*
X005234Y012173D02*
X005282Y012173D01*
D13*
X006408Y010808D03*
X006508Y009208D03*
X006108Y006508D03*
X004508Y006508D03*
X004108Y004108D03*
X004208Y009208D03*
M02*
