%
M48
M72
T01C0.0236
T02C0.0276
T03C0.0320
T04C0.0360
T05C0.0400
T06C0.0600
T07C0.1200
T08C0.1300
%
T01
X16130Y1880
X21730Y1180
X26330Y5330
X26980Y6430
X25880Y8530
X24530Y10680
X23280Y10680
X22780Y11480
X22780Y12430
X22030Y12580
X20630Y11980
X23030Y14080
X23230Y14930
X23830Y16680
X26690Y16080
X27580Y13930
X25830Y12880
X25230Y12930
X25230Y12080
X27780Y10380
X27980Y11430
X27980Y12430
X29780Y10180
X30980Y6430
X34480Y7930
X39980Y7930
X33130Y18180
X34480Y19430
X38630Y18780
X39980Y19430
X24830Y28380
X20680Y27580
X23230Y24130
X16230Y30430
X13730Y23780
X7730Y23180
X4730Y23180
X5480Y14930
X8480Y14930
X13930Y14380
X23280Y9630
T02
X35430Y4180
X36430Y4180
T03
X28730Y18180
X28730Y19180
X28730Y20180
X28730Y21180
X28730Y22180
X28730Y23180
X28730Y24180
X28730Y25180
X28730Y26180
X25730Y26180
X25730Y25180
X25730Y24180
X25730Y23180
X25730Y22180
X25730Y21180
X25730Y20180
X25730Y19180
X25730Y18180
T04
X2480Y17680
X2480Y16680
X2480Y15680
X2480Y14680
X2480Y13680
X2480Y12680
X2480Y11680
X1480Y11680
X1480Y12680
X1480Y13680
X1480Y14680
X1480Y15680
X1480Y16680
X1480Y17680
X1480Y18680
X1480Y19680
X1480Y20680
X2480Y20680
X2480Y19680
X2480Y18680
T05
X1730Y23680
X1730Y24680
X1730Y25680
X8730Y25930
X9730Y25930
X10730Y25930
X11730Y25930
X11230Y24430
X10230Y24430
X9230Y24430
X18230Y31430
X19230Y31430
X20230Y31430
X21230Y31430
X20730Y29930
X19730Y29930
X18730Y29930
X27480Y29930
X27480Y28930
X27480Y30930
X33230Y22930
X33230Y21930
X33230Y20930
X38730Y20930
X38730Y21930
X38730Y22930
X38730Y11430
X38730Y10430
X38730Y9430
X33230Y9430
X33230Y10430
X33230Y11430
X27480Y3430
X27480Y2430
X27480Y1430
X21180Y4030
X20180Y4030
X19180Y4030
X18180Y4030
X18680Y2530
X19680Y2530
X20680Y2530
X12230Y11930
X11230Y11930
X10230Y11930
X9230Y11930
X9730Y13430
X10730Y13430
X11730Y13430
T06
X8480Y9980
X8480Y6980
X19830Y5830
X19830Y8830
X21180Y22980
X18180Y22980
X7730Y28030
X7730Y31030
T07
X33230Y29430
X38730Y29430
X38730Y2430
X33230Y2430
T08
X1990Y1440
X30230Y1440
X30230Y30430
X1990Y30430
M30
