G75*
G70*
%OFA0B0*%
%FSLAX24Y24*%
%IPPOS*%
%LPD*%
%AMOC8*
5,1,8,0,0,1.08239X$1,22.5*
%
%ADD10C,0.0000*%
%ADD11C,0.0060*%
%ADD12C,0.0070*%
%ADD13C,0.0080*%
%ADD14C,0.0240*%
%ADD15R,0.0180X0.0300*%
%ADD16C,0.0220*%
%ADD17C,0.0050*%
%ADD18R,0.0300X0.0340*%
%ADD19C,0.0020*%
%ADD20R,0.0400X0.4000*%
%ADD21C,0.0100*%
%ADD22C,0.0120*%
%ADD23C,0.0500*%
D10*
X000230Y000180D02*
X000230Y032180D01*
X040730Y032180D01*
X040730Y000180D01*
X000230Y000180D01*
X001340Y001440D02*
X001342Y001490D01*
X001348Y001540D01*
X001358Y001590D01*
X001371Y001638D01*
X001388Y001686D01*
X001409Y001732D01*
X001433Y001776D01*
X001461Y001818D01*
X001492Y001858D01*
X001526Y001895D01*
X001563Y001930D01*
X001602Y001961D01*
X001643Y001990D01*
X001687Y002015D01*
X001733Y002037D01*
X001780Y002055D01*
X001828Y002069D01*
X001877Y002080D01*
X001927Y002087D01*
X001977Y002090D01*
X002028Y002089D01*
X002078Y002084D01*
X002128Y002075D01*
X002176Y002063D01*
X002224Y002046D01*
X002270Y002026D01*
X002315Y002003D01*
X002358Y001976D01*
X002398Y001946D01*
X002436Y001913D01*
X002471Y001877D01*
X002504Y001838D01*
X002533Y001797D01*
X002559Y001754D01*
X002582Y001709D01*
X002601Y001662D01*
X002616Y001614D01*
X002628Y001565D01*
X002636Y001515D01*
X002640Y001465D01*
X002640Y001415D01*
X002636Y001365D01*
X002628Y001315D01*
X002616Y001266D01*
X002601Y001218D01*
X002582Y001171D01*
X002559Y001126D01*
X002533Y001083D01*
X002504Y001042D01*
X002471Y001003D01*
X002436Y000967D01*
X002398Y000934D01*
X002358Y000904D01*
X002315Y000877D01*
X002270Y000854D01*
X002224Y000834D01*
X002176Y000817D01*
X002128Y000805D01*
X002078Y000796D01*
X002028Y000791D01*
X001977Y000790D01*
X001927Y000793D01*
X001877Y000800D01*
X001828Y000811D01*
X001780Y000825D01*
X001733Y000843D01*
X001687Y000865D01*
X001643Y000890D01*
X001602Y000919D01*
X001563Y000950D01*
X001526Y000985D01*
X001492Y001022D01*
X001461Y001062D01*
X001433Y001104D01*
X001409Y001148D01*
X001388Y001194D01*
X001371Y001242D01*
X001358Y001290D01*
X001348Y001340D01*
X001342Y001390D01*
X001340Y001440D01*
X029580Y001440D02*
X029582Y001490D01*
X029588Y001540D01*
X029598Y001590D01*
X029611Y001638D01*
X029628Y001686D01*
X029649Y001732D01*
X029673Y001776D01*
X029701Y001818D01*
X029732Y001858D01*
X029766Y001895D01*
X029803Y001930D01*
X029842Y001961D01*
X029883Y001990D01*
X029927Y002015D01*
X029973Y002037D01*
X030020Y002055D01*
X030068Y002069D01*
X030117Y002080D01*
X030167Y002087D01*
X030217Y002090D01*
X030268Y002089D01*
X030318Y002084D01*
X030368Y002075D01*
X030416Y002063D01*
X030464Y002046D01*
X030510Y002026D01*
X030555Y002003D01*
X030598Y001976D01*
X030638Y001946D01*
X030676Y001913D01*
X030711Y001877D01*
X030744Y001838D01*
X030773Y001797D01*
X030799Y001754D01*
X030822Y001709D01*
X030841Y001662D01*
X030856Y001614D01*
X030868Y001565D01*
X030876Y001515D01*
X030880Y001465D01*
X030880Y001415D01*
X030876Y001365D01*
X030868Y001315D01*
X030856Y001266D01*
X030841Y001218D01*
X030822Y001171D01*
X030799Y001126D01*
X030773Y001083D01*
X030744Y001042D01*
X030711Y001003D01*
X030676Y000967D01*
X030638Y000934D01*
X030598Y000904D01*
X030555Y000877D01*
X030510Y000854D01*
X030464Y000834D01*
X030416Y000817D01*
X030368Y000805D01*
X030318Y000796D01*
X030268Y000791D01*
X030217Y000790D01*
X030167Y000793D01*
X030117Y000800D01*
X030068Y000811D01*
X030020Y000825D01*
X029973Y000843D01*
X029927Y000865D01*
X029883Y000890D01*
X029842Y000919D01*
X029803Y000950D01*
X029766Y000985D01*
X029732Y001022D01*
X029701Y001062D01*
X029673Y001104D01*
X029649Y001148D01*
X029628Y001194D01*
X029611Y001242D01*
X029598Y001290D01*
X029588Y001340D01*
X029582Y001390D01*
X029580Y001440D01*
X029580Y030430D02*
X029582Y030480D01*
X029588Y030530D01*
X029598Y030580D01*
X029611Y030628D01*
X029628Y030676D01*
X029649Y030722D01*
X029673Y030766D01*
X029701Y030808D01*
X029732Y030848D01*
X029766Y030885D01*
X029803Y030920D01*
X029842Y030951D01*
X029883Y030980D01*
X029927Y031005D01*
X029973Y031027D01*
X030020Y031045D01*
X030068Y031059D01*
X030117Y031070D01*
X030167Y031077D01*
X030217Y031080D01*
X030268Y031079D01*
X030318Y031074D01*
X030368Y031065D01*
X030416Y031053D01*
X030464Y031036D01*
X030510Y031016D01*
X030555Y030993D01*
X030598Y030966D01*
X030638Y030936D01*
X030676Y030903D01*
X030711Y030867D01*
X030744Y030828D01*
X030773Y030787D01*
X030799Y030744D01*
X030822Y030699D01*
X030841Y030652D01*
X030856Y030604D01*
X030868Y030555D01*
X030876Y030505D01*
X030880Y030455D01*
X030880Y030405D01*
X030876Y030355D01*
X030868Y030305D01*
X030856Y030256D01*
X030841Y030208D01*
X030822Y030161D01*
X030799Y030116D01*
X030773Y030073D01*
X030744Y030032D01*
X030711Y029993D01*
X030676Y029957D01*
X030638Y029924D01*
X030598Y029894D01*
X030555Y029867D01*
X030510Y029844D01*
X030464Y029824D01*
X030416Y029807D01*
X030368Y029795D01*
X030318Y029786D01*
X030268Y029781D01*
X030217Y029780D01*
X030167Y029783D01*
X030117Y029790D01*
X030068Y029801D01*
X030020Y029815D01*
X029973Y029833D01*
X029927Y029855D01*
X029883Y029880D01*
X029842Y029909D01*
X029803Y029940D01*
X029766Y029975D01*
X029732Y030012D01*
X029701Y030052D01*
X029673Y030094D01*
X029649Y030138D01*
X029628Y030184D01*
X029611Y030232D01*
X029598Y030280D01*
X029588Y030330D01*
X029582Y030380D01*
X029580Y030430D01*
X001340Y030430D02*
X001342Y030480D01*
X001348Y030530D01*
X001358Y030580D01*
X001371Y030628D01*
X001388Y030676D01*
X001409Y030722D01*
X001433Y030766D01*
X001461Y030808D01*
X001492Y030848D01*
X001526Y030885D01*
X001563Y030920D01*
X001602Y030951D01*
X001643Y030980D01*
X001687Y031005D01*
X001733Y031027D01*
X001780Y031045D01*
X001828Y031059D01*
X001877Y031070D01*
X001927Y031077D01*
X001977Y031080D01*
X002028Y031079D01*
X002078Y031074D01*
X002128Y031065D01*
X002176Y031053D01*
X002224Y031036D01*
X002270Y031016D01*
X002315Y030993D01*
X002358Y030966D01*
X002398Y030936D01*
X002436Y030903D01*
X002471Y030867D01*
X002504Y030828D01*
X002533Y030787D01*
X002559Y030744D01*
X002582Y030699D01*
X002601Y030652D01*
X002616Y030604D01*
X002628Y030555D01*
X002636Y030505D01*
X002640Y030455D01*
X002640Y030405D01*
X002636Y030355D01*
X002628Y030305D01*
X002616Y030256D01*
X002601Y030208D01*
X002582Y030161D01*
X002559Y030116D01*
X002533Y030073D01*
X002504Y030032D01*
X002471Y029993D01*
X002436Y029957D01*
X002398Y029924D01*
X002358Y029894D01*
X002315Y029867D01*
X002270Y029844D01*
X002224Y029824D01*
X002176Y029807D01*
X002128Y029795D01*
X002078Y029786D01*
X002028Y029781D01*
X001977Y029780D01*
X001927Y029783D01*
X001877Y029790D01*
X001828Y029801D01*
X001780Y029815D01*
X001733Y029833D01*
X001687Y029855D01*
X001643Y029880D01*
X001602Y029909D01*
X001563Y029940D01*
X001526Y029975D01*
X001492Y030012D01*
X001461Y030052D01*
X001433Y030094D01*
X001409Y030138D01*
X001388Y030184D01*
X001371Y030232D01*
X001358Y030280D01*
X001348Y030330D01*
X001342Y030380D01*
X001340Y030430D01*
D11*
X007110Y025550D02*
X007230Y025550D01*
X007270Y025510D01*
X007270Y025350D01*
X007230Y025310D01*
X007110Y025310D01*
X007110Y025550D01*
X007386Y025510D02*
X007426Y025550D01*
X007506Y025550D01*
X007546Y025510D01*
X007546Y025470D01*
X007386Y025310D01*
X007546Y025310D01*
X009027Y026560D02*
X009187Y026560D01*
X009107Y026560D02*
X009107Y026800D01*
X009027Y026720D01*
X009304Y026760D02*
X009344Y026800D01*
X009424Y026800D01*
X009464Y026760D01*
X009304Y026600D01*
X009344Y026560D01*
X009424Y026560D01*
X009464Y026600D01*
X009464Y026760D01*
X009580Y026800D02*
X009580Y026560D01*
X009580Y026640D02*
X009700Y026720D01*
X009580Y026640D02*
X009700Y026560D01*
X009958Y026560D02*
X009958Y026800D01*
X010078Y026800D01*
X010118Y026760D01*
X010118Y026680D01*
X010078Y026640D01*
X009958Y026640D01*
X010038Y026640D02*
X010118Y026560D01*
X010234Y026560D02*
X010394Y026720D01*
X010394Y026760D01*
X010354Y026800D01*
X010274Y026800D01*
X010234Y026760D01*
X010234Y026560D02*
X010394Y026560D01*
X009304Y026600D02*
X009304Y026760D01*
X012360Y027050D02*
X012400Y027010D01*
X012480Y027010D01*
X012520Y027050D01*
X012636Y027050D02*
X012676Y027010D01*
X012756Y027010D01*
X012796Y027050D01*
X012796Y027130D01*
X012756Y027170D01*
X012716Y027170D01*
X012636Y027130D01*
X012636Y027250D01*
X012796Y027250D01*
X012520Y027210D02*
X012480Y027250D01*
X012400Y027250D01*
X012360Y027210D01*
X012360Y027050D01*
X013060Y027130D02*
X013220Y027130D01*
X013180Y027010D02*
X013180Y027250D01*
X013060Y027130D01*
X013336Y027050D02*
X013496Y027210D01*
X013496Y027250D01*
X013336Y027250D01*
X013336Y027050D02*
X013336Y027010D01*
X013612Y027010D02*
X013612Y027170D01*
X013733Y027170D01*
X013773Y027130D01*
X013773Y027010D01*
X013889Y027010D02*
X013889Y027250D01*
X014049Y027250D01*
X013969Y027130D02*
X013889Y027130D01*
X013880Y026550D02*
X013920Y026510D01*
X013920Y026430D01*
X013880Y026390D01*
X013760Y026390D01*
X013760Y026310D02*
X013760Y026550D01*
X013880Y026550D01*
X013840Y026390D02*
X013920Y026310D01*
X014036Y026350D02*
X014076Y026310D01*
X014156Y026310D01*
X014196Y026350D01*
X014196Y026390D01*
X014156Y026430D01*
X014036Y026430D01*
X014036Y026350D01*
X014036Y026430D02*
X014116Y026510D01*
X014196Y026550D01*
X014460Y026510D02*
X014500Y026550D01*
X014580Y026550D01*
X014620Y026510D01*
X014620Y026470D01*
X014460Y026310D01*
X014620Y026310D01*
X014736Y026310D02*
X014736Y026550D01*
X014856Y026470D02*
X014736Y026390D01*
X014856Y026310D01*
X014049Y025650D02*
X013889Y025650D01*
X013889Y025410D01*
X013773Y025410D02*
X013773Y025530D01*
X013733Y025570D01*
X013612Y025570D01*
X013612Y025410D01*
X013496Y025610D02*
X013336Y025450D01*
X013336Y025410D01*
X013180Y025410D02*
X013180Y025650D01*
X013060Y025530D01*
X013220Y025530D01*
X013336Y025650D02*
X013496Y025650D01*
X013496Y025610D01*
X013889Y025530D02*
X013969Y025530D01*
X012796Y025530D02*
X012676Y025530D01*
X012636Y025570D01*
X012636Y025610D01*
X012676Y025650D01*
X012756Y025650D01*
X012796Y025610D01*
X012796Y025450D01*
X012756Y025410D01*
X012676Y025410D01*
X012636Y025450D01*
X012520Y025450D02*
X012480Y025410D01*
X012400Y025410D01*
X012360Y025450D01*
X012360Y025610D01*
X012400Y025650D01*
X012480Y025650D01*
X012520Y025610D01*
X012520Y027710D02*
X012360Y027710D01*
X012360Y027950D01*
X012636Y027870D02*
X012716Y027950D01*
X012716Y027710D01*
X012636Y027710D02*
X012796Y027710D01*
X014260Y029110D02*
X014420Y029270D01*
X014420Y029310D01*
X014380Y029350D01*
X014300Y029350D01*
X014260Y029310D01*
X014260Y029110D02*
X014420Y029110D01*
X014536Y029110D02*
X014696Y029270D01*
X014696Y029310D01*
X014656Y029350D01*
X014576Y029350D01*
X014536Y029310D01*
X014536Y029110D02*
X014696Y029110D01*
X014812Y029150D02*
X014853Y029110D01*
X014973Y029110D01*
X014973Y029270D01*
X015089Y029230D02*
X015169Y029230D01*
X015089Y029350D02*
X015249Y029350D01*
X015089Y029350D02*
X015089Y029110D01*
X014812Y029150D02*
X014812Y029270D01*
X014696Y029510D02*
X014536Y029510D01*
X014616Y029510D02*
X014616Y029750D01*
X014536Y029670D01*
X014420Y029710D02*
X014380Y029750D01*
X014300Y029750D01*
X014260Y029710D01*
X014260Y029550D01*
X014300Y029510D01*
X014380Y029510D01*
X014420Y029550D01*
X012600Y030268D02*
X012360Y030268D01*
X012360Y030429D01*
X012360Y030545D02*
X012360Y030625D01*
X012360Y030585D02*
X012600Y030585D01*
X012600Y030545D02*
X012600Y030625D01*
X012600Y030809D02*
X012360Y030809D01*
X012360Y030729D02*
X012360Y030889D01*
X012480Y031005D02*
X012480Y031125D01*
X012520Y031165D01*
X012560Y031165D01*
X012600Y031125D01*
X012600Y031045D01*
X012560Y031005D01*
X012480Y031005D01*
X012400Y031085D01*
X012360Y031165D01*
X012400Y031281D02*
X012440Y031281D01*
X012480Y031321D01*
X012480Y031401D01*
X012520Y031441D01*
X012560Y031441D01*
X012600Y031401D01*
X012600Y031321D01*
X012560Y031281D01*
X012520Y031281D01*
X012480Y031321D01*
X012480Y031401D02*
X012440Y031441D01*
X012400Y031441D01*
X012360Y031401D01*
X012360Y031321D01*
X012400Y031281D01*
X012480Y031558D02*
X012480Y031718D01*
X012560Y031834D02*
X012600Y031834D01*
X012560Y031834D02*
X012400Y031994D01*
X012360Y031994D01*
X012360Y031834D01*
X012480Y030348D02*
X012480Y030268D01*
X017260Y030270D02*
X017340Y030350D01*
X017340Y030110D01*
X017260Y030110D02*
X017420Y030110D01*
X017536Y030150D02*
X017576Y030110D01*
X017656Y030110D01*
X017696Y030150D01*
X017696Y030310D01*
X017536Y030150D01*
X017536Y030310D01*
X017576Y030350D01*
X017656Y030350D01*
X017696Y030310D01*
X017812Y030350D02*
X017812Y030110D01*
X017812Y030190D02*
X017933Y030110D01*
X017812Y030190D02*
X017933Y030270D01*
X017696Y031010D02*
X017536Y031010D01*
X017616Y031010D02*
X017616Y031250D01*
X017536Y031170D01*
X017420Y031130D02*
X017380Y031090D01*
X017260Y031090D01*
X017260Y031010D02*
X017260Y031250D01*
X017380Y031250D01*
X017420Y031210D01*
X017420Y031130D01*
X017340Y031090D02*
X017420Y031010D01*
X021960Y030850D02*
X021960Y030610D01*
X022080Y030610D01*
X022120Y030650D01*
X022120Y030810D01*
X022080Y030850D01*
X021960Y030850D01*
X022236Y030770D02*
X022316Y030850D01*
X022316Y030610D01*
X022236Y030610D02*
X022396Y030610D01*
X022500Y027450D02*
X022460Y027410D01*
X022460Y027250D01*
X022500Y027210D01*
X022580Y027210D01*
X022620Y027250D01*
X022736Y027250D02*
X022776Y027210D01*
X022856Y027210D01*
X022896Y027250D01*
X022896Y027290D01*
X022856Y027330D01*
X022736Y027330D01*
X022736Y027250D01*
X022736Y027330D02*
X022816Y027410D01*
X022896Y027450D01*
X022620Y027410D02*
X022580Y027450D01*
X022500Y027450D01*
X022500Y027050D02*
X022460Y027010D01*
X022500Y027050D02*
X022580Y027050D01*
X022620Y027010D01*
X022620Y026970D01*
X022460Y026810D01*
X022620Y026810D01*
X022736Y026810D02*
X022896Y026970D01*
X022896Y027010D01*
X022856Y027050D01*
X022776Y027050D01*
X022736Y027010D01*
X022736Y026810D02*
X022896Y026810D01*
X023012Y026850D02*
X023012Y026970D01*
X023012Y026850D02*
X023053Y026810D01*
X023173Y026810D01*
X023173Y026970D01*
X023289Y026930D02*
X023369Y026930D01*
X023289Y027050D02*
X023449Y027050D01*
X023289Y027050D02*
X023289Y026810D01*
X023700Y025750D02*
X023660Y025710D01*
X023660Y025550D01*
X023700Y025510D01*
X023780Y025510D01*
X023820Y025550D01*
X023936Y025510D02*
X024096Y025510D01*
X024016Y025510D02*
X024016Y025750D01*
X023936Y025670D01*
X023820Y025710D02*
X023780Y025750D01*
X023700Y025750D01*
X023780Y025350D02*
X023660Y025230D01*
X023820Y025230D01*
X023780Y025110D02*
X023780Y025350D01*
X023936Y025350D02*
X024096Y025350D01*
X024096Y025310D01*
X023936Y025150D01*
X023936Y025110D01*
X024212Y025110D02*
X024212Y025270D01*
X024333Y025270D01*
X024373Y025230D01*
X024373Y025110D01*
X024489Y025110D02*
X024489Y025350D01*
X024649Y025350D01*
X024569Y025230D02*
X024489Y025230D01*
X024333Y025510D02*
X024253Y025510D01*
X024212Y025550D01*
X024373Y025710D01*
X024373Y025550D01*
X024333Y025510D01*
X024212Y025550D02*
X024212Y025710D01*
X024253Y025750D01*
X024333Y025750D01*
X024373Y025710D01*
X025260Y026810D02*
X025420Y026970D01*
X025420Y027010D01*
X025380Y027050D01*
X025300Y027050D01*
X025260Y027010D01*
X025260Y026810D02*
X025420Y026810D01*
X025536Y026810D02*
X025696Y026970D01*
X025696Y027010D01*
X025656Y027050D01*
X025576Y027050D01*
X025536Y027010D01*
X025536Y026810D02*
X025696Y026810D01*
X025812Y026850D02*
X025812Y026970D01*
X025812Y026850D02*
X025853Y026810D01*
X025973Y026810D01*
X025973Y026970D01*
X026089Y026930D02*
X026169Y026930D01*
X026089Y027050D02*
X026249Y027050D01*
X026089Y027050D02*
X026089Y026810D01*
X026080Y026680D02*
X028380Y026680D01*
X028380Y017680D01*
X027630Y017680D01*
X027464Y017450D02*
X027384Y017370D01*
X027464Y017450D02*
X027464Y017210D01*
X027384Y017210D02*
X027544Y017210D01*
X027268Y017250D02*
X027228Y017210D01*
X027148Y017210D01*
X027108Y017250D01*
X027108Y017410D01*
X027148Y017450D01*
X027228Y017450D01*
X027268Y017410D01*
X027003Y017450D02*
X026923Y017450D01*
X026963Y017450D02*
X026963Y017210D01*
X026923Y017210D02*
X027003Y017210D01*
X026830Y017680D02*
X026080Y017680D01*
X026080Y026680D01*
X025536Y027210D02*
X025536Y027250D01*
X025696Y027410D01*
X025696Y027450D01*
X025536Y027450D01*
X025420Y027410D02*
X025380Y027450D01*
X025300Y027450D01*
X025260Y027410D01*
X025260Y027250D01*
X025300Y027210D01*
X025380Y027210D01*
X025420Y027250D01*
X027960Y027210D02*
X027960Y027050D01*
X028000Y027010D01*
X028080Y027010D01*
X028120Y027050D01*
X028236Y027050D02*
X028236Y027090D01*
X028276Y027130D01*
X028356Y027130D01*
X028396Y027090D01*
X028396Y027050D01*
X028356Y027010D01*
X028276Y027010D01*
X028236Y027050D01*
X028276Y027130D02*
X028236Y027170D01*
X028236Y027210D01*
X028276Y027250D01*
X028356Y027250D01*
X028396Y027210D01*
X028396Y027170D01*
X028356Y027130D01*
X028120Y027210D02*
X028080Y027250D01*
X028000Y027250D01*
X027960Y027210D01*
X028660Y027130D02*
X028820Y027130D01*
X028780Y027010D02*
X028780Y027250D01*
X028660Y027130D01*
X028936Y027050D02*
X028936Y027010D01*
X028936Y027050D02*
X029096Y027210D01*
X029096Y027250D01*
X028936Y027250D01*
X029212Y027170D02*
X029333Y027170D01*
X029373Y027130D01*
X029373Y027010D01*
X029489Y027010D02*
X029489Y027250D01*
X029649Y027250D01*
X029569Y027130D02*
X029489Y027130D01*
X029212Y027170D02*
X029212Y027010D01*
X029800Y026250D02*
X029760Y026210D01*
X029760Y026050D01*
X029800Y026010D01*
X029880Y026010D01*
X029920Y026050D01*
X030036Y026010D02*
X030196Y026010D01*
X030116Y026010D02*
X030116Y026250D01*
X030036Y026170D01*
X029920Y026210D02*
X029880Y026250D01*
X029800Y026250D01*
X029840Y025850D02*
X029840Y025610D01*
X029760Y025610D02*
X029920Y025610D01*
X030036Y025650D02*
X030076Y025610D01*
X030196Y025610D01*
X030196Y025770D01*
X030312Y025730D02*
X030393Y025730D01*
X030312Y025850D02*
X030473Y025850D01*
X030473Y026010D02*
X030312Y026010D01*
X030393Y026010D02*
X030393Y026250D01*
X030312Y026170D01*
X030312Y025850D02*
X030312Y025610D01*
X030036Y025650D02*
X030036Y025770D01*
X029840Y025850D02*
X029760Y025770D01*
X027450Y024237D02*
X027010Y024237D01*
X027010Y023943D02*
X027450Y024237D01*
X027450Y023943D02*
X027010Y023943D01*
X027083Y023776D02*
X027010Y023703D01*
X027010Y023483D01*
X027450Y023483D01*
X027303Y023483D02*
X027303Y023703D01*
X027230Y023776D01*
X027083Y023776D01*
X027083Y023316D02*
X027010Y023243D01*
X027010Y023096D01*
X027083Y023022D01*
X027377Y023022D01*
X027450Y023096D01*
X027450Y023243D01*
X027377Y023316D01*
X027377Y022856D02*
X027450Y022782D01*
X027450Y022635D01*
X027377Y022562D01*
X027083Y022856D01*
X027377Y022856D01*
X027083Y022856D02*
X027010Y022782D01*
X027010Y022635D01*
X027083Y022562D01*
X027377Y022562D01*
X027450Y022395D02*
X027450Y022102D01*
X027156Y022395D01*
X027083Y022395D01*
X027010Y022322D01*
X027010Y022175D01*
X027083Y022102D01*
X027010Y021935D02*
X027083Y021788D01*
X027230Y021641D01*
X027230Y021861D01*
X027303Y021935D01*
X027377Y021935D01*
X027450Y021861D01*
X027450Y021715D01*
X027377Y021641D01*
X027230Y021641D01*
X027450Y021474D02*
X027010Y021181D01*
X027156Y021014D02*
X027010Y020867D01*
X027156Y020720D01*
X027450Y020720D01*
X027450Y020554D02*
X027010Y020554D01*
X027156Y020407D01*
X027010Y020260D01*
X027450Y020260D01*
X027230Y020720D02*
X027230Y021014D01*
X027156Y021014D02*
X027450Y021014D01*
X027450Y021181D02*
X027010Y021474D01*
X024627Y023060D02*
X024627Y023300D01*
X024787Y023300D01*
X024707Y023180D02*
X024627Y023180D01*
X024511Y023220D02*
X024511Y023060D01*
X024391Y023060D01*
X024351Y023100D01*
X024351Y023220D01*
X024234Y023060D02*
X024074Y023060D01*
X024154Y023060D02*
X024154Y023300D01*
X024074Y023220D01*
X023976Y023100D02*
X023976Y023060D01*
X023936Y023060D01*
X023936Y023100D01*
X023976Y023100D01*
X023820Y023100D02*
X023780Y023060D01*
X023700Y023060D01*
X023660Y023100D01*
X023820Y023260D01*
X023820Y023100D01*
X023660Y023100D02*
X023660Y023260D01*
X023700Y023300D01*
X023780Y023300D01*
X023820Y023260D01*
X023780Y023510D02*
X023700Y023510D01*
X023660Y023550D01*
X023660Y023710D01*
X023700Y023750D01*
X023780Y023750D01*
X023820Y023710D01*
X023936Y023670D02*
X024016Y023750D01*
X024016Y023510D01*
X023936Y023510D02*
X024096Y023510D01*
X024212Y023550D02*
X024253Y023510D01*
X024333Y023510D01*
X024373Y023550D01*
X024373Y023630D01*
X024333Y023670D01*
X024293Y023670D01*
X024212Y023630D01*
X024212Y023750D01*
X024373Y023750D01*
X023820Y023550D02*
X023780Y023510D01*
X023780Y022250D02*
X023660Y022250D01*
X023660Y022010D01*
X023660Y022090D02*
X023780Y022090D01*
X023820Y022130D01*
X023820Y022210D01*
X023780Y022250D01*
X023936Y022210D02*
X023936Y022170D01*
X023976Y022130D01*
X024096Y022130D01*
X024096Y022050D02*
X024096Y022210D01*
X024056Y022250D01*
X023976Y022250D01*
X023936Y022210D01*
X023936Y022050D02*
X023976Y022010D01*
X024056Y022010D01*
X024096Y022050D01*
X024056Y021850D02*
X024096Y021810D01*
X023936Y021650D01*
X023976Y021610D01*
X024056Y021610D01*
X024096Y021650D01*
X024096Y021810D01*
X024056Y021850D02*
X023976Y021850D01*
X023936Y021810D01*
X023936Y021650D01*
X023820Y021610D02*
X023660Y021610D01*
X023740Y021610D02*
X023740Y021850D01*
X023660Y021770D01*
X023820Y022010D02*
X023740Y022090D01*
X024212Y021850D02*
X024212Y021610D01*
X024212Y021690D02*
X024333Y021770D01*
X024212Y021690D02*
X024333Y021610D01*
X024333Y019750D02*
X024373Y019710D01*
X024212Y019550D01*
X024253Y019510D01*
X024333Y019510D01*
X024373Y019550D01*
X024373Y019710D01*
X024333Y019750D02*
X024253Y019750D01*
X024212Y019710D01*
X024212Y019550D01*
X024096Y019510D02*
X023936Y019510D01*
X024016Y019510D02*
X024016Y019750D01*
X023936Y019670D01*
X023820Y019630D02*
X023780Y019590D01*
X023660Y019590D01*
X023660Y019510D02*
X023660Y019750D01*
X023780Y019750D01*
X023820Y019710D01*
X023820Y019630D01*
X023740Y019590D02*
X023820Y019510D01*
X023740Y019350D02*
X023740Y019110D01*
X023660Y019110D02*
X023820Y019110D01*
X023936Y019150D02*
X024096Y019310D01*
X024096Y019150D01*
X024056Y019110D01*
X023976Y019110D01*
X023936Y019150D01*
X023936Y019310D01*
X023976Y019350D01*
X024056Y019350D01*
X024096Y019310D01*
X024212Y019350D02*
X024212Y019110D01*
X024212Y019190D02*
X024333Y019270D01*
X024212Y019190D02*
X024333Y019110D01*
X023740Y019350D02*
X023660Y019270D01*
X022144Y018250D02*
X022144Y018210D01*
X021984Y018050D01*
X021984Y018010D01*
X021868Y018130D02*
X021708Y018130D01*
X021591Y018090D02*
X021591Y018050D01*
X021551Y018010D01*
X021471Y018010D01*
X021431Y018050D01*
X021431Y018090D01*
X021471Y018130D01*
X021551Y018130D01*
X021591Y018090D01*
X021551Y018130D02*
X021591Y018170D01*
X021591Y018210D01*
X021551Y018250D01*
X021471Y018250D01*
X021431Y018210D01*
X021431Y018170D01*
X021471Y018130D01*
X021315Y018090D02*
X021275Y018130D01*
X021155Y018130D01*
X021155Y018050D01*
X021195Y018010D01*
X021275Y018010D01*
X021315Y018050D01*
X021315Y018090D01*
X021235Y018210D02*
X021155Y018130D01*
X021235Y018210D02*
X021315Y018250D01*
X021039Y018250D02*
X020879Y018250D01*
X020959Y018250D02*
X020959Y018010D01*
X020775Y018010D02*
X020695Y018010D01*
X020735Y018010D02*
X020735Y018250D01*
X020695Y018250D02*
X020775Y018250D01*
X020579Y018250D02*
X020418Y018250D01*
X020418Y018010D01*
X020418Y018130D02*
X020498Y018130D01*
X021984Y018250D02*
X022144Y018250D01*
X024860Y015680D02*
X026100Y015680D01*
X026123Y015678D01*
X026146Y015673D01*
X026168Y015664D01*
X026188Y015651D01*
X026206Y015636D01*
X026221Y015618D01*
X026234Y015598D01*
X026243Y015576D01*
X026248Y015553D01*
X026250Y015530D01*
X024860Y015680D02*
X024837Y015678D01*
X024814Y015673D01*
X024792Y015664D01*
X024772Y015651D01*
X024754Y015636D01*
X024739Y015618D01*
X024726Y015598D01*
X024717Y015576D01*
X024712Y015553D01*
X024710Y015530D01*
X026830Y017680D02*
X026832Y017719D01*
X026838Y017758D01*
X026847Y017796D01*
X026860Y017833D01*
X026877Y017869D01*
X026897Y017902D01*
X026921Y017934D01*
X026947Y017963D01*
X026976Y017989D01*
X027008Y018013D01*
X027041Y018033D01*
X027077Y018050D01*
X027114Y018063D01*
X027152Y018072D01*
X027191Y018078D01*
X027230Y018080D01*
X027269Y018078D01*
X027308Y018072D01*
X027346Y018063D01*
X027383Y018050D01*
X027419Y018033D01*
X027452Y018013D01*
X027484Y017989D01*
X027513Y017963D01*
X027539Y017934D01*
X027563Y017902D01*
X027583Y017869D01*
X027600Y017833D01*
X027613Y017796D01*
X027622Y017758D01*
X027628Y017719D01*
X027630Y017680D01*
X029660Y019110D02*
X029820Y019110D01*
X029740Y019110D02*
X029740Y019350D01*
X029660Y019270D01*
X029660Y019510D02*
X029660Y019750D01*
X029780Y019750D01*
X029820Y019710D01*
X029820Y019630D01*
X029780Y019590D01*
X029660Y019590D01*
X029740Y019590D02*
X029820Y019510D01*
X029936Y019510D02*
X030096Y019510D01*
X030016Y019510D02*
X030016Y019750D01*
X029936Y019670D01*
X030212Y019710D02*
X030253Y019750D01*
X030333Y019750D01*
X030373Y019710D01*
X030373Y019670D01*
X030212Y019510D01*
X030373Y019510D01*
X030212Y019350D02*
X030212Y019110D01*
X030212Y019190D02*
X030333Y019270D01*
X030212Y019190D02*
X030333Y019110D01*
X030096Y019150D02*
X030056Y019110D01*
X029976Y019110D01*
X029936Y019150D01*
X030096Y019310D01*
X030096Y019150D01*
X029936Y019150D02*
X029936Y019310D01*
X029976Y019350D01*
X030056Y019350D01*
X030096Y019310D01*
X031960Y019410D02*
X031960Y019650D01*
X032080Y019650D01*
X032120Y019610D01*
X032120Y019530D01*
X032080Y019490D01*
X031960Y019490D01*
X032040Y019490D02*
X032120Y019410D01*
X032236Y019410D02*
X032396Y019410D01*
X032316Y019410D02*
X032316Y019650D01*
X032236Y019570D01*
X032512Y019610D02*
X032553Y019650D01*
X032633Y019650D01*
X032673Y019610D01*
X032673Y019570D01*
X032633Y019530D01*
X032673Y019490D01*
X032673Y019450D01*
X032633Y019410D01*
X032553Y019410D01*
X032512Y019450D01*
X032593Y019530D02*
X032633Y019530D01*
X032512Y019250D02*
X032512Y019010D01*
X032512Y019090D02*
X032633Y019170D01*
X032512Y019090D02*
X032633Y019010D01*
X032396Y019050D02*
X032356Y019010D01*
X032276Y019010D01*
X032236Y019050D01*
X032396Y019210D01*
X032396Y019050D01*
X032236Y019050D02*
X032236Y019210D01*
X032276Y019250D01*
X032356Y019250D01*
X032396Y019210D01*
X032120Y019010D02*
X031960Y019010D01*
X032040Y019010D02*
X032040Y019250D01*
X031960Y019170D01*
X030433Y021610D02*
X030312Y021690D01*
X030433Y021770D01*
X030312Y021850D02*
X030312Y021610D01*
X030196Y021650D02*
X030196Y021810D01*
X030036Y021650D01*
X030076Y021610D01*
X030156Y021610D01*
X030196Y021650D01*
X030036Y021650D02*
X030036Y021810D01*
X030076Y021850D01*
X030156Y021850D01*
X030196Y021810D01*
X030196Y022010D02*
X030036Y022010D01*
X030116Y022010D02*
X030116Y022250D01*
X030036Y022170D01*
X029920Y022130D02*
X029880Y022090D01*
X029760Y022090D01*
X029760Y022010D02*
X029760Y022250D01*
X029880Y022250D01*
X029920Y022210D01*
X029920Y022130D01*
X029840Y022090D02*
X029920Y022010D01*
X029840Y021850D02*
X029840Y021610D01*
X029760Y021610D02*
X029920Y021610D01*
X029760Y021770D02*
X029840Y021850D01*
X030312Y022010D02*
X030473Y022010D01*
X030393Y022010D02*
X030393Y022250D01*
X030312Y022170D01*
X030373Y023110D02*
X030373Y023230D01*
X030333Y023270D01*
X030212Y023270D01*
X030212Y023110D01*
X030096Y023310D02*
X029936Y023150D01*
X029936Y023110D01*
X029780Y023110D02*
X029780Y023350D01*
X029660Y023230D01*
X029820Y023230D01*
X029936Y023350D02*
X030096Y023350D01*
X030096Y023310D01*
X030096Y023510D02*
X029936Y023510D01*
X030016Y023510D02*
X030016Y023750D01*
X029936Y023670D01*
X029820Y023710D02*
X029780Y023750D01*
X029700Y023750D01*
X029660Y023710D01*
X029660Y023550D01*
X029700Y023510D01*
X029780Y023510D01*
X029820Y023550D01*
X030212Y023550D02*
X030253Y023510D01*
X030333Y023510D01*
X030373Y023550D01*
X030373Y023590D01*
X030333Y023630D01*
X030212Y023630D01*
X030212Y023550D01*
X030212Y023630D02*
X030293Y023710D01*
X030373Y023750D01*
X030489Y023350D02*
X030649Y023350D01*
X030569Y023230D02*
X030489Y023230D01*
X030489Y023110D02*
X030489Y023350D01*
X029300Y028410D02*
X028860Y028410D01*
X028860Y028630D01*
X028933Y028704D01*
X029080Y028704D01*
X029153Y028630D01*
X029153Y028410D01*
X029153Y028557D02*
X029300Y028704D01*
X029300Y029331D02*
X028860Y029331D01*
X028860Y029551D01*
X028933Y029624D01*
X029006Y029624D01*
X029080Y029551D01*
X029080Y029331D01*
X029080Y029551D02*
X029153Y029624D01*
X029227Y029624D01*
X029300Y029551D01*
X029300Y029331D01*
X029300Y029791D02*
X028860Y029791D01*
X028860Y030011D01*
X028933Y030085D01*
X029080Y030085D01*
X029153Y030011D01*
X029153Y029791D01*
X029153Y029938D02*
X029300Y030085D01*
X029300Y030252D02*
X029006Y030252D01*
X028860Y030398D01*
X029006Y030545D01*
X029300Y030545D01*
X029300Y030712D02*
X028860Y030712D01*
X029080Y030785D02*
X029300Y031006D01*
X029300Y031172D02*
X028860Y031172D01*
X028860Y031466D01*
X029080Y031319D02*
X029080Y031172D01*
X029300Y031172D02*
X029300Y031466D01*
X028860Y031006D02*
X029153Y030712D01*
X029080Y030545D02*
X029080Y030252D01*
X031860Y031210D02*
X031860Y031650D01*
X032007Y031504D01*
X032154Y031650D01*
X032154Y031210D01*
X032320Y031283D02*
X032394Y031210D01*
X032541Y031210D01*
X032614Y031283D01*
X032614Y031577D01*
X032541Y031650D01*
X032394Y031650D01*
X032320Y031577D01*
X032320Y031283D01*
X032781Y031650D02*
X033074Y031650D01*
X032928Y031650D02*
X032928Y031210D01*
X033241Y031283D02*
X033241Y031577D01*
X033315Y031650D01*
X033461Y031650D01*
X033535Y031577D01*
X033535Y031283D01*
X033461Y031210D01*
X033315Y031210D01*
X033241Y031283D01*
X033702Y031210D02*
X033702Y031650D01*
X033922Y031650D01*
X033995Y031577D01*
X033995Y031430D01*
X033922Y031357D01*
X033702Y031357D01*
X033848Y031357D02*
X033995Y031210D01*
X034622Y031210D02*
X034622Y031650D01*
X034843Y031650D01*
X034916Y031577D01*
X034916Y031504D01*
X034843Y031430D01*
X034622Y031430D01*
X034622Y031210D02*
X034843Y031210D01*
X034916Y031283D01*
X034916Y031357D01*
X034843Y031430D01*
X035848Y030100D02*
X035808Y030060D01*
X035808Y029900D01*
X035848Y029860D01*
X035928Y029860D01*
X035968Y029900D01*
X036084Y029980D02*
X036244Y029980D01*
X036204Y029860D02*
X036204Y030100D01*
X036084Y029980D01*
X035968Y030060D02*
X035928Y030100D01*
X035848Y030100D01*
X035829Y029050D02*
X035989Y029050D01*
X035909Y028930D02*
X035829Y028930D01*
X035829Y028810D02*
X035829Y029050D01*
X035713Y028970D02*
X035713Y028810D01*
X035593Y028810D01*
X035553Y028850D01*
X035553Y028970D01*
X035436Y028810D02*
X035276Y028810D01*
X035356Y028810D02*
X035356Y029050D01*
X035276Y028970D01*
X035178Y028850D02*
X035178Y028810D01*
X035138Y028810D01*
X035138Y028850D01*
X035178Y028850D01*
X035022Y028850D02*
X034982Y028810D01*
X034902Y028810D01*
X034862Y028850D01*
X035022Y029010D01*
X035022Y028850D01*
X034862Y028850D02*
X034862Y029010D01*
X034902Y029050D01*
X034982Y029050D01*
X035022Y029010D01*
X036381Y029050D02*
X036381Y028930D01*
X036461Y028970D01*
X036501Y028970D01*
X036541Y028930D01*
X036541Y028850D01*
X036501Y028810D01*
X036421Y028810D01*
X036381Y028850D01*
X036381Y029050D02*
X036541Y029050D01*
X036658Y029010D02*
X036698Y029050D01*
X036778Y029050D01*
X036818Y029010D01*
X036658Y028850D01*
X036698Y028810D01*
X036778Y028810D01*
X036818Y028850D01*
X036818Y029010D01*
X036934Y029050D02*
X036934Y028890D01*
X037014Y028810D01*
X037094Y028890D01*
X037094Y029050D01*
X036658Y029010D02*
X036658Y028850D01*
X037260Y031210D02*
X037260Y031650D01*
X037407Y031504D01*
X037554Y031650D01*
X037554Y031210D01*
X037720Y031283D02*
X037720Y031577D01*
X037794Y031650D01*
X037941Y031650D01*
X038014Y031577D01*
X038014Y031283D01*
X037941Y031210D01*
X037794Y031210D01*
X037720Y031283D01*
X038181Y031650D02*
X038474Y031650D01*
X038328Y031650D02*
X038328Y031210D01*
X038641Y031283D02*
X038641Y031577D01*
X038715Y031650D01*
X038861Y031650D01*
X038935Y031577D01*
X038935Y031283D01*
X038861Y031210D01*
X038715Y031210D01*
X038641Y031283D01*
X039102Y031210D02*
X039102Y031650D01*
X039322Y031650D01*
X039395Y031577D01*
X039395Y031430D01*
X039322Y031357D01*
X039102Y031357D01*
X039248Y031357D02*
X039395Y031210D01*
X040022Y031210D02*
X040022Y031504D01*
X040169Y031650D01*
X040316Y031504D01*
X040316Y031210D01*
X040316Y031430D02*
X040022Y031430D01*
X038133Y019550D02*
X038012Y019430D01*
X038173Y019430D01*
X038133Y019310D02*
X038133Y019550D01*
X037816Y019550D02*
X037816Y019310D01*
X037736Y019310D02*
X037896Y019310D01*
X037962Y019150D02*
X037962Y018910D01*
X037962Y018990D02*
X038083Y019070D01*
X037962Y018990D02*
X038083Y018910D01*
X037846Y018950D02*
X037806Y018910D01*
X037726Y018910D01*
X037686Y018950D01*
X037846Y019110D01*
X037846Y018950D01*
X037686Y018950D02*
X037686Y019110D01*
X037726Y019150D01*
X037806Y019150D01*
X037846Y019110D01*
X037620Y019310D02*
X037540Y019390D01*
X037580Y019390D02*
X037460Y019390D01*
X037460Y019310D02*
X037460Y019550D01*
X037580Y019550D01*
X037620Y019510D01*
X037620Y019430D01*
X037580Y019390D01*
X037736Y019470D02*
X037816Y019550D01*
X037490Y019150D02*
X037490Y018910D01*
X037410Y018910D02*
X037570Y018910D01*
X037410Y019070D02*
X037490Y019150D01*
X027387Y010950D02*
X027227Y010950D01*
X027227Y010710D01*
X027111Y010710D02*
X027111Y010870D01*
X027227Y010830D02*
X027307Y010830D01*
X027111Y010710D02*
X026991Y010710D01*
X026951Y010750D01*
X026951Y010870D01*
X026834Y010710D02*
X026674Y010710D01*
X026754Y010710D02*
X026754Y010950D01*
X026674Y010870D01*
X026576Y010750D02*
X026576Y010710D01*
X026536Y010710D01*
X026536Y010750D01*
X026576Y010750D01*
X026420Y010750D02*
X026380Y010710D01*
X026300Y010710D01*
X026260Y010750D01*
X026420Y010910D01*
X026420Y010750D01*
X026260Y010750D02*
X026260Y010910D01*
X026300Y010950D01*
X026380Y010950D01*
X026420Y010910D01*
X026380Y011110D02*
X026420Y011150D01*
X026380Y011110D02*
X026300Y011110D01*
X026260Y011150D01*
X026260Y011310D01*
X026300Y011350D01*
X026380Y011350D01*
X026420Y011310D01*
X026536Y011310D02*
X026576Y011350D01*
X026656Y011350D01*
X026696Y011310D01*
X026696Y011270D01*
X026536Y011110D01*
X026696Y011110D01*
X026812Y011150D02*
X026853Y011110D01*
X026933Y011110D01*
X026973Y011150D01*
X026973Y011190D01*
X026933Y011230D01*
X026893Y011230D01*
X026933Y011230D02*
X026973Y011270D01*
X026973Y011310D01*
X026933Y011350D01*
X026853Y011350D01*
X026812Y011310D01*
X026100Y011680D02*
X025680Y011680D01*
X025280Y011680D01*
X024860Y011680D01*
X024837Y011682D01*
X024814Y011687D01*
X024792Y011696D01*
X024772Y011709D01*
X024754Y011724D01*
X024739Y011742D01*
X024726Y011762D01*
X024717Y011784D01*
X024712Y011807D01*
X024710Y011830D01*
X025160Y011550D02*
X025240Y011550D01*
X025200Y011550D02*
X025200Y011310D01*
X025160Y011310D02*
X025240Y011310D01*
X025344Y011350D02*
X025384Y011310D01*
X025464Y011310D01*
X025504Y011350D01*
X025620Y011310D02*
X025781Y011470D01*
X025781Y011510D01*
X025740Y011550D01*
X025660Y011550D01*
X025620Y011510D01*
X025504Y011510D02*
X025464Y011550D01*
X025384Y011550D01*
X025344Y011510D01*
X025344Y011350D01*
X025620Y011310D02*
X025781Y011310D01*
X025680Y011680D02*
X025678Y011707D01*
X025673Y011734D01*
X025663Y011760D01*
X025651Y011784D01*
X025635Y011806D01*
X025617Y011826D01*
X025595Y011843D01*
X025572Y011858D01*
X025547Y011868D01*
X025521Y011876D01*
X025494Y011880D01*
X025466Y011880D01*
X025439Y011876D01*
X025413Y011868D01*
X025388Y011858D01*
X025365Y011843D01*
X025343Y011826D01*
X025325Y011806D01*
X025309Y011784D01*
X025297Y011760D01*
X025287Y011734D01*
X025282Y011707D01*
X025280Y011680D01*
X026100Y011680D02*
X026123Y011682D01*
X026146Y011687D01*
X026168Y011696D01*
X026188Y011709D01*
X026206Y011724D01*
X026221Y011742D01*
X026234Y011762D01*
X026243Y011784D01*
X026248Y011807D01*
X026250Y011830D01*
X025740Y009850D02*
X025781Y009810D01*
X025781Y009770D01*
X025740Y009730D01*
X025781Y009690D01*
X025781Y009650D01*
X025740Y009610D01*
X025660Y009610D01*
X025620Y009650D01*
X025700Y009730D02*
X025740Y009730D01*
X025740Y009850D02*
X025660Y009850D01*
X025620Y009810D01*
X025504Y009810D02*
X025464Y009850D01*
X025384Y009850D01*
X025344Y009810D01*
X025344Y009650D01*
X025384Y009610D01*
X025464Y009610D01*
X025504Y009650D01*
X025554Y009416D02*
X025434Y009296D01*
X025594Y009296D01*
X025711Y009296D02*
X025871Y009296D01*
X025871Y009416D02*
X025871Y009176D01*
X025987Y009216D02*
X026027Y009176D01*
X026107Y009176D01*
X026147Y009216D01*
X026263Y009176D02*
X026423Y009336D01*
X026423Y009376D01*
X026383Y009416D01*
X026303Y009416D01*
X026263Y009376D01*
X026147Y009376D02*
X026107Y009416D01*
X026027Y009416D01*
X025987Y009376D01*
X025987Y009216D01*
X026263Y009176D02*
X026423Y009176D01*
X026539Y009216D02*
X026579Y009176D01*
X026659Y009176D01*
X026699Y009216D01*
X026699Y009296D01*
X026619Y009296D01*
X026539Y009376D02*
X026579Y009416D01*
X026659Y009416D01*
X026699Y009376D01*
X026815Y009376D02*
X026855Y009416D01*
X026936Y009416D01*
X026976Y009376D01*
X026815Y009216D01*
X026855Y009176D01*
X026936Y009176D01*
X026976Y009216D01*
X026976Y009376D01*
X027092Y009296D02*
X027212Y009416D01*
X027212Y009176D01*
X027252Y009296D02*
X027092Y009296D01*
X026815Y009216D02*
X026815Y009376D01*
X026539Y009376D02*
X026539Y009216D01*
X025711Y009176D02*
X025711Y009416D01*
X025554Y009416D02*
X025554Y009176D01*
X025318Y009376D02*
X025318Y009416D01*
X025158Y009416D01*
X025318Y009376D02*
X025158Y009216D01*
X025158Y009176D01*
X025160Y009610D02*
X025240Y009610D01*
X025200Y009610D02*
X025200Y009850D01*
X025160Y009850D02*
X025240Y009850D01*
X024700Y009634D02*
X024660Y009634D01*
X024500Y009794D01*
X024460Y009794D01*
X024460Y009634D01*
X024580Y009518D02*
X024580Y009358D01*
X024620Y009241D02*
X024660Y009241D01*
X024700Y009201D01*
X024700Y009121D01*
X024660Y009081D01*
X024620Y009081D01*
X024580Y009121D01*
X024580Y009201D01*
X024620Y009241D01*
X024580Y009201D02*
X024540Y009241D01*
X024500Y009241D01*
X024460Y009201D01*
X024460Y009121D01*
X024500Y009081D01*
X024540Y009081D01*
X024580Y009121D01*
X024620Y008965D02*
X024580Y008925D01*
X024580Y008805D01*
X024660Y008805D01*
X024700Y008845D01*
X024700Y008925D01*
X024660Y008965D01*
X024620Y008965D01*
X024500Y008885D02*
X024580Y008805D01*
X024500Y008885D02*
X024460Y008965D01*
X024460Y008689D02*
X024460Y008529D01*
X024460Y008609D02*
X024700Y008609D01*
X024700Y008425D02*
X024700Y008345D01*
X024700Y008385D02*
X024460Y008385D01*
X024460Y008345D02*
X024460Y008425D01*
X024460Y008229D02*
X024460Y008068D01*
X024700Y008068D01*
X024580Y008068D02*
X024580Y008148D01*
X022710Y007550D02*
X022509Y007310D01*
X022393Y007310D02*
X022233Y007310D01*
X022313Y007310D02*
X022313Y007550D01*
X022233Y007470D01*
X022509Y007510D02*
X022509Y007550D01*
X022550Y007550D01*
X022550Y007510D01*
X022509Y007510D01*
X022670Y007350D02*
X022710Y007350D01*
X022710Y007310D01*
X022670Y007310D01*
X022670Y007350D01*
X022295Y007150D02*
X022095Y006910D01*
X021979Y006910D02*
X021819Y006910D01*
X021899Y006910D02*
X021899Y007150D01*
X021819Y007070D01*
X021847Y007310D02*
X021727Y007390D01*
X021847Y007470D01*
X021727Y007550D02*
X021727Y007310D01*
X021611Y007350D02*
X021611Y007510D01*
X021571Y007550D01*
X021491Y007550D01*
X021451Y007510D01*
X021451Y007470D01*
X021491Y007430D01*
X021611Y007430D01*
X021611Y007350D02*
X021571Y007310D01*
X021491Y007310D01*
X021451Y007350D01*
X021334Y007310D02*
X021174Y007310D01*
X021254Y007310D02*
X021254Y007550D01*
X021174Y007470D01*
X021076Y007350D02*
X021076Y007310D01*
X021036Y007310D01*
X021036Y007350D01*
X021076Y007350D01*
X020920Y007350D02*
X020920Y007390D01*
X020880Y007430D01*
X020760Y007430D01*
X020760Y007350D01*
X020800Y007310D01*
X020880Y007310D01*
X020920Y007350D01*
X020840Y007510D02*
X020760Y007430D01*
X020840Y007510D02*
X020920Y007550D01*
X020573Y007510D02*
X020573Y007470D01*
X020533Y007430D01*
X020573Y007390D01*
X020573Y007350D01*
X020533Y007310D01*
X020453Y007310D01*
X020412Y007350D01*
X020493Y007430D02*
X020533Y007430D01*
X020573Y007510D02*
X020533Y007550D01*
X020453Y007550D01*
X020412Y007510D01*
X020296Y007510D02*
X020256Y007550D01*
X020176Y007550D01*
X020136Y007510D01*
X020020Y007510D02*
X020020Y007430D01*
X019980Y007390D01*
X019860Y007390D01*
X019860Y007310D02*
X019860Y007550D01*
X019980Y007550D01*
X020020Y007510D01*
X019940Y007390D02*
X020020Y007310D01*
X020136Y007310D02*
X020296Y007470D01*
X020296Y007510D01*
X020296Y007310D02*
X020136Y007310D01*
X020176Y007150D02*
X020136Y007110D01*
X020176Y007150D02*
X020256Y007150D01*
X020296Y007110D01*
X020296Y007070D01*
X020136Y006910D01*
X020296Y006910D01*
X020412Y007030D02*
X020573Y007030D01*
X020533Y006910D02*
X020533Y007150D01*
X020412Y007030D01*
X020760Y007110D02*
X020800Y007150D01*
X020880Y007150D01*
X020920Y007110D01*
X020920Y007070D01*
X020760Y006910D01*
X020920Y006910D01*
X021036Y007030D02*
X021196Y007030D01*
X021312Y006990D02*
X021433Y007070D01*
X021312Y006990D02*
X021433Y006910D01*
X021312Y006910D02*
X021312Y007150D01*
X021156Y007150D02*
X021036Y007030D01*
X021156Y006910D02*
X021156Y007150D01*
X022095Y007110D02*
X022095Y007150D01*
X022135Y007150D01*
X022135Y007110D01*
X022095Y007110D01*
X022255Y006950D02*
X022295Y006950D01*
X022295Y006910D01*
X022255Y006910D01*
X022255Y006950D01*
X024460Y005250D02*
X024460Y005010D01*
X024620Y005010D01*
X024736Y005130D02*
X024896Y005130D01*
X024856Y005010D02*
X024856Y005250D01*
X024736Y005130D01*
X026760Y004910D02*
X026760Y004750D01*
X026800Y004710D01*
X026880Y004710D01*
X026920Y004750D01*
X027036Y004710D02*
X027196Y004870D01*
X027196Y004910D01*
X027156Y004950D01*
X027076Y004950D01*
X027036Y004910D01*
X026920Y004910D02*
X026880Y004950D01*
X026800Y004950D01*
X026760Y004910D01*
X027036Y004710D02*
X027196Y004710D01*
X027312Y004830D02*
X027473Y004830D01*
X027433Y004710D02*
X027433Y004950D01*
X027312Y004830D01*
X027254Y004550D02*
X027254Y004310D01*
X027174Y004310D02*
X027334Y004310D01*
X027174Y004470D02*
X027254Y004550D01*
X027076Y004350D02*
X027076Y004310D01*
X027036Y004310D01*
X027036Y004350D01*
X027076Y004350D01*
X026920Y004350D02*
X026880Y004310D01*
X026800Y004310D01*
X026760Y004350D01*
X026920Y004510D01*
X026920Y004350D01*
X026760Y004350D02*
X026760Y004510D01*
X026800Y004550D01*
X026880Y004550D01*
X026920Y004510D01*
X027727Y004470D02*
X027727Y004350D01*
X027767Y004310D01*
X027887Y004310D01*
X027887Y004470D01*
X028003Y004430D02*
X028083Y004430D01*
X028003Y004310D02*
X028003Y004550D01*
X028163Y004550D01*
X028660Y005310D02*
X028740Y005310D01*
X028700Y005310D02*
X028700Y005550D01*
X028660Y005550D02*
X028740Y005550D01*
X028844Y005510D02*
X028844Y005350D01*
X028884Y005310D01*
X028964Y005310D01*
X029004Y005350D01*
X029120Y005430D02*
X029240Y005550D01*
X029240Y005310D01*
X029281Y005430D02*
X029120Y005430D01*
X029004Y005510D02*
X028964Y005550D01*
X028884Y005550D01*
X028844Y005510D01*
X028780Y005680D02*
X029180Y005680D01*
X029600Y005680D01*
X029623Y005682D01*
X029646Y005687D01*
X029668Y005696D01*
X029688Y005709D01*
X029706Y005724D01*
X029721Y005742D01*
X029734Y005762D01*
X029743Y005784D01*
X029748Y005807D01*
X029750Y005830D01*
X029180Y005680D02*
X029178Y005707D01*
X029173Y005734D01*
X029163Y005760D01*
X029151Y005784D01*
X029135Y005806D01*
X029117Y005826D01*
X029095Y005843D01*
X029072Y005858D01*
X029047Y005868D01*
X029021Y005876D01*
X028994Y005880D01*
X028966Y005880D01*
X028939Y005876D01*
X028913Y005868D01*
X028888Y005858D01*
X028865Y005843D01*
X028843Y005826D01*
X028825Y005806D01*
X028809Y005784D01*
X028797Y005760D01*
X028787Y005734D01*
X028782Y005707D01*
X028780Y005680D01*
X028360Y005680D01*
X028337Y005682D01*
X028314Y005687D01*
X028292Y005696D01*
X028272Y005709D01*
X028254Y005724D01*
X028239Y005742D01*
X028226Y005762D01*
X028217Y005784D01*
X028212Y005807D01*
X028210Y005830D01*
X028860Y003966D02*
X028860Y003672D01*
X029300Y003672D01*
X029300Y003966D01*
X029080Y003819D02*
X029080Y003672D01*
X029300Y003506D02*
X029080Y003285D01*
X029153Y003212D02*
X028860Y003506D01*
X028860Y003212D02*
X029300Y003212D01*
X029300Y003045D02*
X029006Y003045D01*
X028860Y002898D01*
X029006Y002752D01*
X029300Y002752D01*
X029300Y002585D02*
X029153Y002438D01*
X029153Y002511D02*
X029153Y002291D01*
X029300Y002291D02*
X028860Y002291D01*
X028860Y002511D01*
X028933Y002585D01*
X029080Y002585D01*
X029153Y002511D01*
X029080Y002752D02*
X029080Y003045D01*
X029153Y002124D02*
X029227Y002124D01*
X029300Y002051D01*
X029300Y001831D01*
X028860Y001831D01*
X028860Y002051D01*
X028933Y002124D01*
X029006Y002124D01*
X029080Y002051D01*
X029080Y001831D01*
X029080Y002051D02*
X029153Y002124D01*
X029300Y001204D02*
X029300Y000910D01*
X028860Y000910D01*
X028349Y000650D02*
X028189Y000650D01*
X028189Y000410D01*
X028073Y000410D02*
X028073Y000570D01*
X028189Y000530D02*
X028269Y000530D01*
X028073Y000410D02*
X027953Y000410D01*
X027912Y000450D01*
X027912Y000570D01*
X027796Y000570D02*
X027796Y000610D01*
X027756Y000650D01*
X027676Y000650D01*
X027636Y000610D01*
X027520Y000610D02*
X027480Y000650D01*
X027400Y000650D01*
X027360Y000610D01*
X027520Y000610D02*
X027520Y000570D01*
X027360Y000410D01*
X027520Y000410D01*
X027636Y000410D02*
X027796Y000570D01*
X027796Y000410D02*
X027636Y000410D01*
X027073Y000450D02*
X027033Y000410D01*
X026953Y000410D01*
X026912Y000450D01*
X027073Y000610D01*
X027073Y000450D01*
X027073Y000610D02*
X027033Y000650D01*
X026953Y000650D01*
X026912Y000610D01*
X026912Y000450D01*
X026796Y000450D02*
X026756Y000410D01*
X026676Y000410D01*
X026636Y000450D01*
X026716Y000530D02*
X026756Y000530D01*
X026796Y000490D01*
X026796Y000450D01*
X026756Y000530D02*
X026796Y000570D01*
X026796Y000610D01*
X026756Y000650D01*
X026676Y000650D01*
X026636Y000610D01*
X026520Y000610D02*
X026480Y000650D01*
X026400Y000650D01*
X026360Y000610D01*
X026360Y000450D01*
X026400Y000410D01*
X026480Y000410D01*
X026520Y000450D01*
X022306Y003360D02*
X022306Y003600D01*
X022186Y003480D01*
X022346Y003480D01*
X022070Y003400D02*
X022070Y003560D01*
X022030Y003600D01*
X021910Y003600D01*
X021910Y003360D01*
X022030Y003360D01*
X022070Y003400D01*
X021006Y003427D02*
X021006Y003133D01*
X020932Y003060D01*
X020785Y003060D01*
X020712Y003133D01*
X021006Y003427D01*
X020932Y003500D01*
X020785Y003500D01*
X020712Y003427D01*
X020712Y003133D01*
X020545Y003427D02*
X020252Y003133D01*
X020252Y003060D01*
X020085Y003133D02*
X020011Y003060D01*
X019865Y003060D01*
X019791Y003133D01*
X019624Y003060D02*
X019331Y003060D01*
X019478Y003060D02*
X019478Y003500D01*
X019331Y003354D01*
X019164Y003500D02*
X018870Y003500D01*
X019017Y003500D02*
X019017Y003060D01*
X018704Y003060D02*
X018410Y003060D01*
X018410Y003500D01*
X017133Y004410D02*
X017012Y004490D01*
X017133Y004570D01*
X017012Y004650D02*
X017012Y004410D01*
X016896Y004450D02*
X016856Y004410D01*
X016776Y004410D01*
X016736Y004450D01*
X016896Y004610D01*
X016896Y004450D01*
X016736Y004450D02*
X016736Y004610D01*
X016776Y004650D01*
X016856Y004650D01*
X016896Y004610D01*
X016620Y004410D02*
X016460Y004410D01*
X016540Y004410D02*
X016540Y004650D01*
X016460Y004570D01*
X016173Y004410D02*
X016012Y004410D01*
X016093Y004410D02*
X016093Y004650D01*
X016012Y004570D01*
X015896Y004570D02*
X015736Y004410D01*
X015896Y004410D01*
X015896Y004570D02*
X015896Y004610D01*
X015856Y004650D01*
X015776Y004650D01*
X015736Y004610D01*
X015620Y004610D02*
X015620Y004530D01*
X015580Y004490D01*
X015460Y004490D01*
X015460Y004410D02*
X015460Y004650D01*
X015580Y004650D01*
X015620Y004610D01*
X015540Y004490D02*
X015620Y004410D01*
X014873Y003250D02*
X014793Y003210D01*
X014712Y003130D01*
X014833Y003130D01*
X014873Y003090D01*
X014873Y003050D01*
X014833Y003010D01*
X014753Y003010D01*
X014712Y003050D01*
X014712Y003130D01*
X014596Y003170D02*
X014596Y003210D01*
X014556Y003250D01*
X014476Y003250D01*
X014436Y003210D01*
X014320Y003210D02*
X014280Y003250D01*
X014200Y003250D01*
X014160Y003210D01*
X014160Y003050D01*
X014200Y003010D01*
X014280Y003010D01*
X014320Y003050D01*
X014436Y003010D02*
X014596Y003170D01*
X014596Y003010D02*
X014436Y003010D01*
X014476Y002850D02*
X014436Y002810D01*
X014476Y002850D02*
X014556Y002850D01*
X014596Y002810D01*
X014596Y002770D01*
X014436Y002610D01*
X014596Y002610D01*
X014712Y002650D02*
X014753Y002610D01*
X014873Y002610D01*
X014873Y002770D01*
X014989Y002730D02*
X015069Y002730D01*
X014989Y002850D02*
X015149Y002850D01*
X014989Y002850D02*
X014989Y002610D01*
X014712Y002650D02*
X014712Y002770D01*
X014320Y002770D02*
X014320Y002810D01*
X014280Y002850D01*
X014200Y002850D01*
X014160Y002810D01*
X014320Y002770D02*
X014160Y002610D01*
X014320Y002610D01*
X013556Y006110D02*
X013476Y006110D01*
X013436Y006150D01*
X013516Y006230D02*
X013556Y006230D01*
X013596Y006190D01*
X013596Y006150D01*
X013556Y006110D01*
X013556Y006230D02*
X013596Y006270D01*
X013596Y006310D01*
X013556Y006350D01*
X013476Y006350D01*
X013436Y006310D01*
X013320Y006110D02*
X013160Y006110D01*
X013160Y006350D01*
X011089Y007810D02*
X011089Y008050D01*
X011249Y008050D01*
X011169Y007930D02*
X011089Y007930D01*
X010973Y007930D02*
X010973Y007810D01*
X010973Y007930D02*
X010933Y007970D01*
X010812Y007970D01*
X010812Y007810D01*
X010696Y008010D02*
X010536Y007850D01*
X010536Y007810D01*
X010380Y007810D02*
X010380Y008050D01*
X010260Y007930D01*
X010420Y007930D01*
X010536Y008050D02*
X010696Y008050D01*
X010696Y008010D01*
X010812Y008210D02*
X010812Y008370D01*
X010933Y008370D01*
X010973Y008330D01*
X010973Y008210D01*
X011089Y008210D02*
X011089Y008450D01*
X011249Y008450D01*
X011169Y008330D02*
X011089Y008330D01*
X010696Y008410D02*
X010696Y008450D01*
X010536Y008450D01*
X010380Y008450D02*
X010260Y008330D01*
X010420Y008330D01*
X010380Y008210D02*
X010380Y008450D01*
X010420Y008610D02*
X010260Y008610D01*
X010420Y008770D01*
X010420Y008810D01*
X010380Y008850D01*
X010300Y008850D01*
X010260Y008810D01*
X010536Y008850D02*
X010536Y008610D01*
X010536Y008690D02*
X010656Y008770D01*
X010536Y008690D02*
X010656Y008610D01*
X010696Y008410D02*
X010536Y008250D01*
X010536Y008210D01*
X009973Y008250D02*
X009973Y008410D01*
X009933Y008450D01*
X009853Y008450D01*
X009812Y008410D01*
X009812Y008370D01*
X009853Y008330D01*
X009973Y008330D01*
X009973Y008250D02*
X009933Y008210D01*
X009853Y008210D01*
X009812Y008250D01*
X009696Y008210D02*
X009536Y008210D01*
X009616Y008210D02*
X009616Y008450D01*
X009536Y008370D01*
X009420Y008410D02*
X009380Y008450D01*
X009300Y008450D01*
X009260Y008410D01*
X009260Y008250D01*
X009300Y008210D01*
X009380Y008210D01*
X009420Y008250D01*
X009380Y008050D02*
X009300Y008050D01*
X009260Y008010D01*
X009260Y007850D01*
X009300Y007810D01*
X009380Y007810D01*
X009420Y007850D01*
X009536Y007810D02*
X009696Y007970D01*
X009696Y008010D01*
X009656Y008050D01*
X009576Y008050D01*
X009536Y008010D01*
X009420Y008010D02*
X009380Y008050D01*
X009536Y007810D02*
X009696Y007810D01*
X009812Y007810D02*
X009973Y007810D01*
X009893Y007810D02*
X009893Y008050D01*
X009812Y007970D01*
X009812Y008610D02*
X009812Y008650D01*
X009973Y008810D01*
X009973Y008850D01*
X009812Y008850D01*
X009616Y008850D02*
X009616Y008610D01*
X009536Y008610D02*
X009696Y008610D01*
X009536Y008770D02*
X009616Y008850D01*
X009420Y008810D02*
X009420Y008730D01*
X009380Y008690D01*
X009260Y008690D01*
X009260Y008610D02*
X009260Y008850D01*
X009380Y008850D01*
X009420Y008810D01*
X009340Y008690D02*
X009420Y008610D01*
X008810Y008610D02*
X008770Y008610D01*
X008770Y008650D01*
X008810Y008650D01*
X008810Y008610D01*
X008810Y008450D02*
X008609Y008210D01*
X008493Y008210D02*
X008333Y008210D01*
X008413Y008210D02*
X008413Y008450D01*
X008333Y008370D01*
X008333Y008610D02*
X008493Y008610D01*
X008413Y008610D02*
X008413Y008850D01*
X008333Y008770D01*
X008609Y008810D02*
X008609Y008850D01*
X008650Y008850D01*
X008650Y008810D01*
X008609Y008810D01*
X008609Y008610D02*
X008810Y008850D01*
X008650Y008450D02*
X008650Y008410D01*
X008609Y008410D01*
X008609Y008450D01*
X008650Y008450D01*
X008770Y008250D02*
X008810Y008250D01*
X008810Y008210D01*
X008770Y008210D01*
X008770Y008250D01*
X007947Y008210D02*
X007827Y008290D01*
X007947Y008370D01*
X007827Y008450D02*
X007827Y008210D01*
X007711Y008250D02*
X007711Y008410D01*
X007671Y008450D01*
X007591Y008450D01*
X007551Y008410D01*
X007551Y008370D01*
X007591Y008330D01*
X007711Y008330D01*
X007711Y008250D02*
X007671Y008210D01*
X007591Y008210D01*
X007551Y008250D01*
X007434Y008210D02*
X007274Y008210D01*
X007354Y008210D02*
X007354Y008450D01*
X007274Y008370D01*
X007176Y008250D02*
X007176Y008210D01*
X007136Y008210D01*
X007136Y008250D01*
X007176Y008250D01*
X007020Y008250D02*
X007020Y008290D01*
X006980Y008330D01*
X006860Y008330D01*
X006860Y008250D01*
X006900Y008210D01*
X006980Y008210D01*
X007020Y008250D01*
X006940Y008410D02*
X006860Y008330D01*
X006940Y008410D02*
X007020Y008450D01*
X007020Y008610D02*
X006860Y008610D01*
X006940Y008610D02*
X006940Y008850D01*
X006860Y008770D01*
X007136Y008770D02*
X007176Y008730D01*
X007256Y008730D01*
X007296Y008690D01*
X007296Y008650D01*
X007256Y008610D01*
X007176Y008610D01*
X007136Y008650D01*
X007136Y008690D01*
X007176Y008730D01*
X007136Y008770D02*
X007136Y008810D01*
X007176Y008850D01*
X007256Y008850D01*
X007296Y008810D01*
X007296Y008770D01*
X007256Y008730D01*
X007412Y008650D02*
X007453Y008650D01*
X007453Y008610D01*
X007412Y008610D01*
X007412Y008650D01*
X007551Y008650D02*
X007551Y008610D01*
X007551Y008650D02*
X007711Y008810D01*
X007711Y008850D01*
X007551Y008850D01*
X007827Y008850D02*
X007827Y008610D01*
X007827Y008690D02*
X007947Y008770D01*
X007827Y008690D02*
X007947Y008610D01*
X006573Y008650D02*
X006533Y008610D01*
X006453Y008610D01*
X006412Y008650D01*
X006412Y008730D02*
X006493Y008770D01*
X006533Y008770D01*
X006573Y008730D01*
X006573Y008650D01*
X006412Y008730D02*
X006412Y008850D01*
X006573Y008850D01*
X006216Y008850D02*
X006216Y008610D01*
X006136Y008610D02*
X006296Y008610D01*
X006216Y008450D02*
X006216Y008210D01*
X006136Y008210D02*
X006296Y008210D01*
X006412Y008250D02*
X006453Y008210D01*
X006533Y008210D01*
X006573Y008250D01*
X006573Y008290D01*
X006533Y008330D01*
X006412Y008330D01*
X006412Y008250D01*
X006412Y008330D02*
X006493Y008410D01*
X006573Y008450D01*
X006216Y008450D02*
X006136Y008370D01*
X006020Y008330D02*
X005980Y008290D01*
X005860Y008290D01*
X005860Y008210D02*
X005860Y008450D01*
X005980Y008450D01*
X006020Y008410D01*
X006020Y008330D01*
X005940Y008290D02*
X006020Y008210D01*
X006020Y008610D02*
X005940Y008690D01*
X005980Y008690D02*
X005860Y008690D01*
X005860Y008610D02*
X005860Y008850D01*
X005980Y008850D01*
X006020Y008810D01*
X006020Y008730D01*
X005980Y008690D01*
X006136Y008770D02*
X006216Y008850D01*
X003730Y009680D02*
X003730Y011380D01*
X003680Y011380D01*
X003680Y011980D01*
X003730Y011980D01*
X003730Y012530D01*
X003530Y012680D01*
X003530Y012880D01*
X003530Y013480D01*
X003530Y013680D01*
X003730Y013830D01*
X003730Y015380D01*
X003330Y015380D01*
X003230Y015380D01*
X003230Y013480D01*
X003230Y012880D01*
X003230Y010180D01*
X000730Y010180D01*
X000730Y022180D01*
X003230Y022180D01*
X003230Y020480D01*
X003230Y019880D01*
X003230Y016980D01*
X003330Y016980D01*
X003730Y016980D01*
X003730Y015380D01*
X003230Y015380D02*
X002930Y015380D01*
X002930Y016980D01*
X003230Y016980D01*
X003730Y016980D02*
X003730Y019530D01*
X003530Y019680D01*
X003530Y019880D01*
X003530Y020480D01*
X003330Y020480D01*
X003230Y020480D01*
X003530Y020480D02*
X003530Y020680D01*
X003730Y020830D01*
X003730Y022680D01*
X000230Y022680D01*
X000230Y022180D01*
X000130Y022180D01*
X000130Y021680D01*
X000230Y021680D01*
X000230Y016430D01*
X000130Y016430D01*
X000130Y015930D01*
X000230Y015930D01*
X000230Y010680D01*
X000130Y010680D01*
X000130Y010180D01*
X000230Y010180D01*
X000230Y009680D01*
X003730Y009680D01*
X003530Y012880D02*
X003330Y012880D01*
X003230Y012880D01*
X003230Y013480D02*
X003330Y013480D01*
X003530Y013480D01*
X004160Y015910D02*
X004320Y016070D01*
X004320Y016110D01*
X004280Y016150D01*
X004200Y016150D01*
X004160Y016110D01*
X004160Y015910D02*
X004320Y015910D01*
X004436Y015910D02*
X004596Y016070D01*
X004596Y016110D01*
X004556Y016150D01*
X004476Y016150D01*
X004436Y016110D01*
X004436Y015910D02*
X004596Y015910D01*
X004712Y015950D02*
X004753Y015910D01*
X004873Y015910D01*
X004873Y016070D01*
X004989Y016030D02*
X005069Y016030D01*
X004989Y016150D02*
X005149Y016150D01*
X004989Y016150D02*
X004989Y015910D01*
X004712Y015950D02*
X004712Y016070D01*
X004712Y016310D02*
X004712Y016350D01*
X004873Y016510D01*
X004873Y016550D01*
X004712Y016550D01*
X004516Y016550D02*
X004516Y016310D01*
X004436Y016310D02*
X004596Y016310D01*
X004436Y016470D02*
X004516Y016550D01*
X004320Y016510D02*
X004280Y016550D01*
X004200Y016550D01*
X004160Y016510D01*
X004160Y016350D01*
X004200Y016310D01*
X004280Y016310D01*
X004320Y016350D01*
X007160Y016350D02*
X007200Y016310D01*
X007280Y016310D01*
X007320Y016350D01*
X007436Y016310D02*
X007596Y016310D01*
X007516Y016310D02*
X007516Y016550D01*
X007436Y016470D01*
X007320Y016510D02*
X007280Y016550D01*
X007200Y016550D01*
X007160Y016510D01*
X007160Y016350D01*
X007200Y016150D02*
X007160Y016110D01*
X007200Y016150D02*
X007280Y016150D01*
X007320Y016110D01*
X007320Y016070D01*
X007160Y015910D01*
X007320Y015910D01*
X007436Y015910D02*
X007596Y016070D01*
X007596Y016110D01*
X007556Y016150D01*
X007476Y016150D01*
X007436Y016110D01*
X007436Y015910D02*
X007596Y015910D01*
X007712Y015950D02*
X007753Y015910D01*
X007873Y015910D01*
X007873Y016070D01*
X007989Y016030D02*
X008069Y016030D01*
X007989Y016150D02*
X008149Y016150D01*
X007989Y016150D02*
X007989Y015910D01*
X007712Y015950D02*
X007712Y016070D01*
X007753Y016310D02*
X007712Y016350D01*
X007712Y016390D01*
X007753Y016430D01*
X007833Y016430D01*
X007873Y016390D01*
X007873Y016350D01*
X007833Y016310D01*
X007753Y016310D01*
X007753Y016430D02*
X007712Y016470D01*
X007712Y016510D01*
X007753Y016550D01*
X007833Y016550D01*
X007873Y016510D01*
X007873Y016470D01*
X007833Y016430D01*
X009548Y016450D02*
X009548Y016010D01*
X009841Y016010D01*
X010155Y016010D02*
X010155Y016450D01*
X010008Y016450D02*
X010302Y016450D01*
X010468Y016304D02*
X010615Y016450D01*
X010615Y016010D01*
X010468Y016010D02*
X010762Y016010D01*
X010929Y016083D02*
X011002Y016010D01*
X011149Y016010D01*
X011222Y016083D01*
X011222Y016157D01*
X011149Y016230D01*
X011076Y016230D01*
X011149Y016230D02*
X011222Y016304D01*
X011222Y016377D01*
X011149Y016450D01*
X011002Y016450D01*
X010929Y016377D01*
X011389Y016450D02*
X011683Y016450D01*
X011683Y016377D01*
X011389Y016083D01*
X011389Y016010D01*
X011850Y016083D02*
X011850Y016377D01*
X011923Y016450D01*
X012070Y016450D01*
X012143Y016377D01*
X011850Y016083D01*
X011923Y016010D01*
X012070Y016010D01*
X012143Y016083D01*
X012143Y016377D01*
X014960Y015610D02*
X014960Y015450D01*
X015000Y015410D01*
X015080Y015410D01*
X015120Y015450D01*
X015236Y015410D02*
X015396Y015570D01*
X015396Y015610D01*
X015356Y015650D01*
X015276Y015650D01*
X015236Y015610D01*
X015120Y015610D02*
X015080Y015650D01*
X015000Y015650D01*
X014960Y015610D01*
X015236Y015410D02*
X015396Y015410D01*
X015512Y015450D02*
X015673Y015610D01*
X015673Y015450D01*
X015633Y015410D01*
X015553Y015410D01*
X015512Y015450D01*
X015512Y015610D01*
X015553Y015650D01*
X015633Y015650D01*
X015673Y015610D01*
X015789Y015250D02*
X015949Y015250D01*
X015869Y015130D02*
X015789Y015130D01*
X015789Y015010D02*
X015789Y015250D01*
X015673Y015170D02*
X015673Y015010D01*
X015553Y015010D01*
X015512Y015050D01*
X015512Y015170D01*
X015396Y015170D02*
X015396Y015210D01*
X015356Y015250D01*
X015276Y015250D01*
X015236Y015210D01*
X015120Y015210D02*
X015080Y015250D01*
X015000Y015250D01*
X014960Y015210D01*
X015120Y015210D02*
X015120Y015170D01*
X014960Y015010D01*
X015120Y015010D01*
X015236Y015010D02*
X015396Y015170D01*
X015396Y015010D02*
X015236Y015010D01*
X013633Y012750D02*
X013673Y012710D01*
X013673Y012670D01*
X013633Y012630D01*
X013553Y012630D01*
X013512Y012670D01*
X013512Y012710D01*
X013553Y012750D01*
X013633Y012750D01*
X013633Y012630D02*
X013673Y012590D01*
X013673Y012550D01*
X013633Y012510D01*
X013553Y012510D01*
X013512Y012550D01*
X013512Y012590D01*
X013553Y012630D01*
X013396Y012510D02*
X013236Y012510D01*
X013316Y012510D02*
X013316Y012750D01*
X013236Y012670D01*
X013120Y012630D02*
X013080Y012590D01*
X012960Y012590D01*
X012960Y012510D02*
X012960Y012750D01*
X013080Y012750D01*
X013120Y012710D01*
X013120Y012630D01*
X013040Y012590D02*
X013120Y012510D01*
X013040Y012300D02*
X013040Y012060D01*
X012960Y012060D02*
X013120Y012060D01*
X013236Y012100D02*
X013396Y012260D01*
X013396Y012100D01*
X013356Y012060D01*
X013276Y012060D01*
X013236Y012100D01*
X013236Y012260D01*
X013276Y012300D01*
X013356Y012300D01*
X013396Y012260D01*
X013512Y012300D02*
X013512Y012060D01*
X013512Y012140D02*
X013633Y012220D01*
X013512Y012140D02*
X013633Y012060D01*
X013040Y012300D02*
X012960Y012220D01*
X013160Y010894D02*
X013200Y010894D01*
X013360Y010734D01*
X013400Y010734D01*
X013280Y010618D02*
X013280Y010458D01*
X013320Y010341D02*
X013360Y010341D01*
X013400Y010301D01*
X013400Y010221D01*
X013360Y010181D01*
X013320Y010181D01*
X013280Y010221D01*
X013280Y010301D01*
X013320Y010341D01*
X013280Y010301D02*
X013240Y010341D01*
X013200Y010341D01*
X013160Y010301D01*
X013160Y010221D01*
X013200Y010181D01*
X013240Y010181D01*
X013280Y010221D01*
X013320Y010065D02*
X013280Y010025D01*
X013280Y009905D01*
X013360Y009905D01*
X013400Y009945D01*
X013400Y010025D01*
X013360Y010065D01*
X013320Y010065D01*
X013200Y009985D02*
X013160Y010065D01*
X013200Y009985D02*
X013280Y009905D01*
X013160Y009789D02*
X013160Y009629D01*
X013160Y009709D02*
X013400Y009709D01*
X013400Y009525D02*
X013400Y009445D01*
X013400Y009485D02*
X013160Y009485D01*
X013160Y009445D02*
X013160Y009525D01*
X013160Y009329D02*
X013160Y009168D01*
X013400Y009168D01*
X013280Y009168D02*
X013280Y009248D01*
X013160Y010734D02*
X013160Y010894D01*
X017460Y007910D02*
X017460Y007750D01*
X017500Y007710D01*
X017580Y007710D01*
X017620Y007750D01*
X017736Y007710D02*
X017896Y007870D01*
X017896Y007910D01*
X017856Y007950D01*
X017776Y007950D01*
X017736Y007910D01*
X017620Y007910D02*
X017580Y007950D01*
X017500Y007950D01*
X017460Y007910D01*
X017736Y007710D02*
X017896Y007710D01*
X018012Y007710D02*
X018012Y007750D01*
X018173Y007910D01*
X018173Y007950D01*
X018012Y007950D01*
X018053Y007550D02*
X018012Y007510D01*
X018012Y007470D01*
X018053Y007430D01*
X018133Y007430D01*
X018173Y007390D01*
X018173Y007350D01*
X018133Y007310D01*
X018053Y007310D01*
X018012Y007350D01*
X018012Y007390D01*
X018053Y007430D01*
X018133Y007430D02*
X018173Y007470D01*
X018173Y007510D01*
X018133Y007550D01*
X018053Y007550D01*
X017896Y007510D02*
X017856Y007550D01*
X017776Y007550D01*
X017736Y007510D01*
X017620Y007510D02*
X017580Y007550D01*
X017500Y007550D01*
X017460Y007510D01*
X017460Y007350D01*
X017500Y007310D01*
X017580Y007310D01*
X017620Y007350D01*
X017736Y007310D02*
X017896Y007470D01*
X017896Y007510D01*
X017896Y007310D02*
X017736Y007310D01*
X017776Y007150D02*
X017736Y007110D01*
X017776Y007150D02*
X017856Y007150D01*
X017896Y007110D01*
X017896Y007070D01*
X017736Y006910D01*
X017896Y006910D01*
X018012Y006910D02*
X018173Y007070D01*
X018173Y007110D01*
X018133Y007150D01*
X018053Y007150D01*
X018012Y007110D01*
X018012Y006910D02*
X018173Y006910D01*
X018460Y006910D02*
X018620Y007070D01*
X018620Y007110D01*
X018580Y007150D01*
X018500Y007150D01*
X018460Y007110D01*
X018460Y006910D02*
X018620Y006910D01*
X018736Y006910D02*
X018736Y007150D01*
X018856Y007070D02*
X018736Y006990D01*
X018856Y006910D01*
X018736Y007310D02*
X018736Y007350D01*
X018896Y007510D01*
X018896Y007550D01*
X018736Y007550D01*
X018580Y007550D02*
X018460Y007430D01*
X018620Y007430D01*
X018580Y007310D02*
X018580Y007550D01*
X018580Y007710D02*
X018580Y007950D01*
X018460Y007830D01*
X018620Y007830D01*
X018736Y007750D02*
X018736Y007710D01*
X018736Y007750D02*
X018896Y007910D01*
X018896Y007950D01*
X018736Y007950D01*
X019012Y007870D02*
X019012Y007710D01*
X019012Y007870D02*
X019133Y007870D01*
X019173Y007830D01*
X019173Y007710D01*
X019289Y007710D02*
X019289Y007950D01*
X019449Y007950D01*
X019369Y007830D02*
X019289Y007830D01*
X019289Y007550D02*
X019449Y007550D01*
X019369Y007430D02*
X019289Y007430D01*
X019173Y007430D02*
X019133Y007470D01*
X019012Y007470D01*
X019012Y007310D01*
X019173Y007310D02*
X019173Y007430D01*
X019289Y007310D02*
X019289Y007550D01*
X019860Y007150D02*
X019980Y007150D01*
X020020Y007110D01*
X020020Y007030D01*
X019980Y006990D01*
X019860Y006990D01*
X019860Y006910D02*
X019860Y007150D01*
X019940Y006990D02*
X020020Y006910D01*
X017620Y006910D02*
X017540Y006990D01*
X017580Y006990D02*
X017460Y006990D01*
X017460Y006910D02*
X017460Y007150D01*
X017580Y007150D01*
X017620Y007110D01*
X017620Y007030D01*
X017580Y006990D01*
X019865Y003500D02*
X020011Y003500D01*
X020085Y003427D01*
X020085Y003354D01*
X020011Y003280D01*
X020085Y003207D01*
X020085Y003133D01*
X020011Y003280D02*
X019938Y003280D01*
X019791Y003427D02*
X019865Y003500D01*
X020252Y003500D02*
X020545Y003500D01*
X020545Y003427D01*
X020004Y000550D02*
X019924Y000550D01*
X019884Y000510D01*
X019884Y000470D01*
X019924Y000430D01*
X020044Y000430D01*
X020044Y000350D02*
X020044Y000510D01*
X020004Y000550D01*
X020044Y000350D02*
X020004Y000310D01*
X019924Y000310D01*
X019884Y000350D01*
X019768Y000310D02*
X019608Y000310D01*
X019768Y000470D01*
X019768Y000510D01*
X019728Y000550D01*
X019648Y000550D01*
X019608Y000510D01*
X019491Y000510D02*
X019451Y000550D01*
X019371Y000550D01*
X019331Y000510D01*
X019331Y000350D01*
X019371Y000310D01*
X019451Y000310D01*
X019491Y000350D01*
X019044Y000550D02*
X018884Y000550D01*
X018884Y000310D01*
X018768Y000310D02*
X018768Y000470D01*
X018884Y000430D02*
X018964Y000430D01*
X018768Y000310D02*
X018648Y000310D01*
X018608Y000350D01*
X018608Y000470D01*
X018491Y000470D02*
X018491Y000510D01*
X018451Y000550D01*
X018371Y000550D01*
X018331Y000510D01*
X018215Y000510D02*
X018175Y000550D01*
X018095Y000550D01*
X018055Y000510D01*
X018215Y000510D02*
X018215Y000470D01*
X018055Y000310D01*
X018215Y000310D01*
X018331Y000310D02*
X018491Y000470D01*
X018491Y000310D02*
X018331Y000310D01*
X028210Y009530D02*
X028212Y009553D01*
X028217Y009576D01*
X028226Y009598D01*
X028239Y009618D01*
X028254Y009636D01*
X028272Y009651D01*
X028292Y009664D01*
X028314Y009673D01*
X028337Y009678D01*
X028360Y009680D01*
X029600Y009680D01*
X029623Y009678D01*
X029646Y009673D01*
X029668Y009664D01*
X029688Y009651D01*
X029706Y009636D01*
X029721Y009618D01*
X029734Y009598D01*
X029743Y009576D01*
X029748Y009553D01*
X029750Y009530D01*
X032960Y007550D02*
X032960Y007310D01*
X032960Y007390D02*
X033080Y007390D01*
X033120Y007430D01*
X033120Y007510D01*
X033080Y007550D01*
X032960Y007550D01*
X033040Y007390D02*
X033120Y007310D01*
X033236Y007310D02*
X033396Y007310D01*
X033316Y007310D02*
X033316Y007550D01*
X033236Y007470D01*
X033512Y007470D02*
X033553Y007430D01*
X033673Y007430D01*
X033673Y007350D02*
X033673Y007510D01*
X033633Y007550D01*
X033553Y007550D01*
X033512Y007510D01*
X033512Y007470D01*
X033512Y007350D02*
X033553Y007310D01*
X033633Y007310D01*
X033673Y007350D01*
X033512Y007150D02*
X033512Y006910D01*
X033512Y006990D02*
X033633Y007070D01*
X033512Y006990D02*
X033633Y006910D01*
X033396Y006950D02*
X033356Y006910D01*
X033276Y006910D01*
X033236Y006950D01*
X033396Y007110D01*
X033396Y006950D01*
X033236Y006950D02*
X033236Y007110D01*
X033276Y007150D01*
X033356Y007150D01*
X033396Y007110D01*
X033120Y006910D02*
X032960Y006910D01*
X033040Y006910D02*
X033040Y007150D01*
X032960Y007070D01*
X035260Y006210D02*
X035260Y006050D01*
X035300Y006010D01*
X035380Y006010D01*
X035420Y006050D01*
X035536Y006010D02*
X035696Y006170D01*
X035696Y006210D01*
X035656Y006250D01*
X035576Y006250D01*
X035536Y006210D01*
X035420Y006210D02*
X035380Y006250D01*
X035300Y006250D01*
X035260Y006210D01*
X035536Y006010D02*
X035696Y006010D01*
X035812Y006050D02*
X035853Y006010D01*
X035933Y006010D01*
X035973Y006050D01*
X035973Y006130D01*
X035933Y006170D01*
X035893Y006170D01*
X035812Y006130D01*
X035812Y006250D01*
X035973Y006250D01*
X035933Y005850D02*
X035973Y005810D01*
X035812Y005650D01*
X035853Y005610D01*
X035933Y005610D01*
X035973Y005650D01*
X035973Y005810D01*
X035933Y005850D02*
X035853Y005850D01*
X035812Y005810D01*
X035812Y005650D01*
X035696Y005650D02*
X035656Y005610D01*
X035576Y005610D01*
X035536Y005650D01*
X035616Y005730D02*
X035656Y005730D01*
X035696Y005690D01*
X035696Y005650D01*
X035656Y005730D02*
X035696Y005770D01*
X035696Y005810D01*
X035656Y005850D01*
X035576Y005850D01*
X035536Y005810D01*
X035420Y005810D02*
X035420Y005770D01*
X035380Y005730D01*
X035420Y005690D01*
X035420Y005650D01*
X035380Y005610D01*
X035300Y005610D01*
X035260Y005650D01*
X035340Y005730D02*
X035380Y005730D01*
X035420Y005810D02*
X035380Y005850D01*
X035300Y005850D01*
X035260Y005810D01*
X036089Y005810D02*
X036129Y005850D01*
X036209Y005850D01*
X036249Y005810D01*
X036089Y005650D01*
X036129Y005610D01*
X036209Y005610D01*
X036249Y005650D01*
X036249Y005810D01*
X036365Y005770D02*
X036365Y005650D01*
X036405Y005610D01*
X036525Y005610D01*
X036525Y005770D01*
X036641Y005730D02*
X036721Y005730D01*
X036641Y005610D02*
X036641Y005850D01*
X036801Y005850D01*
X036089Y005810D02*
X036089Y005650D01*
X038060Y004627D02*
X038060Y004333D01*
X038133Y004260D01*
X038280Y004260D01*
X038354Y004333D01*
X038354Y004480D01*
X038207Y004480D01*
X038354Y004627D02*
X038280Y004700D01*
X038133Y004700D01*
X038060Y004627D01*
X038520Y004700D02*
X038814Y004260D01*
X038814Y004700D01*
X038981Y004700D02*
X038981Y004260D01*
X039201Y004260D01*
X039274Y004333D01*
X039274Y004627D01*
X039201Y004700D01*
X038981Y004700D01*
X038520Y004700D02*
X038520Y004260D01*
X038540Y006910D02*
X038540Y007150D01*
X038460Y007070D01*
X038460Y006910D02*
X038620Y006910D01*
X038736Y006950D02*
X038896Y007110D01*
X038896Y006950D01*
X038856Y006910D01*
X038776Y006910D01*
X038736Y006950D01*
X038736Y007110D01*
X038776Y007150D01*
X038856Y007150D01*
X038896Y007110D01*
X039012Y007150D02*
X039012Y006910D01*
X039012Y006990D02*
X039133Y007070D01*
X039012Y006990D02*
X039133Y006910D01*
X039133Y007310D02*
X039053Y007310D01*
X039012Y007350D01*
X039173Y007510D01*
X039173Y007350D01*
X039133Y007310D01*
X039012Y007350D02*
X039012Y007510D01*
X039053Y007550D01*
X039133Y007550D01*
X039173Y007510D01*
X038896Y007510D02*
X038856Y007550D01*
X038776Y007550D01*
X038736Y007510D01*
X038620Y007510D02*
X038620Y007430D01*
X038580Y007390D01*
X038460Y007390D01*
X038460Y007310D02*
X038460Y007550D01*
X038580Y007550D01*
X038620Y007510D01*
X038540Y007390D02*
X038620Y007310D01*
X038736Y007310D02*
X038896Y007470D01*
X038896Y007510D01*
X038896Y007310D02*
X038736Y007310D01*
X034005Y004700D02*
X034005Y004407D01*
X033858Y004260D01*
X033711Y004407D01*
X033711Y004700D01*
X033544Y004627D02*
X033471Y004700D01*
X033324Y004700D01*
X033251Y004627D01*
X033544Y004627D02*
X033544Y004554D01*
X033251Y004260D01*
X033544Y004260D01*
X033094Y004260D02*
X033020Y004260D01*
X033020Y004333D01*
X033094Y004333D01*
X033094Y004260D01*
X032854Y004627D02*
X032560Y004333D01*
X032560Y004260D01*
X032560Y004700D02*
X032854Y004700D01*
X032854Y004627D01*
X022487Y011250D02*
X022327Y011250D01*
X022327Y011010D01*
X022211Y011010D02*
X022211Y011170D01*
X022327Y011130D02*
X022407Y011130D01*
X022211Y011010D02*
X022091Y011010D01*
X022051Y011050D01*
X022051Y011170D01*
X021934Y011010D02*
X021774Y011010D01*
X021854Y011010D02*
X021854Y011250D01*
X021774Y011170D01*
X021676Y011050D02*
X021676Y011010D01*
X021636Y011010D01*
X021636Y011050D01*
X021676Y011050D01*
X021520Y011050D02*
X021480Y011010D01*
X021400Y011010D01*
X021360Y011050D01*
X021520Y011210D01*
X021520Y011050D01*
X021360Y011050D02*
X021360Y011210D01*
X021400Y011250D01*
X021480Y011250D01*
X021520Y011210D01*
X021480Y011410D02*
X021520Y011450D01*
X021480Y011410D02*
X021400Y011410D01*
X021360Y011450D01*
X021360Y011610D01*
X021400Y011650D01*
X021480Y011650D01*
X021520Y011610D01*
X021636Y011610D02*
X021676Y011650D01*
X021756Y011650D01*
X021796Y011610D01*
X021796Y011570D01*
X021636Y011410D01*
X021796Y011410D01*
X021912Y011410D02*
X022073Y011570D01*
X022073Y011610D01*
X022033Y011650D01*
X021953Y011650D01*
X021912Y011610D01*
X021912Y011410D02*
X022073Y011410D01*
X017644Y018010D02*
X017484Y018010D01*
X017644Y018170D01*
X017644Y018210D01*
X017604Y018250D01*
X017524Y018250D01*
X017484Y018210D01*
X017368Y018010D02*
X017208Y018010D01*
X017208Y018250D01*
X013839Y021460D02*
X013839Y021700D01*
X013999Y021700D01*
X013919Y021580D02*
X013839Y021580D01*
X013723Y021620D02*
X013723Y021460D01*
X013603Y021460D01*
X013562Y021500D01*
X013562Y021620D01*
X013446Y021620D02*
X013446Y021660D01*
X013406Y021700D01*
X013326Y021700D01*
X013286Y021660D01*
X013170Y021660D02*
X013130Y021700D01*
X013050Y021700D01*
X013010Y021660D01*
X013170Y021660D02*
X013170Y021620D01*
X013010Y021460D01*
X013170Y021460D01*
X013286Y021460D02*
X013446Y021620D01*
X013446Y021460D02*
X013286Y021460D01*
X013286Y021960D02*
X013446Y021960D01*
X013366Y021960D02*
X013366Y022200D01*
X013286Y022120D01*
X013170Y022160D02*
X013130Y022200D01*
X013050Y022200D01*
X013010Y022160D01*
X013010Y022000D01*
X013050Y021960D01*
X013130Y021960D01*
X013170Y022000D01*
X013562Y022080D02*
X013723Y022080D01*
X013683Y021960D02*
X013683Y022200D01*
X013562Y022080D01*
X012010Y022210D02*
X011970Y022210D01*
X011970Y022250D01*
X012010Y022250D01*
X012010Y022210D01*
X011809Y022210D02*
X012010Y022450D01*
X011850Y022450D02*
X011850Y022410D01*
X011809Y022410D01*
X011809Y022450D01*
X011850Y022450D01*
X011613Y022450D02*
X011613Y022210D01*
X011533Y022210D02*
X011693Y022210D01*
X011595Y022050D02*
X011395Y021810D01*
X011279Y021810D02*
X011119Y021810D01*
X011199Y021810D02*
X011199Y022050D01*
X011119Y021970D01*
X011147Y022210D02*
X011027Y022290D01*
X011147Y022370D01*
X011027Y022450D02*
X011027Y022210D01*
X010911Y022250D02*
X010911Y022410D01*
X010871Y022450D01*
X010791Y022450D01*
X010751Y022410D01*
X010751Y022370D01*
X010791Y022330D01*
X010911Y022330D01*
X010911Y022250D02*
X010871Y022210D01*
X010791Y022210D01*
X010751Y022250D01*
X010634Y022210D02*
X010474Y022210D01*
X010554Y022210D02*
X010554Y022450D01*
X010474Y022370D01*
X010376Y022250D02*
X010376Y022210D01*
X010336Y022210D01*
X010336Y022250D01*
X010376Y022250D01*
X010220Y022250D02*
X010220Y022290D01*
X010180Y022330D01*
X010060Y022330D01*
X010060Y022250D01*
X010100Y022210D01*
X010180Y022210D01*
X010220Y022250D01*
X010140Y022410D02*
X010060Y022330D01*
X010140Y022410D02*
X010220Y022450D01*
X010180Y022050D02*
X010100Y022050D01*
X010060Y022010D01*
X010180Y022050D02*
X010220Y022010D01*
X010220Y021970D01*
X010060Y021810D01*
X010220Y021810D01*
X010336Y021930D02*
X010456Y022050D01*
X010456Y021810D01*
X010496Y021930D02*
X010336Y021930D01*
X010612Y021890D02*
X010733Y021970D01*
X010612Y021890D02*
X010733Y021810D01*
X010612Y021810D02*
X010612Y022050D01*
X011395Y022050D02*
X011395Y022010D01*
X011435Y022010D01*
X011435Y022050D01*
X011395Y022050D01*
X011555Y021850D02*
X011595Y021850D01*
X011595Y021810D01*
X011555Y021810D01*
X011555Y021850D01*
X011533Y022370D02*
X011613Y022450D01*
X009796Y022450D02*
X009796Y022410D01*
X009636Y022250D01*
X009636Y022210D01*
X009520Y022210D02*
X009440Y022290D01*
X009480Y022290D02*
X009360Y022290D01*
X009360Y022210D02*
X009360Y022450D01*
X009480Y022450D01*
X009520Y022410D01*
X009520Y022330D01*
X009480Y022290D01*
X009636Y022450D02*
X009796Y022450D01*
X009756Y022050D02*
X009796Y022010D01*
X009796Y021970D01*
X009756Y021930D01*
X009676Y021930D01*
X009636Y021970D01*
X009636Y022010D01*
X009676Y022050D01*
X009756Y022050D01*
X009756Y021930D02*
X009796Y021890D01*
X009796Y021850D01*
X009756Y021810D01*
X009676Y021810D01*
X009636Y021850D01*
X009636Y021890D01*
X009676Y021930D01*
X009520Y021930D02*
X009480Y021890D01*
X009360Y021890D01*
X009360Y021810D02*
X009360Y022050D01*
X009480Y022050D01*
X009520Y022010D01*
X009520Y021930D01*
X009440Y021890D02*
X009520Y021810D01*
X007449Y021800D02*
X007289Y021800D01*
X007289Y021560D01*
X007173Y021560D02*
X007173Y021720D01*
X007289Y021680D02*
X007369Y021680D01*
X007173Y021560D02*
X007053Y021560D01*
X007012Y021600D01*
X007012Y021720D01*
X006896Y021720D02*
X006736Y021560D01*
X006896Y021560D01*
X006896Y021720D02*
X006896Y021760D01*
X006856Y021800D01*
X006776Y021800D01*
X006736Y021760D01*
X006620Y021760D02*
X006580Y021800D01*
X006500Y021800D01*
X006460Y021760D01*
X006620Y021760D02*
X006620Y021720D01*
X006460Y021560D01*
X006620Y021560D01*
X006580Y021960D02*
X006500Y021960D01*
X006460Y022000D01*
X006460Y022160D01*
X006500Y022200D01*
X006580Y022200D01*
X006620Y022160D01*
X006736Y022120D02*
X006816Y022200D01*
X006816Y021960D01*
X006736Y021960D02*
X006896Y021960D01*
X007012Y022000D02*
X007053Y021960D01*
X007133Y021960D01*
X007173Y022000D01*
X007173Y022040D01*
X007133Y022080D01*
X007093Y022080D01*
X007133Y022080D02*
X007173Y022120D01*
X007173Y022160D01*
X007133Y022200D01*
X007053Y022200D01*
X007012Y022160D01*
X006620Y022000D02*
X006580Y021960D01*
X004699Y021800D02*
X004539Y021800D01*
X004539Y021560D01*
X004423Y021560D02*
X004423Y021720D01*
X004539Y021680D02*
X004619Y021680D01*
X004423Y021560D02*
X004303Y021560D01*
X004262Y021600D01*
X004262Y021720D01*
X004146Y021720D02*
X004146Y021760D01*
X004106Y021800D01*
X004026Y021800D01*
X003986Y021760D01*
X003870Y021760D02*
X003830Y021800D01*
X003750Y021800D01*
X003710Y021760D01*
X003870Y021760D02*
X003870Y021720D01*
X003710Y021560D01*
X003870Y021560D01*
X003986Y021560D02*
X004146Y021720D01*
X004146Y021560D02*
X003986Y021560D01*
X003986Y021960D02*
X004146Y021960D01*
X004066Y021960D02*
X004066Y022200D01*
X003986Y022120D01*
X003870Y022160D02*
X003830Y022200D01*
X003750Y022200D01*
X003710Y022160D01*
X003710Y022000D01*
X003750Y021960D01*
X003830Y021960D01*
X003870Y022000D01*
X004262Y021960D02*
X004423Y022120D01*
X004423Y022160D01*
X004383Y022200D01*
X004303Y022200D01*
X004262Y022160D01*
X004262Y021960D02*
X004423Y021960D01*
X003530Y019880D02*
X003330Y019880D01*
X003230Y019880D01*
X007860Y012800D02*
X007980Y012800D01*
X008020Y012760D01*
X008020Y012600D01*
X007980Y012560D01*
X007860Y012560D01*
X007860Y012800D01*
X008136Y012760D02*
X008176Y012800D01*
X008256Y012800D01*
X008296Y012760D01*
X008296Y012720D01*
X008256Y012680D01*
X008296Y012640D01*
X008296Y012600D01*
X008256Y012560D01*
X008176Y012560D01*
X008136Y012600D01*
X008216Y012680D02*
X008256Y012680D01*
X017460Y024510D02*
X017460Y024750D01*
X017580Y024750D01*
X017620Y024710D01*
X017620Y024630D01*
X017580Y024590D01*
X017460Y024590D01*
X017540Y024590D02*
X017620Y024510D01*
X017736Y024550D02*
X017776Y024510D01*
X017856Y024510D01*
X017896Y024550D01*
X017896Y024590D01*
X017856Y024630D01*
X017816Y024630D01*
X017856Y024630D02*
X017896Y024670D01*
X017896Y024710D01*
X017856Y024750D01*
X017776Y024750D01*
X017736Y024710D01*
X018160Y024710D02*
X018200Y024750D01*
X018280Y024750D01*
X018320Y024710D01*
X018320Y024670D01*
X018160Y024510D01*
X018320Y024510D01*
X018436Y024510D02*
X018436Y024750D01*
X018556Y024670D02*
X018436Y024590D01*
X018556Y024510D01*
X019360Y024510D02*
X019360Y024750D01*
X019480Y024750D01*
X019520Y024710D01*
X019520Y024630D01*
X019480Y024590D01*
X019360Y024590D01*
X019440Y024590D02*
X019520Y024510D01*
X019636Y024550D02*
X019676Y024510D01*
X019756Y024510D01*
X019796Y024550D01*
X019796Y024630D01*
X019756Y024670D01*
X019716Y024670D01*
X019636Y024630D01*
X019636Y024750D01*
X019796Y024750D01*
X019756Y024910D02*
X019756Y025150D01*
X019636Y025030D01*
X019796Y025030D01*
X020060Y025030D02*
X020180Y025030D01*
X020220Y024990D01*
X020220Y024950D01*
X020180Y024910D01*
X020100Y024910D01*
X020060Y024950D01*
X020060Y025030D01*
X020140Y025110D01*
X020220Y025150D01*
X020180Y025310D02*
X020180Y025550D01*
X020060Y025430D01*
X020220Y025430D01*
X020336Y025350D02*
X020336Y025310D01*
X020336Y025350D02*
X020496Y025510D01*
X020496Y025550D01*
X020336Y025550D01*
X020612Y025470D02*
X020733Y025470D01*
X020773Y025430D01*
X020773Y025310D01*
X020889Y025310D02*
X020889Y025550D01*
X021049Y025550D01*
X020969Y025430D02*
X020889Y025430D01*
X020612Y025470D02*
X020612Y025310D01*
X020554Y025150D02*
X020474Y025070D01*
X020554Y025150D02*
X020554Y024910D01*
X020474Y024910D02*
X020634Y024910D01*
X020751Y024950D02*
X020791Y024910D01*
X020871Y024910D01*
X020911Y024950D01*
X020911Y025110D01*
X020871Y025150D01*
X020791Y025150D01*
X020751Y025110D01*
X020751Y025070D01*
X020791Y025030D01*
X020911Y025030D01*
X021027Y024990D02*
X021147Y025070D01*
X021027Y024990D02*
X021147Y024910D01*
X021027Y024910D02*
X021027Y025150D01*
X021199Y024750D02*
X021199Y024510D01*
X021119Y024510D02*
X021279Y024510D01*
X021395Y024510D02*
X021595Y024750D01*
X021717Y024670D02*
X021757Y024710D01*
X021757Y024790D01*
X021809Y024910D02*
X022010Y025150D01*
X021850Y025150D02*
X021850Y025110D01*
X021809Y025110D01*
X021809Y025150D01*
X021850Y025150D01*
X021970Y024950D02*
X022010Y024950D01*
X022010Y024910D01*
X021970Y024910D01*
X021970Y024950D01*
X021693Y024910D02*
X021533Y024910D01*
X021613Y024910D02*
X021613Y025150D01*
X021533Y025070D01*
X021435Y024750D02*
X021435Y024710D01*
X021395Y024710D01*
X021395Y024750D01*
X021435Y024750D01*
X021555Y024550D02*
X021595Y024550D01*
X021595Y024510D01*
X021555Y024510D01*
X021555Y024550D01*
X021199Y024750D02*
X021119Y024670D01*
X020733Y024670D02*
X020612Y024590D01*
X020733Y024510D01*
X020612Y024510D02*
X020612Y024750D01*
X020456Y024750D02*
X020456Y024510D01*
X020496Y024630D02*
X020336Y024630D01*
X020456Y024750D01*
X020376Y024910D02*
X020336Y024910D01*
X020336Y024950D01*
X020376Y024950D01*
X020376Y024910D01*
X020180Y024750D02*
X020100Y024750D01*
X020060Y024710D01*
X020180Y024750D02*
X020220Y024710D01*
X020220Y024670D01*
X020060Y024510D01*
X020220Y024510D01*
X019520Y024910D02*
X019440Y024990D01*
X019480Y024990D02*
X019360Y024990D01*
X019360Y024910D02*
X019360Y025150D01*
X019480Y025150D01*
X019520Y025110D01*
X019520Y025030D01*
X019480Y024990D01*
X019480Y025310D02*
X019520Y025350D01*
X019480Y025310D02*
X019400Y025310D01*
X019360Y025350D01*
X019360Y025510D01*
X019400Y025550D01*
X019480Y025550D01*
X019520Y025510D01*
X019636Y025510D02*
X019676Y025550D01*
X019756Y025550D01*
X019796Y025510D01*
X019796Y025470D01*
X019756Y025430D01*
X019796Y025390D01*
X019796Y025350D01*
X019756Y025310D01*
X019676Y025310D01*
X019636Y025350D01*
X019716Y025430D02*
X019756Y025430D01*
X019149Y025550D02*
X018989Y025550D01*
X018989Y025310D01*
X018873Y025310D02*
X018873Y025430D01*
X018833Y025470D01*
X018712Y025470D01*
X018712Y025310D01*
X018596Y025510D02*
X018436Y025350D01*
X018436Y025310D01*
X018280Y025310D02*
X018280Y025550D01*
X018160Y025430D01*
X018320Y025430D01*
X018436Y025550D02*
X018596Y025550D01*
X018596Y025510D01*
X018989Y025430D02*
X019069Y025430D01*
X017896Y025470D02*
X017896Y025510D01*
X017856Y025550D01*
X017776Y025550D01*
X017736Y025510D01*
X017620Y025510D02*
X017580Y025550D01*
X017500Y025550D01*
X017460Y025510D01*
X017460Y025350D01*
X017500Y025310D01*
X017580Y025310D01*
X017620Y025350D01*
X017736Y025310D02*
X017896Y025470D01*
X017896Y025310D02*
X017736Y025310D01*
D12*
X011178Y004596D02*
X010968Y004596D01*
X010863Y004490D01*
X011178Y004596D02*
X011283Y004490D01*
X011283Y004385D01*
X010863Y003965D01*
X011283Y003965D01*
X011562Y003701D02*
X011562Y003596D01*
X011562Y003385D02*
X011457Y003385D01*
X011562Y003385D02*
X011562Y002965D01*
X011457Y002965D02*
X011667Y002965D01*
X011886Y003070D02*
X011991Y003175D01*
X012307Y003175D01*
X012307Y003280D02*
X012307Y002965D01*
X011991Y002965D01*
X011886Y003070D01*
X011991Y003385D02*
X012202Y003385D01*
X012307Y003280D01*
X012531Y003385D02*
X012846Y003385D01*
X012951Y003280D01*
X012951Y002965D01*
X012531Y002965D02*
X012531Y003385D01*
X012314Y002751D02*
X012314Y002646D01*
X012314Y002435D02*
X012209Y002435D01*
X012314Y002435D02*
X012314Y002015D01*
X012209Y002015D02*
X012419Y002015D01*
X012638Y002015D02*
X012638Y002435D01*
X012953Y002435D01*
X013059Y002330D01*
X013059Y002015D01*
X011984Y002015D02*
X011564Y002015D01*
X011564Y002646D01*
X011237Y002965D02*
X011027Y002965D01*
X011132Y002965D02*
X011132Y003596D01*
X011027Y003596D01*
X010803Y003385D02*
X010803Y002965D01*
X010487Y002965D01*
X010382Y003070D01*
X010382Y003385D01*
X010158Y003596D02*
X009948Y003596D01*
X010053Y003596D02*
X010053Y003070D01*
X009948Y002965D01*
X009843Y002965D01*
X009738Y003070D01*
X009843Y002435D02*
X009738Y002330D01*
X009738Y002120D01*
X009843Y002015D01*
X010053Y002015D01*
X010158Y002225D02*
X009738Y002225D01*
X009843Y002435D02*
X010053Y002435D01*
X010158Y002330D01*
X010158Y002225D01*
X010382Y002225D02*
X010592Y002435D01*
X010698Y002435D01*
X010382Y002435D02*
X010382Y002015D01*
X010588Y001646D02*
X010588Y001225D01*
X010378Y001015D01*
X010167Y001225D01*
X010167Y001646D01*
X009514Y002015D02*
X009198Y002015D01*
X009093Y002120D01*
X009093Y002330D01*
X009198Y002435D01*
X009514Y002435D01*
X008869Y002330D02*
X008869Y002015D01*
X008869Y002330D02*
X008764Y002435D01*
X008449Y002435D01*
X008449Y002015D01*
X008224Y002225D02*
X007804Y002225D01*
X007804Y002120D02*
X007804Y002330D01*
X007909Y002435D01*
X008119Y002435D01*
X008224Y002330D01*
X008224Y002225D01*
X008119Y002015D02*
X007909Y002015D01*
X007804Y002120D01*
X007580Y002120D02*
X007580Y002330D01*
X007475Y002435D01*
X007160Y002435D01*
X007160Y001805D01*
X007160Y001646D02*
X007160Y001015D01*
X007160Y001330D02*
X007265Y001435D01*
X007475Y001435D01*
X007580Y001330D01*
X007580Y001015D01*
X007804Y001015D02*
X008014Y001015D01*
X007909Y001015D02*
X007909Y001435D01*
X007804Y001435D01*
X007909Y001646D02*
X007909Y001751D01*
X008234Y001435D02*
X008549Y001435D01*
X008654Y001330D01*
X008654Y001015D01*
X008878Y001015D02*
X008878Y001646D01*
X008983Y001435D02*
X009194Y001435D01*
X009299Y001330D01*
X009299Y001015D01*
X008878Y001330D02*
X008983Y001435D01*
X008234Y001435D02*
X008234Y001015D01*
X007475Y002015D02*
X007160Y002015D01*
X006935Y002120D02*
X006830Y002015D01*
X006620Y002015D01*
X006515Y002120D01*
X006620Y002330D02*
X006515Y002435D01*
X006515Y002540D01*
X006620Y002646D01*
X006830Y002646D01*
X006935Y002540D01*
X006830Y002330D02*
X006935Y002225D01*
X006935Y002120D01*
X006830Y002330D02*
X006620Y002330D01*
X007370Y002755D02*
X007475Y002755D01*
X007580Y002860D01*
X007580Y003385D01*
X007909Y003385D02*
X008119Y003385D01*
X008224Y003280D01*
X008224Y002965D01*
X007909Y002965D01*
X007804Y003070D01*
X007909Y003175D01*
X008224Y003175D01*
X008449Y002965D02*
X008449Y003385D01*
X008764Y003385D01*
X008869Y003280D01*
X008869Y002965D01*
X008929Y003965D02*
X009350Y004385D01*
X009350Y004490D01*
X009245Y004596D01*
X009034Y004596D01*
X008929Y004490D01*
X008929Y003965D02*
X009350Y003965D01*
X009574Y004070D02*
X009574Y004490D01*
X009679Y004596D01*
X009889Y004596D01*
X009994Y004490D01*
X009574Y004070D01*
X009679Y003965D01*
X009889Y003965D01*
X009994Y004070D01*
X009994Y004490D01*
X010218Y004385D02*
X010429Y004596D01*
X010429Y003965D01*
X010639Y003965D02*
X010218Y003965D01*
X008061Y004070D02*
X008061Y004280D01*
X007850Y004280D01*
X007640Y004070D02*
X007745Y003965D01*
X007955Y003965D01*
X008061Y004070D01*
X008061Y004490D02*
X007955Y004596D01*
X007745Y004596D01*
X007640Y004490D01*
X007640Y004070D01*
X007416Y003965D02*
X007416Y004596D01*
X006996Y004596D02*
X007416Y003965D01*
X006996Y003965D02*
X006996Y004596D01*
X006776Y004596D02*
X006566Y004596D01*
X006671Y004596D02*
X006671Y003965D01*
X006566Y003965D02*
X006776Y003965D01*
X006830Y003596D02*
X006515Y003596D01*
X006515Y002965D01*
X006515Y003175D02*
X006830Y003175D01*
X006935Y003280D01*
X006935Y003490D01*
X006830Y003596D01*
X007160Y003385D02*
X007160Y003070D01*
X007265Y002965D01*
X007580Y002965D01*
X006935Y002965D02*
X006725Y003175D01*
X006342Y003965D02*
X006132Y004175D01*
X006237Y004175D02*
X005921Y004175D01*
X005921Y003965D02*
X005921Y004596D01*
X006237Y004596D01*
X006342Y004490D01*
X006342Y004280D01*
X006237Y004175D01*
X005697Y004280D02*
X005592Y004175D01*
X005277Y004175D01*
X005277Y003965D02*
X005277Y004596D01*
X005592Y004596D01*
X005697Y004490D01*
X005697Y004280D01*
X005053Y004175D02*
X005053Y004070D01*
X004948Y003965D01*
X004737Y003965D01*
X004632Y004070D01*
X004737Y004280D02*
X004948Y004280D01*
X005053Y004175D01*
X005053Y004490D02*
X004948Y004596D01*
X004737Y004596D01*
X004632Y004490D01*
X004632Y004385D01*
X004737Y004280D01*
X004842Y003596D02*
X004842Y002965D01*
X004632Y002965D02*
X005053Y002965D01*
X005277Y003070D02*
X005697Y003490D01*
X005697Y003070D01*
X005592Y002965D01*
X005382Y002965D01*
X005277Y003070D01*
X005277Y003490D01*
X005382Y003596D01*
X005592Y003596D01*
X005697Y003490D01*
X004842Y003596D02*
X004632Y003385D01*
X003764Y003280D02*
X003658Y003175D01*
X003343Y003175D01*
X003343Y002965D02*
X003343Y003596D01*
X003658Y003596D01*
X003764Y003490D01*
X003764Y003280D01*
X003119Y003070D02*
X003119Y003596D01*
X003014Y003965D02*
X002804Y003965D01*
X002699Y004070D01*
X002804Y004280D02*
X003119Y004280D01*
X003119Y004070D02*
X003119Y004490D01*
X003014Y004596D01*
X002804Y004596D01*
X002699Y004490D01*
X002699Y004385D01*
X002804Y004280D01*
X003014Y003965D02*
X003119Y004070D01*
X003343Y003965D02*
X003764Y004385D01*
X003764Y004490D01*
X003658Y004596D01*
X003448Y004596D01*
X003343Y004490D01*
X003343Y003965D02*
X003764Y003965D01*
X003119Y003070D02*
X003014Y002965D01*
X002804Y002965D01*
X002699Y003070D01*
X002699Y003596D01*
X002474Y003490D02*
X002369Y003596D01*
X002159Y003596D01*
X002054Y003490D01*
X002054Y003070D01*
X002159Y002965D01*
X002369Y002965D01*
X002474Y003070D01*
X002474Y003490D01*
X002474Y003965D02*
X002054Y003965D01*
X002264Y003965D02*
X002264Y004596D01*
X002054Y004385D01*
X001830Y004596D02*
X001410Y004596D01*
X001410Y003965D01*
X001830Y003965D01*
X001620Y004280D02*
X001410Y004280D01*
X001185Y003965D02*
X000765Y003965D01*
X000765Y004596D01*
X001185Y004596D01*
X000975Y004280D02*
X000765Y004280D01*
X000870Y003596D02*
X000765Y003490D01*
X000765Y003070D01*
X000870Y002965D01*
X001080Y002965D01*
X001185Y003070D01*
X001185Y003280D01*
X000975Y003280D01*
X001185Y003490D02*
X001080Y003596D01*
X000870Y003596D01*
X001410Y003596D02*
X001725Y003596D01*
X001830Y003490D01*
X001830Y003280D01*
X001725Y003175D01*
X001410Y003175D01*
X001620Y003175D02*
X001830Y002965D01*
X001410Y002965D02*
X001410Y003596D01*
X006515Y001646D02*
X006935Y001646D01*
X006725Y001646D02*
X006725Y001015D01*
X007475Y002015D02*
X007580Y002120D01*
X010812Y001330D02*
X010812Y001120D01*
X010917Y001015D01*
X011127Y001015D01*
X011232Y001120D01*
X011232Y001330D01*
X011127Y001435D01*
X010917Y001435D01*
X010812Y001330D01*
D13*
X010543Y004970D02*
X010208Y004970D01*
X010208Y005641D01*
X010543Y005641D01*
X010655Y005529D01*
X010655Y005082D01*
X010543Y004970D01*
X009965Y004970D02*
X009965Y005641D01*
X009517Y005641D02*
X009965Y004970D01*
X009517Y004970D02*
X009517Y005641D01*
X009274Y005417D02*
X009274Y004970D01*
X009274Y005305D02*
X008827Y005305D01*
X008827Y005417D02*
X009050Y005641D01*
X009274Y005417D01*
X008827Y005417D02*
X008827Y004970D01*
X007893Y004970D02*
X007446Y004970D01*
X007446Y005641D01*
X007893Y005641D01*
X007669Y005305D02*
X007446Y005305D01*
X007202Y005194D02*
X006979Y004970D01*
X006755Y005194D01*
X006755Y005641D01*
X006518Y005641D02*
X006295Y005641D01*
X006406Y005641D02*
X006406Y004970D01*
X006295Y004970D02*
X006518Y004970D01*
X006051Y004970D02*
X005828Y005194D01*
X005939Y005194D02*
X005604Y005194D01*
X005604Y004970D02*
X005604Y005641D01*
X005939Y005641D01*
X006051Y005529D01*
X006051Y005305D01*
X005939Y005194D01*
X005361Y005082D02*
X005361Y005529D01*
X005249Y005641D01*
X004914Y005641D01*
X004914Y004970D01*
X005249Y004970D01*
X005361Y005082D01*
X003979Y004970D02*
X003756Y005194D01*
X003868Y005194D02*
X003532Y005194D01*
X003532Y004970D02*
X003532Y005641D01*
X003868Y005641D01*
X003979Y005529D01*
X003979Y005305D01*
X003868Y005194D01*
X003289Y005082D02*
X003289Y005529D01*
X003177Y005641D01*
X002954Y005641D01*
X002842Y005529D01*
X002842Y005082D01*
X002954Y004970D01*
X003177Y004970D01*
X003289Y005082D01*
X002598Y005641D02*
X002151Y005641D01*
X002375Y005641D02*
X002375Y004970D01*
X001908Y005082D02*
X001908Y005529D01*
X001796Y005641D01*
X001572Y005641D01*
X001461Y005529D01*
X001461Y005082D01*
X001572Y004970D01*
X001796Y004970D01*
X001908Y005082D01*
X001217Y004970D02*
X001217Y005641D01*
X000994Y005417D01*
X000770Y005641D01*
X000770Y004970D01*
X007202Y005194D02*
X007202Y005641D01*
X011589Y005641D02*
X011589Y004970D01*
X011589Y005194D02*
X011925Y005194D01*
X012036Y005305D01*
X012036Y005529D01*
X011925Y005641D01*
X011589Y005641D01*
X012280Y005529D02*
X012280Y005082D01*
X012392Y004970D01*
X012615Y004970D01*
X012727Y005082D01*
X012727Y005529D01*
X012615Y005641D01*
X012392Y005641D01*
X012280Y005529D01*
X012970Y005641D02*
X012970Y004970D01*
X013194Y005194D01*
X013417Y004970D01*
X013417Y005641D01*
X013661Y005641D02*
X013661Y004970D01*
X014108Y004970D01*
X014352Y004970D02*
X014352Y005641D01*
X014687Y005641D01*
X014799Y005529D01*
X014799Y005305D01*
X014687Y005194D01*
X014352Y005194D01*
X014575Y005194D02*
X014799Y004970D01*
X014108Y005641D02*
X013661Y005641D01*
X013661Y005305D02*
X013885Y005305D01*
X007080Y011390D02*
X004720Y011390D01*
X007080Y011390D02*
X007080Y013970D01*
X004720Y013970D01*
X007510Y018320D02*
X007510Y019041D01*
X007270Y019041D02*
X007750Y019041D01*
X008007Y018921D02*
X008007Y018440D01*
X008127Y018320D01*
X008367Y018320D01*
X008487Y018440D01*
X008487Y018921D01*
X008367Y019041D01*
X008127Y019041D01*
X008007Y018921D01*
X009480Y018921D02*
X009480Y018800D01*
X009600Y018680D01*
X009840Y018680D01*
X009960Y018560D01*
X009960Y018440D01*
X009840Y018320D01*
X009600Y018320D01*
X009480Y018440D01*
X010217Y018320D02*
X010577Y018320D01*
X010697Y018440D01*
X010697Y018560D01*
X010577Y018680D01*
X010217Y018680D01*
X009960Y018921D02*
X009840Y019041D01*
X009600Y019041D01*
X009480Y018921D01*
X010217Y019041D02*
X010577Y019041D01*
X010697Y018921D01*
X010697Y018800D01*
X010577Y018680D01*
X010953Y018560D02*
X011313Y018560D01*
X011434Y018680D01*
X011434Y018921D01*
X011313Y019041D01*
X010953Y019041D01*
X010953Y018320D01*
X011193Y018560D02*
X011434Y018320D01*
X011690Y018320D02*
X011930Y018320D01*
X011810Y018320D02*
X011810Y019041D01*
X011690Y019041D02*
X011930Y019041D01*
X012181Y018921D02*
X012181Y018440D01*
X012301Y018320D01*
X012541Y018320D01*
X012661Y018440D01*
X012661Y018921D01*
X012541Y019041D01*
X012301Y019041D01*
X012181Y018921D01*
X010217Y019041D02*
X010217Y018320D01*
X006330Y024140D02*
X003970Y024140D01*
X006330Y024140D02*
X006330Y026720D01*
X003970Y026720D01*
X023130Y029390D02*
X023130Y031970D01*
X025490Y031970D01*
X025490Y029390D02*
X023130Y029390D01*
X032030Y023930D02*
X032430Y023930D01*
X032430Y019930D01*
X032030Y019930D01*
X032030Y023930D01*
X032430Y023930D02*
X033380Y023930D01*
X033414Y023929D01*
X033449Y023925D01*
X033482Y023917D01*
X033515Y023906D01*
X033546Y023891D01*
X033576Y023874D01*
X033604Y023853D01*
X033630Y023830D01*
X033653Y023804D01*
X033674Y023776D01*
X033691Y023746D01*
X033706Y023715D01*
X033717Y023682D01*
X033725Y023649D01*
X033729Y023614D01*
X033730Y023580D01*
X033730Y023430D01*
X033730Y020430D02*
X033730Y020280D01*
X033729Y020246D01*
X033725Y020211D01*
X033717Y020178D01*
X033706Y020145D01*
X033691Y020114D01*
X033674Y020084D01*
X033653Y020056D01*
X033630Y020030D01*
X033604Y020007D01*
X033576Y019986D01*
X033546Y019969D01*
X033515Y019954D01*
X033482Y019943D01*
X033449Y019935D01*
X033414Y019931D01*
X033380Y019930D01*
X032430Y019930D01*
X037530Y019930D02*
X037530Y023930D01*
X037930Y023930D01*
X037930Y019930D01*
X037530Y019930D01*
X037930Y019930D02*
X038880Y019930D01*
X038914Y019931D01*
X038949Y019935D01*
X038982Y019943D01*
X039015Y019954D01*
X039046Y019969D01*
X039076Y019986D01*
X039104Y020007D01*
X039130Y020030D01*
X039153Y020056D01*
X039174Y020084D01*
X039191Y020114D01*
X039206Y020145D01*
X039217Y020178D01*
X039225Y020211D01*
X039229Y020246D01*
X039230Y020280D01*
X039230Y020430D01*
X039230Y023430D02*
X039230Y023580D01*
X039229Y023614D01*
X039225Y023649D01*
X039217Y023682D01*
X039206Y023715D01*
X039191Y023746D01*
X039174Y023776D01*
X039153Y023804D01*
X039130Y023830D01*
X039104Y023853D01*
X039076Y023874D01*
X039046Y023891D01*
X039015Y023906D01*
X038982Y023917D01*
X038949Y023925D01*
X038914Y023929D01*
X038880Y023930D01*
X037930Y023930D01*
X037930Y012430D02*
X037530Y012430D01*
X037530Y008430D01*
X037930Y008430D01*
X037930Y012430D01*
X038880Y012430D01*
X038914Y012429D01*
X038949Y012425D01*
X038982Y012417D01*
X039015Y012406D01*
X039046Y012391D01*
X039076Y012374D01*
X039104Y012353D01*
X039130Y012330D01*
X039153Y012304D01*
X039174Y012276D01*
X039191Y012246D01*
X039206Y012215D01*
X039217Y012182D01*
X039225Y012149D01*
X039229Y012114D01*
X039230Y012080D01*
X039230Y011930D01*
X039230Y008930D02*
X039230Y008780D01*
X039229Y008746D01*
X039225Y008711D01*
X039217Y008678D01*
X039206Y008645D01*
X039191Y008614D01*
X039174Y008584D01*
X039153Y008556D01*
X039130Y008530D01*
X039104Y008507D01*
X039076Y008486D01*
X039046Y008469D01*
X039015Y008454D01*
X038982Y008443D01*
X038949Y008435D01*
X038914Y008431D01*
X038880Y008430D01*
X037930Y008430D01*
X033730Y008780D02*
X033730Y008930D01*
X033730Y008780D02*
X033729Y008746D01*
X033725Y008711D01*
X033717Y008678D01*
X033706Y008645D01*
X033691Y008614D01*
X033674Y008584D01*
X033653Y008556D01*
X033630Y008530D01*
X033604Y008507D01*
X033576Y008486D01*
X033546Y008469D01*
X033515Y008454D01*
X033482Y008443D01*
X033449Y008435D01*
X033414Y008431D01*
X033380Y008430D01*
X032430Y008430D01*
X032030Y008430D01*
X032030Y012430D01*
X032430Y012430D01*
X032430Y008430D01*
X033730Y011930D02*
X033730Y012080D01*
X033729Y012114D01*
X033725Y012149D01*
X033717Y012182D01*
X033706Y012215D01*
X033691Y012246D01*
X033674Y012276D01*
X033653Y012304D01*
X033630Y012330D01*
X033604Y012353D01*
X033576Y012374D01*
X033546Y012391D01*
X033515Y012406D01*
X033482Y012417D01*
X033449Y012425D01*
X033414Y012429D01*
X033380Y012430D01*
X032430Y012430D01*
X025490Y004720D02*
X023130Y004720D01*
X023130Y002140D01*
X025490Y002140D01*
X034650Y004180D02*
X034652Y004251D01*
X034658Y004322D01*
X034668Y004393D01*
X034682Y004462D01*
X034699Y004531D01*
X034721Y004599D01*
X034746Y004666D01*
X034775Y004731D01*
X034807Y004794D01*
X034843Y004856D01*
X034882Y004915D01*
X034925Y004972D01*
X034970Y005027D01*
X035019Y005079D01*
X035070Y005128D01*
X035124Y005174D01*
X035181Y005218D01*
X035239Y005258D01*
X035300Y005294D01*
X035363Y005328D01*
X035428Y005357D01*
X035494Y005383D01*
X035562Y005406D01*
X035630Y005424D01*
X035700Y005439D01*
X035770Y005450D01*
X035841Y005457D01*
X035912Y005460D01*
X035983Y005459D01*
X036054Y005454D01*
X036125Y005445D01*
X036195Y005432D01*
X036264Y005416D01*
X036332Y005395D01*
X036399Y005371D01*
X036465Y005343D01*
X036528Y005311D01*
X036590Y005276D01*
X036650Y005238D01*
X036708Y005196D01*
X036763Y005152D01*
X036816Y005104D01*
X036866Y005053D01*
X036913Y005000D01*
X036957Y004944D01*
X036998Y004886D01*
X037036Y004825D01*
X037070Y004763D01*
X037100Y004698D01*
X037127Y004633D01*
X037151Y004565D01*
X037170Y004497D01*
X037186Y004428D01*
X037198Y004357D01*
X037206Y004287D01*
X037210Y004216D01*
X037210Y004144D01*
X037206Y004073D01*
X037198Y004003D01*
X037186Y003932D01*
X037170Y003863D01*
X037151Y003795D01*
X037127Y003727D01*
X037100Y003662D01*
X037070Y003597D01*
X037036Y003535D01*
X036998Y003474D01*
X036957Y003416D01*
X036913Y003360D01*
X036866Y003307D01*
X036816Y003256D01*
X036763Y003208D01*
X036708Y003164D01*
X036650Y003122D01*
X036590Y003084D01*
X036528Y003049D01*
X036465Y003017D01*
X036399Y002989D01*
X036332Y002965D01*
X036264Y002944D01*
X036195Y002928D01*
X036125Y002915D01*
X036054Y002906D01*
X035983Y002901D01*
X035912Y002900D01*
X035841Y002903D01*
X035770Y002910D01*
X035700Y002921D01*
X035630Y002936D01*
X035562Y002954D01*
X035494Y002977D01*
X035428Y003003D01*
X035363Y003032D01*
X035300Y003066D01*
X035239Y003102D01*
X035181Y003142D01*
X035124Y003186D01*
X035070Y003232D01*
X035019Y003281D01*
X034970Y003333D01*
X034925Y003388D01*
X034882Y003445D01*
X034843Y003504D01*
X034807Y003566D01*
X034775Y003629D01*
X034746Y003694D01*
X034721Y003761D01*
X034699Y003829D01*
X034682Y003898D01*
X034668Y003967D01*
X034658Y004038D01*
X034652Y004109D01*
X034650Y004180D01*
X036180Y003680D02*
X036680Y003680D01*
D14*
X006730Y018680D02*
X004230Y018680D01*
X004980Y018180D01*
X004230Y018680D02*
X004980Y019180D01*
D15*
X010830Y015530D03*
X010830Y014830D03*
X012230Y015530D03*
X012130Y012680D03*
X016030Y003980D03*
X019180Y001730D03*
X019180Y001080D03*
X017630Y001080D03*
X033480Y007930D03*
X038980Y007930D03*
X038980Y019430D03*
X033480Y019430D03*
X030230Y020180D03*
X030230Y021180D03*
X024230Y021180D03*
X024230Y020180D03*
X019430Y027880D03*
X019430Y028480D03*
X018030Y027880D03*
X017830Y030680D03*
X014330Y025980D03*
X011130Y026680D03*
X010930Y023680D03*
X010930Y022980D03*
D16*
X012930Y025968D02*
X012930Y025992D01*
X012930Y026668D02*
X012930Y026692D01*
X018030Y029068D02*
X018030Y029092D01*
X019430Y029092D02*
X019430Y029068D01*
X024230Y026192D02*
X024230Y026168D01*
X024230Y024192D02*
X024230Y024168D01*
X027230Y027168D02*
X027230Y027192D01*
X030230Y025192D02*
X030230Y025168D01*
X030230Y024192D02*
X030230Y024168D01*
X035980Y029418D02*
X035980Y029442D01*
X023780Y011492D02*
X023780Y011468D01*
X026830Y010392D02*
X026830Y010368D01*
X027280Y005342D02*
X027280Y005318D01*
X017630Y002442D02*
X017630Y002418D01*
X017630Y001742D02*
X017630Y001718D01*
X012230Y014118D02*
X012230Y014142D01*
X012230Y014818D02*
X012230Y014842D01*
D17*
X013130Y015780D02*
X013130Y012980D01*
X014730Y012980D01*
X014730Y015780D01*
X013130Y015780D01*
X009880Y015730D02*
X009880Y014130D01*
X007080Y014130D01*
X007080Y015730D01*
X009880Y015730D01*
X006880Y015730D02*
X006880Y014130D01*
X004080Y014130D01*
X004080Y015730D01*
X006880Y015730D01*
X003555Y015805D02*
X003255Y016105D01*
X003180Y016105D01*
X003105Y016030D01*
X003105Y015880D01*
X003180Y015805D01*
X003555Y015805D02*
X003555Y016105D01*
X003480Y016265D02*
X003180Y016265D01*
X003105Y016340D01*
X003105Y016491D01*
X003180Y016566D01*
X003480Y016265D01*
X003555Y016340D01*
X003555Y016491D01*
X003480Y016566D01*
X003180Y016566D01*
X002705Y011005D02*
X002705Y010705D01*
X002705Y010855D02*
X002255Y010855D01*
X002405Y010705D01*
X001705Y010705D02*
X001405Y011005D01*
X001330Y011005D01*
X001255Y010930D01*
X001255Y010780D01*
X001330Y010705D01*
X001705Y010705D02*
X001705Y011005D01*
X003980Y010980D02*
X003980Y005980D01*
X012980Y005980D01*
X012980Y010980D01*
X003980Y010980D01*
X004480Y009980D02*
X004482Y010024D01*
X004488Y010068D01*
X004498Y010111D01*
X004511Y010153D01*
X004528Y010194D01*
X004549Y010233D01*
X004573Y010270D01*
X004600Y010305D01*
X004630Y010337D01*
X004663Y010367D01*
X004699Y010393D01*
X004736Y010417D01*
X004776Y010436D01*
X004817Y010453D01*
X004860Y010465D01*
X004903Y010474D01*
X004947Y010479D01*
X004991Y010480D01*
X005035Y010477D01*
X005079Y010470D01*
X005122Y010459D01*
X005164Y010445D01*
X005204Y010427D01*
X005243Y010405D01*
X005279Y010381D01*
X005313Y010353D01*
X005345Y010322D01*
X005374Y010288D01*
X005400Y010252D01*
X005422Y010214D01*
X005441Y010174D01*
X005456Y010132D01*
X005468Y010090D01*
X005476Y010046D01*
X005480Y010002D01*
X005480Y009958D01*
X005476Y009914D01*
X005468Y009870D01*
X005456Y009828D01*
X005441Y009786D01*
X005422Y009746D01*
X005400Y009708D01*
X005374Y009672D01*
X005345Y009638D01*
X005313Y009607D01*
X005279Y009579D01*
X005243Y009555D01*
X005204Y009533D01*
X005164Y009515D01*
X005122Y009501D01*
X005079Y009490D01*
X005035Y009483D01*
X004991Y009480D01*
X004947Y009481D01*
X004903Y009486D01*
X004860Y009495D01*
X004817Y009507D01*
X004776Y009524D01*
X004736Y009543D01*
X004699Y009567D01*
X004663Y009593D01*
X004630Y009623D01*
X004600Y009655D01*
X004573Y009690D01*
X004549Y009727D01*
X004528Y009766D01*
X004511Y009807D01*
X004498Y009849D01*
X004488Y009892D01*
X004482Y009936D01*
X004480Y009980D01*
X004480Y006980D02*
X004482Y007024D01*
X004488Y007068D01*
X004498Y007111D01*
X004511Y007153D01*
X004528Y007194D01*
X004549Y007233D01*
X004573Y007270D01*
X004600Y007305D01*
X004630Y007337D01*
X004663Y007367D01*
X004699Y007393D01*
X004736Y007417D01*
X004776Y007436D01*
X004817Y007453D01*
X004860Y007465D01*
X004903Y007474D01*
X004947Y007479D01*
X004991Y007480D01*
X005035Y007477D01*
X005079Y007470D01*
X005122Y007459D01*
X005164Y007445D01*
X005204Y007427D01*
X005243Y007405D01*
X005279Y007381D01*
X005313Y007353D01*
X005345Y007322D01*
X005374Y007288D01*
X005400Y007252D01*
X005422Y007214D01*
X005441Y007174D01*
X005456Y007132D01*
X005468Y007090D01*
X005476Y007046D01*
X005480Y007002D01*
X005480Y006958D01*
X005476Y006914D01*
X005468Y006870D01*
X005456Y006828D01*
X005441Y006786D01*
X005422Y006746D01*
X005400Y006708D01*
X005374Y006672D01*
X005345Y006638D01*
X005313Y006607D01*
X005279Y006579D01*
X005243Y006555D01*
X005204Y006533D01*
X005164Y006515D01*
X005122Y006501D01*
X005079Y006490D01*
X005035Y006483D01*
X004991Y006480D01*
X004947Y006481D01*
X004903Y006486D01*
X004860Y006495D01*
X004817Y006507D01*
X004776Y006524D01*
X004736Y006543D01*
X004699Y006567D01*
X004663Y006593D01*
X004630Y006623D01*
X004600Y006655D01*
X004573Y006690D01*
X004549Y006727D01*
X004528Y006766D01*
X004511Y006807D01*
X004498Y006849D01*
X004488Y006892D01*
X004482Y006936D01*
X004480Y006980D01*
X011480Y006980D02*
X011482Y007024D01*
X011488Y007068D01*
X011498Y007111D01*
X011511Y007153D01*
X011528Y007194D01*
X011549Y007233D01*
X011573Y007270D01*
X011600Y007305D01*
X011630Y007337D01*
X011663Y007367D01*
X011699Y007393D01*
X011736Y007417D01*
X011776Y007436D01*
X011817Y007453D01*
X011860Y007465D01*
X011903Y007474D01*
X011947Y007479D01*
X011991Y007480D01*
X012035Y007477D01*
X012079Y007470D01*
X012122Y007459D01*
X012164Y007445D01*
X012204Y007427D01*
X012243Y007405D01*
X012279Y007381D01*
X012313Y007353D01*
X012345Y007322D01*
X012374Y007288D01*
X012400Y007252D01*
X012422Y007214D01*
X012441Y007174D01*
X012456Y007132D01*
X012468Y007090D01*
X012476Y007046D01*
X012480Y007002D01*
X012480Y006958D01*
X012476Y006914D01*
X012468Y006870D01*
X012456Y006828D01*
X012441Y006786D01*
X012422Y006746D01*
X012400Y006708D01*
X012374Y006672D01*
X012345Y006638D01*
X012313Y006607D01*
X012279Y006579D01*
X012243Y006555D01*
X012204Y006533D01*
X012164Y006515D01*
X012122Y006501D01*
X012079Y006490D01*
X012035Y006483D01*
X011991Y006480D01*
X011947Y006481D01*
X011903Y006486D01*
X011860Y006495D01*
X011817Y006507D01*
X011776Y006524D01*
X011736Y006543D01*
X011699Y006567D01*
X011663Y006593D01*
X011630Y006623D01*
X011600Y006655D01*
X011573Y006690D01*
X011549Y006727D01*
X011528Y006766D01*
X011511Y006807D01*
X011498Y006849D01*
X011488Y006892D01*
X011482Y006936D01*
X011480Y006980D01*
X011480Y009980D02*
X011482Y010024D01*
X011488Y010068D01*
X011498Y010111D01*
X011511Y010153D01*
X011528Y010194D01*
X011549Y010233D01*
X011573Y010270D01*
X011600Y010305D01*
X011630Y010337D01*
X011663Y010367D01*
X011699Y010393D01*
X011736Y010417D01*
X011776Y010436D01*
X011817Y010453D01*
X011860Y010465D01*
X011903Y010474D01*
X011947Y010479D01*
X011991Y010480D01*
X012035Y010477D01*
X012079Y010470D01*
X012122Y010459D01*
X012164Y010445D01*
X012204Y010427D01*
X012243Y010405D01*
X012279Y010381D01*
X012313Y010353D01*
X012345Y010322D01*
X012374Y010288D01*
X012400Y010252D01*
X012422Y010214D01*
X012441Y010174D01*
X012456Y010132D01*
X012468Y010090D01*
X012476Y010046D01*
X012480Y010002D01*
X012480Y009958D01*
X012476Y009914D01*
X012468Y009870D01*
X012456Y009828D01*
X012441Y009786D01*
X012422Y009746D01*
X012400Y009708D01*
X012374Y009672D01*
X012345Y009638D01*
X012313Y009607D01*
X012279Y009579D01*
X012243Y009555D01*
X012204Y009533D01*
X012164Y009515D01*
X012122Y009501D01*
X012079Y009490D01*
X012035Y009483D01*
X011991Y009480D01*
X011947Y009481D01*
X011903Y009486D01*
X011860Y009495D01*
X011817Y009507D01*
X011776Y009524D01*
X011736Y009543D01*
X011699Y009567D01*
X011663Y009593D01*
X011630Y009623D01*
X011600Y009655D01*
X011573Y009690D01*
X011549Y009727D01*
X011528Y009766D01*
X011511Y009807D01*
X011498Y009849D01*
X011488Y009892D01*
X011482Y009936D01*
X011480Y009980D01*
X015330Y009830D02*
X015330Y004830D01*
X024330Y004830D01*
X024330Y009830D01*
X015330Y009830D01*
X015830Y008830D02*
X015832Y008874D01*
X015838Y008918D01*
X015848Y008961D01*
X015861Y009003D01*
X015878Y009044D01*
X015899Y009083D01*
X015923Y009120D01*
X015950Y009155D01*
X015980Y009187D01*
X016013Y009217D01*
X016049Y009243D01*
X016086Y009267D01*
X016126Y009286D01*
X016167Y009303D01*
X016210Y009315D01*
X016253Y009324D01*
X016297Y009329D01*
X016341Y009330D01*
X016385Y009327D01*
X016429Y009320D01*
X016472Y009309D01*
X016514Y009295D01*
X016554Y009277D01*
X016593Y009255D01*
X016629Y009231D01*
X016663Y009203D01*
X016695Y009172D01*
X016724Y009138D01*
X016750Y009102D01*
X016772Y009064D01*
X016791Y009024D01*
X016806Y008982D01*
X016818Y008940D01*
X016826Y008896D01*
X016830Y008852D01*
X016830Y008808D01*
X016826Y008764D01*
X016818Y008720D01*
X016806Y008678D01*
X016791Y008636D01*
X016772Y008596D01*
X016750Y008558D01*
X016724Y008522D01*
X016695Y008488D01*
X016663Y008457D01*
X016629Y008429D01*
X016593Y008405D01*
X016554Y008383D01*
X016514Y008365D01*
X016472Y008351D01*
X016429Y008340D01*
X016385Y008333D01*
X016341Y008330D01*
X016297Y008331D01*
X016253Y008336D01*
X016210Y008345D01*
X016167Y008357D01*
X016126Y008374D01*
X016086Y008393D01*
X016049Y008417D01*
X016013Y008443D01*
X015980Y008473D01*
X015950Y008505D01*
X015923Y008540D01*
X015899Y008577D01*
X015878Y008616D01*
X015861Y008657D01*
X015848Y008699D01*
X015838Y008742D01*
X015832Y008786D01*
X015830Y008830D01*
X015830Y005830D02*
X015832Y005874D01*
X015838Y005918D01*
X015848Y005961D01*
X015861Y006003D01*
X015878Y006044D01*
X015899Y006083D01*
X015923Y006120D01*
X015950Y006155D01*
X015980Y006187D01*
X016013Y006217D01*
X016049Y006243D01*
X016086Y006267D01*
X016126Y006286D01*
X016167Y006303D01*
X016210Y006315D01*
X016253Y006324D01*
X016297Y006329D01*
X016341Y006330D01*
X016385Y006327D01*
X016429Y006320D01*
X016472Y006309D01*
X016514Y006295D01*
X016554Y006277D01*
X016593Y006255D01*
X016629Y006231D01*
X016663Y006203D01*
X016695Y006172D01*
X016724Y006138D01*
X016750Y006102D01*
X016772Y006064D01*
X016791Y006024D01*
X016806Y005982D01*
X016818Y005940D01*
X016826Y005896D01*
X016830Y005852D01*
X016830Y005808D01*
X016826Y005764D01*
X016818Y005720D01*
X016806Y005678D01*
X016791Y005636D01*
X016772Y005596D01*
X016750Y005558D01*
X016724Y005522D01*
X016695Y005488D01*
X016663Y005457D01*
X016629Y005429D01*
X016593Y005405D01*
X016554Y005383D01*
X016514Y005365D01*
X016472Y005351D01*
X016429Y005340D01*
X016385Y005333D01*
X016341Y005330D01*
X016297Y005331D01*
X016253Y005336D01*
X016210Y005345D01*
X016167Y005357D01*
X016126Y005374D01*
X016086Y005393D01*
X016049Y005417D01*
X016013Y005443D01*
X015980Y005473D01*
X015950Y005505D01*
X015923Y005540D01*
X015899Y005577D01*
X015878Y005616D01*
X015861Y005657D01*
X015848Y005699D01*
X015838Y005742D01*
X015832Y005786D01*
X015830Y005830D01*
X015330Y003280D02*
X016930Y003280D01*
X016930Y000480D01*
X015330Y000480D01*
X015330Y003280D01*
X020330Y001980D02*
X020330Y000380D01*
X023130Y000380D01*
X023130Y001980D01*
X020330Y001980D01*
X023330Y001980D02*
X023330Y000380D01*
X026130Y000380D01*
X026130Y001980D01*
X023330Y001980D01*
X026480Y001430D02*
X026480Y000930D01*
X028680Y000930D01*
X028680Y003930D01*
X026480Y003930D01*
X026480Y003430D01*
X026980Y003430D01*
X026980Y001430D01*
X026480Y001430D01*
X026480Y003430D01*
X022830Y005830D02*
X022832Y005874D01*
X022838Y005918D01*
X022848Y005961D01*
X022861Y006003D01*
X022878Y006044D01*
X022899Y006083D01*
X022923Y006120D01*
X022950Y006155D01*
X022980Y006187D01*
X023013Y006217D01*
X023049Y006243D01*
X023086Y006267D01*
X023126Y006286D01*
X023167Y006303D01*
X023210Y006315D01*
X023253Y006324D01*
X023297Y006329D01*
X023341Y006330D01*
X023385Y006327D01*
X023429Y006320D01*
X023472Y006309D01*
X023514Y006295D01*
X023554Y006277D01*
X023593Y006255D01*
X023629Y006231D01*
X023663Y006203D01*
X023695Y006172D01*
X023724Y006138D01*
X023750Y006102D01*
X023772Y006064D01*
X023791Y006024D01*
X023806Y005982D01*
X023818Y005940D01*
X023826Y005896D01*
X023830Y005852D01*
X023830Y005808D01*
X023826Y005764D01*
X023818Y005720D01*
X023806Y005678D01*
X023791Y005636D01*
X023772Y005596D01*
X023750Y005558D01*
X023724Y005522D01*
X023695Y005488D01*
X023663Y005457D01*
X023629Y005429D01*
X023593Y005405D01*
X023554Y005383D01*
X023514Y005365D01*
X023472Y005351D01*
X023429Y005340D01*
X023385Y005333D01*
X023341Y005330D01*
X023297Y005331D01*
X023253Y005336D01*
X023210Y005345D01*
X023167Y005357D01*
X023126Y005374D01*
X023086Y005393D01*
X023049Y005417D01*
X023013Y005443D01*
X022980Y005473D01*
X022950Y005505D01*
X022923Y005540D01*
X022899Y005577D01*
X022878Y005616D01*
X022861Y005657D01*
X022848Y005699D01*
X022838Y005742D01*
X022832Y005786D01*
X022830Y005830D01*
X022830Y008830D02*
X022832Y008874D01*
X022838Y008918D01*
X022848Y008961D01*
X022861Y009003D01*
X022878Y009044D01*
X022899Y009083D01*
X022923Y009120D01*
X022950Y009155D01*
X022980Y009187D01*
X023013Y009217D01*
X023049Y009243D01*
X023086Y009267D01*
X023126Y009286D01*
X023167Y009303D01*
X023210Y009315D01*
X023253Y009324D01*
X023297Y009329D01*
X023341Y009330D01*
X023385Y009327D01*
X023429Y009320D01*
X023472Y009309D01*
X023514Y009295D01*
X023554Y009277D01*
X023593Y009255D01*
X023629Y009231D01*
X023663Y009203D01*
X023695Y009172D01*
X023724Y009138D01*
X023750Y009102D01*
X023772Y009064D01*
X023791Y009024D01*
X023806Y008982D01*
X023818Y008940D01*
X023826Y008896D01*
X023830Y008852D01*
X023830Y008808D01*
X023826Y008764D01*
X023818Y008720D01*
X023806Y008678D01*
X023791Y008636D01*
X023772Y008596D01*
X023750Y008558D01*
X023724Y008522D01*
X023695Y008488D01*
X023663Y008457D01*
X023629Y008429D01*
X023593Y008405D01*
X023554Y008383D01*
X023514Y008365D01*
X023472Y008351D01*
X023429Y008340D01*
X023385Y008333D01*
X023341Y008330D01*
X023297Y008331D01*
X023253Y008336D01*
X023210Y008345D01*
X023167Y008357D01*
X023126Y008374D01*
X023086Y008393D01*
X023049Y008417D01*
X023013Y008443D01*
X022980Y008473D01*
X022950Y008505D01*
X022923Y008540D01*
X022899Y008577D01*
X022878Y008616D01*
X022861Y008657D01*
X022848Y008699D01*
X022838Y008742D01*
X022832Y008786D01*
X022830Y008830D01*
X025224Y010013D02*
X025736Y010013D01*
X025736Y010044D01*
X025224Y010052D02*
X025224Y010013D01*
X025224Y010796D02*
X025224Y010879D01*
X025736Y010879D01*
X025736Y010796D01*
X025605Y012505D02*
X025547Y012505D01*
X025313Y012739D01*
X025255Y012739D01*
X025255Y012505D01*
X025430Y012873D02*
X025430Y013107D01*
X025430Y013242D02*
X025430Y013475D01*
X025255Y013475D02*
X025605Y013475D01*
X025547Y013610D02*
X025313Y013610D01*
X025255Y013668D01*
X025255Y013785D01*
X025313Y013843D01*
X025371Y013978D02*
X025255Y014095D01*
X025605Y014095D01*
X025605Y013978D02*
X025605Y014212D01*
X025547Y014347D02*
X025605Y014405D01*
X025605Y014522D01*
X025547Y014580D01*
X025430Y014580D01*
X025371Y014522D01*
X025371Y014463D01*
X025430Y014347D01*
X025255Y014347D01*
X025255Y014580D01*
X025313Y014715D02*
X025255Y014773D01*
X025255Y014890D01*
X025313Y014948D01*
X025371Y014948D01*
X025430Y014890D01*
X025488Y014948D01*
X025547Y014948D01*
X025605Y014890D01*
X025605Y014773D01*
X025547Y014715D01*
X025430Y014832D02*
X025430Y014890D01*
X025255Y015083D02*
X025605Y015083D01*
X025605Y015258D01*
X025547Y015317D01*
X025313Y015317D01*
X025255Y015258D01*
X025255Y015083D01*
X025547Y013843D02*
X025605Y013785D01*
X025605Y013668D01*
X025547Y013610D01*
X025605Y013242D02*
X025255Y013242D01*
X025255Y013048D02*
X025430Y012873D01*
X025605Y013048D02*
X025255Y013048D01*
X028813Y009117D02*
X028755Y009058D01*
X028755Y008883D01*
X029105Y008883D01*
X029105Y009058D01*
X029047Y009117D01*
X028813Y009117D01*
X028813Y008748D02*
X028871Y008748D01*
X028930Y008690D01*
X028988Y008748D01*
X029047Y008748D01*
X029105Y008690D01*
X029105Y008573D01*
X029047Y008515D01*
X029047Y008380D02*
X029105Y008322D01*
X029105Y008205D01*
X029047Y008147D01*
X028930Y008147D02*
X028871Y008263D01*
X028871Y008322D01*
X028930Y008380D01*
X029047Y008380D01*
X028930Y008147D02*
X028755Y008147D01*
X028755Y008380D01*
X028813Y008515D02*
X028755Y008573D01*
X028755Y008690D01*
X028813Y008748D01*
X028930Y008690D02*
X028930Y008632D01*
X029105Y008012D02*
X029105Y007778D01*
X029105Y007895D02*
X028755Y007895D01*
X028871Y007778D01*
X028813Y007643D02*
X028755Y007585D01*
X028755Y007468D01*
X028813Y007410D01*
X029047Y007410D01*
X029105Y007468D01*
X029105Y007585D01*
X029047Y007643D01*
X029105Y007275D02*
X028755Y007275D01*
X028930Y007275D02*
X028930Y007042D01*
X028930Y006907D02*
X028930Y006673D01*
X028755Y006848D01*
X029105Y006848D01*
X029105Y007042D02*
X028755Y007042D01*
X028755Y006539D02*
X028813Y006539D01*
X029047Y006305D01*
X029105Y006305D01*
X028755Y006305D02*
X028755Y006539D01*
X022180Y018480D02*
X017180Y018480D01*
X017180Y027480D01*
X022180Y027480D01*
X022180Y018480D01*
X020680Y019480D02*
X020682Y019524D01*
X020688Y019568D01*
X020698Y019611D01*
X020711Y019653D01*
X020728Y019694D01*
X020749Y019733D01*
X020773Y019770D01*
X020800Y019805D01*
X020830Y019837D01*
X020863Y019867D01*
X020899Y019893D01*
X020936Y019917D01*
X020976Y019936D01*
X021017Y019953D01*
X021060Y019965D01*
X021103Y019974D01*
X021147Y019979D01*
X021191Y019980D01*
X021235Y019977D01*
X021279Y019970D01*
X021322Y019959D01*
X021364Y019945D01*
X021404Y019927D01*
X021443Y019905D01*
X021479Y019881D01*
X021513Y019853D01*
X021545Y019822D01*
X021574Y019788D01*
X021600Y019752D01*
X021622Y019714D01*
X021641Y019674D01*
X021656Y019632D01*
X021668Y019590D01*
X021676Y019546D01*
X021680Y019502D01*
X021680Y019458D01*
X021676Y019414D01*
X021668Y019370D01*
X021656Y019328D01*
X021641Y019286D01*
X021622Y019246D01*
X021600Y019208D01*
X021574Y019172D01*
X021545Y019138D01*
X021513Y019107D01*
X021479Y019079D01*
X021443Y019055D01*
X021404Y019033D01*
X021364Y019015D01*
X021322Y019001D01*
X021279Y018990D01*
X021235Y018983D01*
X021191Y018980D01*
X021147Y018981D01*
X021103Y018986D01*
X021060Y018995D01*
X021017Y019007D01*
X020976Y019024D01*
X020936Y019043D01*
X020899Y019067D01*
X020863Y019093D01*
X020830Y019123D01*
X020800Y019155D01*
X020773Y019190D01*
X020749Y019227D01*
X020728Y019266D01*
X020711Y019307D01*
X020698Y019349D01*
X020688Y019392D01*
X020682Y019436D01*
X020680Y019480D01*
X017680Y019480D02*
X017682Y019524D01*
X017688Y019568D01*
X017698Y019611D01*
X017711Y019653D01*
X017728Y019694D01*
X017749Y019733D01*
X017773Y019770D01*
X017800Y019805D01*
X017830Y019837D01*
X017863Y019867D01*
X017899Y019893D01*
X017936Y019917D01*
X017976Y019936D01*
X018017Y019953D01*
X018060Y019965D01*
X018103Y019974D01*
X018147Y019979D01*
X018191Y019980D01*
X018235Y019977D01*
X018279Y019970D01*
X018322Y019959D01*
X018364Y019945D01*
X018404Y019927D01*
X018443Y019905D01*
X018479Y019881D01*
X018513Y019853D01*
X018545Y019822D01*
X018574Y019788D01*
X018600Y019752D01*
X018622Y019714D01*
X018641Y019674D01*
X018656Y019632D01*
X018668Y019590D01*
X018676Y019546D01*
X018680Y019502D01*
X018680Y019458D01*
X018676Y019414D01*
X018668Y019370D01*
X018656Y019328D01*
X018641Y019286D01*
X018622Y019246D01*
X018600Y019208D01*
X018574Y019172D01*
X018545Y019138D01*
X018513Y019107D01*
X018479Y019079D01*
X018443Y019055D01*
X018404Y019033D01*
X018364Y019015D01*
X018322Y019001D01*
X018279Y018990D01*
X018235Y018983D01*
X018191Y018980D01*
X018147Y018981D01*
X018103Y018986D01*
X018060Y018995D01*
X018017Y019007D01*
X017976Y019024D01*
X017936Y019043D01*
X017899Y019067D01*
X017863Y019093D01*
X017830Y019123D01*
X017800Y019155D01*
X017773Y019190D01*
X017749Y019227D01*
X017728Y019266D01*
X017711Y019307D01*
X017698Y019349D01*
X017688Y019392D01*
X017682Y019436D01*
X017680Y019480D01*
X014530Y022380D02*
X014530Y025180D01*
X012930Y025180D01*
X012930Y022380D01*
X014530Y022380D01*
X011230Y025113D02*
X011172Y025055D01*
X011055Y025055D01*
X010997Y025113D01*
X011230Y025347D01*
X011230Y025113D01*
X010997Y025113D02*
X010997Y025347D01*
X011055Y025405D01*
X011172Y025405D01*
X011230Y025347D01*
X010862Y025347D02*
X010628Y025113D01*
X010628Y025055D01*
X010493Y025113D02*
X010435Y025055D01*
X010318Y025055D01*
X010260Y025113D01*
X010125Y025055D02*
X009892Y025055D01*
X010008Y025055D02*
X010008Y025405D01*
X009892Y025289D01*
X009757Y025405D02*
X009523Y025405D01*
X009640Y025405D02*
X009640Y025055D01*
X009389Y025055D02*
X009155Y025055D01*
X009155Y025405D01*
X010260Y025347D02*
X010318Y025405D01*
X010435Y025405D01*
X010493Y025347D01*
X010493Y025289D01*
X010435Y025230D01*
X010493Y025172D01*
X010493Y025113D01*
X010435Y025230D02*
X010377Y025230D01*
X010628Y025405D02*
X010862Y025405D01*
X010862Y025347D01*
X009130Y023980D02*
X006330Y023980D01*
X006330Y022380D01*
X009130Y022380D01*
X009130Y023980D01*
X006130Y023980D02*
X006130Y022380D01*
X003330Y022380D01*
X003330Y023980D01*
X006130Y023980D01*
X003230Y027030D02*
X003230Y032030D01*
X012230Y032030D01*
X012230Y027030D01*
X003230Y027030D01*
X003730Y028030D02*
X003732Y028074D01*
X003738Y028118D01*
X003748Y028161D01*
X003761Y028203D01*
X003778Y028244D01*
X003799Y028283D01*
X003823Y028320D01*
X003850Y028355D01*
X003880Y028387D01*
X003913Y028417D01*
X003949Y028443D01*
X003986Y028467D01*
X004026Y028486D01*
X004067Y028503D01*
X004110Y028515D01*
X004153Y028524D01*
X004197Y028529D01*
X004241Y028530D01*
X004285Y028527D01*
X004329Y028520D01*
X004372Y028509D01*
X004414Y028495D01*
X004454Y028477D01*
X004493Y028455D01*
X004529Y028431D01*
X004563Y028403D01*
X004595Y028372D01*
X004624Y028338D01*
X004650Y028302D01*
X004672Y028264D01*
X004691Y028224D01*
X004706Y028182D01*
X004718Y028140D01*
X004726Y028096D01*
X004730Y028052D01*
X004730Y028008D01*
X004726Y027964D01*
X004718Y027920D01*
X004706Y027878D01*
X004691Y027836D01*
X004672Y027796D01*
X004650Y027758D01*
X004624Y027722D01*
X004595Y027688D01*
X004563Y027657D01*
X004529Y027629D01*
X004493Y027605D01*
X004454Y027583D01*
X004414Y027565D01*
X004372Y027551D01*
X004329Y027540D01*
X004285Y027533D01*
X004241Y027530D01*
X004197Y027531D01*
X004153Y027536D01*
X004110Y027545D01*
X004067Y027557D01*
X004026Y027574D01*
X003986Y027593D01*
X003949Y027617D01*
X003913Y027643D01*
X003880Y027673D01*
X003850Y027705D01*
X003823Y027740D01*
X003799Y027777D01*
X003778Y027816D01*
X003761Y027857D01*
X003748Y027899D01*
X003738Y027942D01*
X003732Y027986D01*
X003730Y028030D01*
X003730Y031030D02*
X003732Y031074D01*
X003738Y031118D01*
X003748Y031161D01*
X003761Y031203D01*
X003778Y031244D01*
X003799Y031283D01*
X003823Y031320D01*
X003850Y031355D01*
X003880Y031387D01*
X003913Y031417D01*
X003949Y031443D01*
X003986Y031467D01*
X004026Y031486D01*
X004067Y031503D01*
X004110Y031515D01*
X004153Y031524D01*
X004197Y031529D01*
X004241Y031530D01*
X004285Y031527D01*
X004329Y031520D01*
X004372Y031509D01*
X004414Y031495D01*
X004454Y031477D01*
X004493Y031455D01*
X004529Y031431D01*
X004563Y031403D01*
X004595Y031372D01*
X004624Y031338D01*
X004650Y031302D01*
X004672Y031264D01*
X004691Y031224D01*
X004706Y031182D01*
X004718Y031140D01*
X004726Y031096D01*
X004730Y031052D01*
X004730Y031008D01*
X004726Y030964D01*
X004718Y030920D01*
X004706Y030878D01*
X004691Y030836D01*
X004672Y030796D01*
X004650Y030758D01*
X004624Y030722D01*
X004595Y030688D01*
X004563Y030657D01*
X004529Y030629D01*
X004493Y030605D01*
X004454Y030583D01*
X004414Y030565D01*
X004372Y030551D01*
X004329Y030540D01*
X004285Y030533D01*
X004241Y030530D01*
X004197Y030531D01*
X004153Y030536D01*
X004110Y030545D01*
X004067Y030557D01*
X004026Y030574D01*
X003986Y030593D01*
X003949Y030617D01*
X003913Y030643D01*
X003880Y030673D01*
X003850Y030705D01*
X003823Y030740D01*
X003799Y030777D01*
X003778Y030816D01*
X003761Y030857D01*
X003748Y030899D01*
X003738Y030942D01*
X003732Y030986D01*
X003730Y031030D01*
X010730Y031030D02*
X010732Y031074D01*
X010738Y031118D01*
X010748Y031161D01*
X010761Y031203D01*
X010778Y031244D01*
X010799Y031283D01*
X010823Y031320D01*
X010850Y031355D01*
X010880Y031387D01*
X010913Y031417D01*
X010949Y031443D01*
X010986Y031467D01*
X011026Y031486D01*
X011067Y031503D01*
X011110Y031515D01*
X011153Y031524D01*
X011197Y031529D01*
X011241Y031530D01*
X011285Y031527D01*
X011329Y031520D01*
X011372Y031509D01*
X011414Y031495D01*
X011454Y031477D01*
X011493Y031455D01*
X011529Y031431D01*
X011563Y031403D01*
X011595Y031372D01*
X011624Y031338D01*
X011650Y031302D01*
X011672Y031264D01*
X011691Y031224D01*
X011706Y031182D01*
X011718Y031140D01*
X011726Y031096D01*
X011730Y031052D01*
X011730Y031008D01*
X011726Y030964D01*
X011718Y030920D01*
X011706Y030878D01*
X011691Y030836D01*
X011672Y030796D01*
X011650Y030758D01*
X011624Y030722D01*
X011595Y030688D01*
X011563Y030657D01*
X011529Y030629D01*
X011493Y030605D01*
X011454Y030583D01*
X011414Y030565D01*
X011372Y030551D01*
X011329Y030540D01*
X011285Y030533D01*
X011241Y030530D01*
X011197Y030531D01*
X011153Y030536D01*
X011110Y030545D01*
X011067Y030557D01*
X011026Y030574D01*
X010986Y030593D01*
X010949Y030617D01*
X010913Y030643D01*
X010880Y030673D01*
X010850Y030705D01*
X010823Y030740D01*
X010799Y030777D01*
X010778Y030816D01*
X010761Y030857D01*
X010748Y030899D01*
X010738Y030942D01*
X010732Y030986D01*
X010730Y031030D01*
X010730Y028030D02*
X010732Y028074D01*
X010738Y028118D01*
X010748Y028161D01*
X010761Y028203D01*
X010778Y028244D01*
X010799Y028283D01*
X010823Y028320D01*
X010850Y028355D01*
X010880Y028387D01*
X010913Y028417D01*
X010949Y028443D01*
X010986Y028467D01*
X011026Y028486D01*
X011067Y028503D01*
X011110Y028515D01*
X011153Y028524D01*
X011197Y028529D01*
X011241Y028530D01*
X011285Y028527D01*
X011329Y028520D01*
X011372Y028509D01*
X011414Y028495D01*
X011454Y028477D01*
X011493Y028455D01*
X011529Y028431D01*
X011563Y028403D01*
X011595Y028372D01*
X011624Y028338D01*
X011650Y028302D01*
X011672Y028264D01*
X011691Y028224D01*
X011706Y028182D01*
X011718Y028140D01*
X011726Y028096D01*
X011730Y028052D01*
X011730Y028008D01*
X011726Y027964D01*
X011718Y027920D01*
X011706Y027878D01*
X011691Y027836D01*
X011672Y027796D01*
X011650Y027758D01*
X011624Y027722D01*
X011595Y027688D01*
X011563Y027657D01*
X011529Y027629D01*
X011493Y027605D01*
X011454Y027583D01*
X011414Y027565D01*
X011372Y027551D01*
X011329Y027540D01*
X011285Y027533D01*
X011241Y027530D01*
X011197Y027531D01*
X011153Y027536D01*
X011110Y027545D01*
X011067Y027557D01*
X011026Y027574D01*
X010986Y027593D01*
X010949Y027617D01*
X010913Y027643D01*
X010880Y027673D01*
X010850Y027705D01*
X010823Y027740D01*
X010799Y027777D01*
X010778Y027816D01*
X010761Y027857D01*
X010748Y027899D01*
X010738Y027942D01*
X010732Y027986D01*
X010730Y028030D01*
X015430Y029030D02*
X015430Y031830D01*
X017030Y031830D01*
X017030Y029030D01*
X015430Y029030D01*
X018755Y030505D02*
X018989Y030505D01*
X018755Y030505D02*
X018755Y030855D01*
X019123Y030855D02*
X019357Y030855D01*
X019240Y030855D02*
X019240Y030505D01*
X019492Y030505D02*
X019725Y030505D01*
X019608Y030505D02*
X019608Y030855D01*
X019492Y030739D01*
X019860Y030797D02*
X019918Y030855D01*
X020035Y030855D01*
X020093Y030797D01*
X020093Y030739D01*
X020035Y030680D01*
X020093Y030622D01*
X020093Y030563D01*
X020035Y030505D01*
X019918Y030505D01*
X019860Y030563D01*
X019977Y030680D02*
X020035Y030680D01*
X020228Y030563D02*
X020462Y030797D01*
X020462Y030855D01*
X020228Y030855D01*
X020228Y030563D02*
X020228Y030505D01*
X020597Y030563D02*
X020830Y030797D01*
X020830Y030563D01*
X020772Y030505D01*
X020655Y030505D01*
X020597Y030563D01*
X020597Y030797D01*
X020655Y030855D01*
X020772Y030855D01*
X020830Y030797D01*
X020330Y029230D02*
X023130Y029230D01*
X023130Y027630D01*
X020330Y027630D01*
X020330Y029230D01*
X023430Y029230D02*
X023430Y027630D01*
X026230Y027630D01*
X026230Y029230D01*
X023430Y029230D01*
X026480Y028930D02*
X026480Y028430D01*
X028680Y028430D01*
X028680Y031430D01*
X026480Y031430D01*
X026480Y030930D01*
X026980Y030930D01*
X026980Y028930D01*
X026480Y028930D01*
X026480Y030930D01*
X020680Y026480D02*
X020682Y026524D01*
X020688Y026568D01*
X020698Y026611D01*
X020711Y026653D01*
X020728Y026694D01*
X020749Y026733D01*
X020773Y026770D01*
X020800Y026805D01*
X020830Y026837D01*
X020863Y026867D01*
X020899Y026893D01*
X020936Y026917D01*
X020976Y026936D01*
X021017Y026953D01*
X021060Y026965D01*
X021103Y026974D01*
X021147Y026979D01*
X021191Y026980D01*
X021235Y026977D01*
X021279Y026970D01*
X021322Y026959D01*
X021364Y026945D01*
X021404Y026927D01*
X021443Y026905D01*
X021479Y026881D01*
X021513Y026853D01*
X021545Y026822D01*
X021574Y026788D01*
X021600Y026752D01*
X021622Y026714D01*
X021641Y026674D01*
X021656Y026632D01*
X021668Y026590D01*
X021676Y026546D01*
X021680Y026502D01*
X021680Y026458D01*
X021676Y026414D01*
X021668Y026370D01*
X021656Y026328D01*
X021641Y026286D01*
X021622Y026246D01*
X021600Y026208D01*
X021574Y026172D01*
X021545Y026138D01*
X021513Y026107D01*
X021479Y026079D01*
X021443Y026055D01*
X021404Y026033D01*
X021364Y026015D01*
X021322Y026001D01*
X021279Y025990D01*
X021235Y025983D01*
X021191Y025980D01*
X021147Y025981D01*
X021103Y025986D01*
X021060Y025995D01*
X021017Y026007D01*
X020976Y026024D01*
X020936Y026043D01*
X020899Y026067D01*
X020863Y026093D01*
X020830Y026123D01*
X020800Y026155D01*
X020773Y026190D01*
X020749Y026227D01*
X020728Y026266D01*
X020711Y026307D01*
X020698Y026349D01*
X020688Y026392D01*
X020682Y026436D01*
X020680Y026480D01*
X017680Y026480D02*
X017682Y026524D01*
X017688Y026568D01*
X017698Y026611D01*
X017711Y026653D01*
X017728Y026694D01*
X017749Y026733D01*
X017773Y026770D01*
X017800Y026805D01*
X017830Y026837D01*
X017863Y026867D01*
X017899Y026893D01*
X017936Y026917D01*
X017976Y026936D01*
X018017Y026953D01*
X018060Y026965D01*
X018103Y026974D01*
X018147Y026979D01*
X018191Y026980D01*
X018235Y026977D01*
X018279Y026970D01*
X018322Y026959D01*
X018364Y026945D01*
X018404Y026927D01*
X018443Y026905D01*
X018479Y026881D01*
X018513Y026853D01*
X018545Y026822D01*
X018574Y026788D01*
X018600Y026752D01*
X018622Y026714D01*
X018641Y026674D01*
X018656Y026632D01*
X018668Y026590D01*
X018676Y026546D01*
X018680Y026502D01*
X018680Y026458D01*
X018676Y026414D01*
X018668Y026370D01*
X018656Y026328D01*
X018641Y026286D01*
X018622Y026246D01*
X018600Y026208D01*
X018574Y026172D01*
X018545Y026138D01*
X018513Y026107D01*
X018479Y026079D01*
X018443Y026055D01*
X018404Y026033D01*
X018364Y026015D01*
X018322Y026001D01*
X018279Y025990D01*
X018235Y025983D01*
X018191Y025980D01*
X018147Y025981D01*
X018103Y025986D01*
X018060Y025995D01*
X018017Y026007D01*
X017976Y026024D01*
X017936Y026043D01*
X017899Y026067D01*
X017863Y026093D01*
X017830Y026123D01*
X017800Y026155D01*
X017773Y026190D01*
X017749Y026227D01*
X017728Y026266D01*
X017711Y026307D01*
X017698Y026349D01*
X017688Y026392D01*
X017682Y026436D01*
X017680Y026480D01*
D18*
X022940Y030680D03*
X006520Y025430D03*
X007270Y012680D03*
X022940Y003430D03*
D19*
X029610Y005680D02*
X029610Y009680D01*
X026110Y011680D02*
X026110Y015680D01*
X003330Y015380D02*
X003330Y013480D01*
X003330Y012880D02*
X003330Y010080D01*
X000630Y010080D01*
X000630Y022280D01*
X003330Y022280D01*
X003330Y020480D01*
X003330Y019880D02*
X003330Y016980D01*
D20*
X032230Y021930D03*
X037730Y021930D03*
X037730Y010430D03*
X032230Y010430D03*
D21*
X032141Y012730D02*
X032207Y012797D01*
X032207Y013064D01*
X032141Y013130D01*
X032007Y013130D01*
X031940Y013064D01*
X031940Y012797D01*
X032007Y012730D01*
X032141Y012730D01*
X032401Y012797D02*
X032468Y012730D01*
X032601Y012730D01*
X032668Y012797D01*
X032668Y012863D01*
X032601Y012930D01*
X032468Y012930D01*
X032401Y012997D01*
X032401Y013064D01*
X032468Y013130D01*
X032601Y013130D01*
X032668Y013064D01*
X032861Y013130D02*
X032861Y012730D01*
X032861Y012930D02*
X032995Y012930D01*
X032861Y013130D02*
X033128Y013130D01*
X033322Y013130D02*
X033322Y012730D01*
X033588Y012730D01*
X033455Y012930D02*
X033322Y012930D01*
X033322Y013130D02*
X033588Y013130D01*
X033782Y013130D02*
X034049Y013130D01*
X033915Y013130D02*
X033915Y012730D01*
X034242Y012663D02*
X034509Y012663D01*
X034703Y012730D02*
X034903Y012730D01*
X034970Y012797D01*
X034970Y012863D01*
X034903Y012930D01*
X034703Y012930D01*
X034903Y012930D02*
X034970Y012997D01*
X034970Y013064D01*
X034903Y013130D01*
X034703Y013130D01*
X034703Y012730D01*
X036980Y012730D02*
X036980Y013130D01*
X037113Y012997D01*
X037247Y013130D01*
X037247Y012730D01*
X037440Y012797D02*
X037440Y013064D01*
X037507Y013130D01*
X037641Y013130D01*
X037707Y013064D01*
X037707Y012797D01*
X037641Y012730D01*
X037507Y012730D01*
X037440Y012797D01*
X037901Y012797D02*
X037968Y012730D01*
X038101Y012730D01*
X038168Y012797D01*
X038168Y012863D01*
X038101Y012930D01*
X037968Y012930D01*
X037901Y012997D01*
X037901Y013064D01*
X037968Y013130D01*
X038101Y013130D01*
X038168Y013064D01*
X038361Y013130D02*
X038628Y013130D01*
X038822Y013130D02*
X038822Y012730D01*
X039088Y012730D01*
X038955Y012930D02*
X038822Y012930D01*
X038822Y013130D02*
X039088Y013130D01*
X039282Y013130D02*
X039549Y013130D01*
X039415Y013130D02*
X039415Y012730D01*
X039742Y012663D02*
X040009Y012663D01*
X040203Y012730D02*
X040203Y012997D01*
X040336Y013130D01*
X040470Y012997D01*
X040470Y012730D01*
X040470Y012930D02*
X040203Y012930D01*
X038495Y012930D02*
X038361Y012930D01*
X038361Y012730D02*
X038361Y013130D01*
X031747Y013130D02*
X031747Y012730D01*
X031480Y012730D02*
X031480Y013130D01*
X031613Y012997D01*
X031747Y013130D01*
X021630Y002480D02*
X021630Y000830D01*
X017730Y000830D01*
X017730Y002480D01*
X021630Y002480D01*
X021630Y001030D01*
X012680Y013480D02*
X008780Y013480D01*
X008780Y015130D01*
X012680Y015130D01*
X012680Y013480D01*
X008780Y013480D02*
X008780Y014930D01*
X008280Y022730D02*
X012180Y022730D01*
X012180Y024380D01*
X008280Y024380D01*
X008280Y022730D01*
X012180Y022930D02*
X012180Y024380D01*
X017780Y028230D02*
X021680Y028230D01*
X021680Y029880D01*
X017780Y029880D01*
X017780Y028230D01*
X021680Y028430D02*
X021680Y029880D01*
X031480Y024630D02*
X031480Y024230D01*
X031747Y024230D02*
X031747Y024630D01*
X031613Y024497D01*
X031480Y024630D01*
X031940Y024564D02*
X031940Y024297D01*
X032007Y024230D01*
X032141Y024230D01*
X032207Y024297D01*
X032207Y024564D01*
X032141Y024630D01*
X032007Y024630D01*
X031940Y024564D01*
X032401Y024564D02*
X032401Y024497D01*
X032468Y024430D01*
X032601Y024430D01*
X032668Y024363D01*
X032668Y024297D01*
X032601Y024230D01*
X032468Y024230D01*
X032401Y024297D01*
X032401Y024564D02*
X032468Y024630D01*
X032601Y024630D01*
X032668Y024564D01*
X032861Y024630D02*
X032861Y024230D01*
X032861Y024430D02*
X032995Y024430D01*
X032861Y024630D02*
X033128Y024630D01*
X033322Y024630D02*
X033322Y024230D01*
X033588Y024230D01*
X033455Y024430D02*
X033322Y024430D01*
X033322Y024630D02*
X033588Y024630D01*
X033782Y024630D02*
X034049Y024630D01*
X033915Y024630D02*
X033915Y024230D01*
X034242Y024163D02*
X034509Y024163D01*
X034703Y024230D02*
X034903Y024230D01*
X034970Y024297D01*
X034970Y024564D01*
X034903Y024630D01*
X034703Y024630D01*
X034703Y024230D01*
X036980Y024230D02*
X036980Y024630D01*
X037113Y024497D01*
X037247Y024630D01*
X037247Y024230D01*
X037440Y024297D02*
X037507Y024230D01*
X037641Y024230D01*
X037707Y024297D01*
X037707Y024564D01*
X037641Y024630D01*
X037507Y024630D01*
X037440Y024564D01*
X037440Y024297D01*
X037901Y024297D02*
X037968Y024230D01*
X038101Y024230D01*
X038168Y024297D01*
X038168Y024363D01*
X038101Y024430D01*
X037968Y024430D01*
X037901Y024497D01*
X037901Y024564D01*
X037968Y024630D01*
X038101Y024630D01*
X038168Y024564D01*
X038361Y024630D02*
X038361Y024230D01*
X038361Y024430D02*
X038495Y024430D01*
X038361Y024630D02*
X038628Y024630D01*
X038822Y024630D02*
X038822Y024230D01*
X039088Y024230D01*
X038955Y024430D02*
X038822Y024430D01*
X038822Y024630D02*
X039088Y024630D01*
X039282Y024630D02*
X039549Y024630D01*
X039415Y024630D02*
X039415Y024230D01*
X039742Y024163D02*
X040009Y024163D01*
X040203Y024297D02*
X040269Y024230D01*
X040403Y024230D01*
X040470Y024297D01*
X040470Y024564D02*
X040403Y024630D01*
X040269Y024630D01*
X040203Y024564D01*
X040203Y024297D01*
D22*
X025040Y010996D02*
X025042Y011001D01*
X025046Y011005D01*
X025051Y011006D01*
X025057Y011004D01*
X025060Y010999D01*
X025060Y010993D01*
X025057Y010988D01*
X025051Y010986D01*
X025046Y010987D01*
X025042Y010991D01*
X025040Y010996D01*
D23*
X021430Y001030D02*
X017930Y001030D01*
X012480Y014930D02*
X008980Y014930D01*
X008480Y022930D02*
X011980Y022930D01*
X017980Y028430D02*
X021480Y028430D01*
M02*
