G75*
G70*
%OFA0B0*%
%FSLAX24Y24*%
%IPPOS*%
%LPD*%
%AMOC8*
5,1,8,0,0,1.08239X$1,22.5*
%
%ADD10R,0.0513X0.0474*%
%ADD11C,0.0600*%
%ADD12R,0.0680X0.1020*%
%ADD13R,0.1020X0.0680*%
%ADD14R,0.2521X0.2206*%
%ADD15R,0.0710X0.0474*%
%ADD16R,0.0880X0.0340*%
%ADD17R,0.0820X0.0820*%
%ADD18C,0.0820*%
%ADD19OC8,0.0640*%
%ADD20C,0.3080*%
%ADD21C,0.0680*%
%ADD22C,0.1380*%
%ADD23R,0.0297X0.0237*%
%ADD24C,0.0730*%
%ADD25R,0.0730X0.0730*%
%ADD26OC8,0.0680*%
%ADD27C,0.1080*%
%ADD28C,0.0476*%
D10*
X015695Y003980D03*
X016365Y003980D03*
X017295Y002430D03*
X017965Y002430D03*
X017965Y001730D03*
X017295Y001730D03*
X017295Y001080D03*
X017965Y001080D03*
X018845Y001080D03*
X019515Y001080D03*
X019515Y001730D03*
X018845Y001730D03*
X026945Y005330D03*
X027615Y005330D03*
X033145Y007930D03*
X033815Y007930D03*
X038645Y007930D03*
X039315Y007930D03*
X027165Y010380D03*
X026495Y010380D03*
X024115Y011480D03*
X023445Y011480D03*
X033145Y019430D03*
X033815Y019430D03*
X030565Y020180D03*
X029895Y020180D03*
X029895Y021180D03*
X030565Y021180D03*
X030565Y024180D03*
X029895Y024180D03*
X029895Y025180D03*
X030565Y025180D03*
X027565Y027180D03*
X026895Y027180D03*
X024565Y026180D03*
X023895Y026180D03*
X023895Y024180D03*
X024565Y024180D03*
X024565Y021180D03*
X023895Y021180D03*
X023895Y020180D03*
X024565Y020180D03*
X019765Y027880D03*
X019765Y028480D03*
X019765Y029080D03*
X019095Y029080D03*
X019095Y028480D03*
X019095Y027880D03*
X018365Y027880D03*
X017695Y027880D03*
X017695Y029080D03*
X018365Y029080D03*
X018165Y030680D03*
X017495Y030680D03*
X013265Y026680D03*
X012595Y026680D03*
X012595Y025980D03*
X013265Y025980D03*
X013995Y025980D03*
X014665Y025980D03*
X011465Y026680D03*
X010795Y026680D03*
X010595Y023680D03*
X011265Y023680D03*
X011265Y022980D03*
X010595Y022980D03*
X010495Y015530D03*
X011165Y015530D03*
X011165Y014830D03*
X010495Y014830D03*
X011895Y014830D03*
X012565Y014830D03*
X012565Y014130D03*
X011895Y014130D03*
X011895Y015530D03*
X012565Y015530D03*
X012465Y012680D03*
X011795Y012680D03*
X035645Y029430D03*
X036315Y029430D03*
X038645Y019430D03*
X039315Y019430D03*
D11*
X028990Y019180D02*
X028470Y019180D01*
X028470Y018180D02*
X028990Y018180D01*
X028990Y020180D02*
X028470Y020180D01*
X028470Y021180D02*
X028990Y021180D01*
X028990Y022180D02*
X028470Y022180D01*
X028470Y023180D02*
X028990Y023180D01*
X028990Y024180D02*
X028470Y024180D01*
X028470Y025180D02*
X028990Y025180D01*
X028990Y026180D02*
X028470Y026180D01*
X025990Y026180D02*
X025470Y026180D01*
X025470Y025180D02*
X025990Y025180D01*
X025990Y024180D02*
X025470Y024180D01*
X025470Y023180D02*
X025990Y023180D01*
X025990Y022180D02*
X025470Y022180D01*
X025470Y021180D02*
X025990Y021180D01*
X025990Y020180D02*
X025470Y020180D01*
X025470Y019180D02*
X025990Y019180D01*
X025990Y018180D02*
X025470Y018180D01*
D12*
X025930Y028430D03*
X023730Y028430D03*
X022830Y028430D03*
X020630Y028430D03*
X008830Y023180D03*
X006630Y023180D03*
X005830Y023180D03*
X003630Y023180D03*
X004380Y014930D03*
X006580Y014930D03*
X007380Y014930D03*
X009580Y014930D03*
X020630Y001180D03*
X022830Y001180D03*
X023630Y001180D03*
X025830Y001180D03*
D13*
X016130Y000780D03*
X016130Y002980D03*
X013930Y013280D03*
X013930Y015480D03*
X013730Y022680D03*
X013730Y024880D03*
X016230Y029330D03*
X016230Y031530D03*
D14*
X024964Y030680D03*
X004496Y025430D03*
X005246Y012680D03*
X024964Y003430D03*
D15*
X022090Y002532D03*
X022090Y004328D03*
X008120Y011782D03*
X008120Y013578D03*
X007370Y024532D03*
X007370Y026328D03*
X022090Y029782D03*
X022090Y031578D03*
D16*
X024270Y015430D03*
X024270Y014930D03*
X024270Y014430D03*
X024270Y013930D03*
X024270Y013430D03*
X024270Y012930D03*
X024270Y012430D03*
X024270Y011930D03*
X026690Y011930D03*
X026690Y012430D03*
X026690Y012930D03*
X026690Y013430D03*
X026690Y013930D03*
X026690Y014430D03*
X026690Y014930D03*
X026690Y015430D03*
X027770Y009430D03*
X027770Y008930D03*
X027770Y008430D03*
X027770Y007930D03*
X027770Y007430D03*
X027770Y006930D03*
X027770Y006430D03*
X027770Y005930D03*
X030190Y005930D03*
X030190Y006430D03*
X030190Y006930D03*
X030190Y007430D03*
X030190Y007930D03*
X030190Y008430D03*
X030190Y008930D03*
X030190Y009430D03*
D17*
X027480Y003430D03*
X001730Y023680D03*
X027480Y030930D03*
D18*
X027480Y029930D03*
X027480Y028930D03*
X001730Y025680D03*
X001730Y024680D03*
X027480Y002430D03*
X027480Y001430D03*
D19*
X002480Y011680D03*
X002480Y012680D03*
X002480Y013680D03*
X002480Y014680D03*
X002480Y015680D03*
X002480Y016680D03*
X002480Y017680D03*
X002480Y018680D03*
X002480Y019680D03*
X002480Y020680D03*
X001480Y020680D03*
X001480Y019680D03*
X001480Y018680D03*
X001480Y017680D03*
X001480Y016680D03*
X001480Y015680D03*
X001480Y014680D03*
X001480Y013680D03*
X001480Y012680D03*
X001480Y011680D03*
D20*
X033230Y002430D03*
X038730Y002430D03*
X038730Y029430D03*
X033230Y029430D03*
D21*
X033530Y022930D02*
X032930Y022930D01*
X032930Y021930D02*
X033530Y021930D01*
X033530Y020930D02*
X032930Y020930D01*
X038430Y020930D02*
X039030Y020930D01*
X039030Y021930D02*
X038430Y021930D01*
X038430Y022930D02*
X039030Y022930D01*
X039030Y011430D02*
X038430Y011430D01*
X038430Y010430D02*
X039030Y010430D01*
X039030Y009430D02*
X038430Y009430D01*
X033530Y009430D02*
X032930Y009430D01*
X032930Y010430D02*
X033530Y010430D01*
X033530Y011430D02*
X032930Y011430D01*
D22*
X001990Y001440D03*
X030230Y001440D03*
X030230Y030430D03*
X001990Y030430D03*
D23*
X025090Y010670D03*
X025090Y010414D03*
X025090Y010158D03*
X025870Y010158D03*
X025870Y010424D03*
X025870Y010674D03*
D24*
X036430Y004180D03*
D25*
X035430Y004180D03*
D26*
X021180Y004030D03*
X020180Y004030D03*
X019180Y004030D03*
X018180Y004030D03*
X018680Y002530D03*
X019680Y002530D03*
X020680Y002530D03*
X012230Y011930D03*
X011230Y011930D03*
X010230Y011930D03*
X009230Y011930D03*
X009730Y013430D03*
X010730Y013430D03*
X011730Y013430D03*
X011230Y024430D03*
X010230Y024430D03*
X009230Y024430D03*
X008730Y025930D03*
X009730Y025930D03*
X010730Y025930D03*
X011730Y025930D03*
X018730Y029930D03*
X019730Y029930D03*
X020730Y029930D03*
X020230Y031430D03*
X021230Y031430D03*
X019230Y031430D03*
X018230Y031430D03*
D27*
X007730Y031030D03*
X007730Y028030D03*
X018180Y022980D03*
X021180Y022980D03*
X008480Y009980D03*
X008480Y006980D03*
X019830Y005830D03*
X019830Y008830D03*
D28*
X023280Y009630D03*
X023280Y010680D03*
X022780Y011480D03*
X022780Y012430D03*
X022030Y012580D03*
X020630Y011980D03*
X023030Y014080D03*
X023230Y014930D03*
X023830Y016680D03*
X026690Y016080D03*
X027580Y013930D03*
X025830Y012880D03*
X025230Y012930D03*
X025230Y012080D03*
X024530Y010680D03*
X025880Y008530D03*
X027780Y010380D03*
X027980Y011430D03*
X027980Y012430D03*
X029780Y010180D03*
X030980Y006430D03*
X034480Y007930D03*
X039980Y007930D03*
X033130Y018180D03*
X034480Y019430D03*
X038630Y018780D03*
X039980Y019430D03*
X024830Y028380D03*
X020680Y027580D03*
X023230Y024130D03*
X016230Y030430D03*
X013730Y023780D03*
X007730Y023180D03*
X004730Y023180D03*
X005480Y014930D03*
X008480Y014930D03*
X013930Y014380D03*
X026330Y005330D03*
X026980Y006430D03*
X021730Y001180D03*
X016130Y001880D03*
M02*
