%
M48
M72
T01C0.0200
T02C0.0236
T03C0.0276
T04C0.0320
T05C0.0360
T06C0.0400
T07C0.0492
T08C0.0512
T09C0.0600
T10C0.1200
T11C0.1300
%
T01
X17383Y3130
X23511Y3887
X25583Y5930
X26833Y5930
X28683Y6830
X29433Y8180
X28683Y11180
X28983Y12430
X25933Y12530
X25133Y12980
X25133Y11080
X25933Y11080
X22483Y14930
X21383Y13930
X20383Y14930
X24603Y7400
X6233Y22230
X3483Y26080
X5683Y16680
X21733Y28880
X25833Y28530
T02
X23283Y24130
X18833Y25830
X14343Y25760
X10383Y26380
X23283Y14930
X22833Y12430
X22083Y12580
X20783Y11080
X23043Y10560
X27633Y13930
X26743Y16080
X33183Y18180
X34533Y19430
X38683Y18780
X40033Y19430
X29833Y10180
X31033Y6430
X34533Y7930
X40033Y7930
T03
X37133Y3780
X35133Y3780
T04
X28783Y18180
X28783Y19180
X28783Y20180
X28783Y21180
X28783Y22180
X28783Y23180
X28783Y24180
X28783Y25180
X28783Y26180
X25783Y26180
X25783Y25180
X25783Y24180
X25783Y23180
X25783Y22180
X25783Y21180
X25783Y20180
X25783Y19180
X25783Y18180
T05
X2533Y17680
X1533Y17680
X1533Y16680
X1533Y15680
X1533Y14680
X1533Y13680
X2533Y13680
X2533Y14680
X2533Y15680
X2533Y16680
X2533Y18680
X1533Y18680
X1533Y19680
X1533Y20680
X2533Y20680
X2533Y19680
X2533Y12680
X1533Y12680
X1533Y11680
X2533Y11680
T06
X14133Y23380
X15133Y23380
X16133Y23380
X17133Y23380
X16633Y24880
X15633Y24880
X14633Y24880
X1783Y24680
X1783Y23680
X1783Y25680
X27533Y28930
X27533Y29930
X27533Y30930
X33283Y22930
X33283Y21930
X33283Y20930
X38783Y20930
X38783Y21930
X38783Y22930
X38783Y11430
X38783Y10430
X38783Y9430
X33283Y9430
X33283Y10430
X33283Y11430
X27533Y3430
X27533Y2430
X27533Y1430
T07
X21555Y1415
X21555Y2415
X21555Y3415
X21555Y4415
X5133Y23680
X5133Y24680
X5133Y25680
X5133Y26680
X24083Y27930
X24083Y28930
X24083Y29930
X24083Y30930
T08
X14002Y29580
X12033Y29580
X9002Y29580
X7033Y29580
T09
X13383Y21430
X13383Y18430
T10
X33283Y29430
X38783Y29430
X39133Y1830
X33083Y1830
T11
X2043Y1440
X30283Y1440
X30283Y30430
X2043Y30430
M30
