G75*
G70*
%OFA0B0*%
%FSLAX24Y24*%
%IPPOS*%
%LPD*%
%AMOC8*
5,1,8,0,0,1.08239X$1,22.5*
%
%ADD10C,0.0100*%
%ADD11C,0.0050*%
%ADD12C,0.0000*%
D10*
X003808Y003308D02*
X003808Y013308D01*
X006808Y013308D01*
X006808Y003308D01*
X003808Y003308D01*
X004043Y003719D02*
X004045Y003732D01*
X004050Y003745D01*
X004059Y003756D01*
X004070Y003763D01*
X004083Y003768D01*
X004096Y003769D01*
X004110Y003766D01*
X004122Y003760D01*
X004132Y003751D01*
X004139Y003739D01*
X004143Y003726D01*
X004143Y003712D01*
X004139Y003699D01*
X004132Y003687D01*
X004122Y003678D01*
X004110Y003672D01*
X004096Y003669D01*
X004083Y003670D01*
X004070Y003675D01*
X004059Y003682D01*
X004050Y003693D01*
X004045Y003706D01*
X004043Y003719D01*
X004429Y003400D02*
X004429Y005616D01*
X006188Y005616D01*
X006188Y003400D01*
X004429Y003400D01*
D11*
X004475Y011183D02*
X004475Y011283D01*
X004541Y011350D01*
X004541Y011383D01*
X004638Y011317D02*
X004705Y011383D01*
X004771Y011317D01*
X004771Y011183D01*
X004868Y011183D02*
X004868Y011383D01*
X005002Y011183D01*
X005002Y011383D01*
X005029Y011583D02*
X005095Y011583D01*
X005062Y011583D02*
X005062Y011783D01*
X005029Y011783D02*
X005095Y011783D01*
X005182Y011783D02*
X005182Y011583D01*
X005316Y011583D02*
X005182Y011783D01*
X005316Y011783D02*
X005316Y011583D01*
X005412Y011583D02*
X005412Y011783D01*
X005412Y011683D02*
X005546Y011683D01*
X005546Y011783D02*
X005546Y011583D01*
X005559Y011383D02*
X005559Y011216D01*
X005592Y011183D01*
X005659Y011183D01*
X005692Y011216D01*
X005692Y011383D01*
X005789Y011383D02*
X005789Y011183D01*
X005922Y011183D01*
X006019Y011183D02*
X006086Y011183D01*
X006053Y011183D02*
X006053Y011383D01*
X006086Y011383D02*
X006019Y011383D01*
X005939Y011583D02*
X006006Y011650D01*
X006006Y011783D01*
X006103Y011750D02*
X006103Y011616D01*
X006136Y011583D01*
X006203Y011583D01*
X006236Y011616D01*
X006236Y011750D01*
X006203Y011783D01*
X006136Y011783D01*
X006103Y011750D01*
X005873Y011783D02*
X005873Y011650D01*
X005939Y011583D01*
X006173Y011317D02*
X006173Y011183D01*
X006173Y011283D02*
X006306Y011283D01*
X006306Y011317D02*
X006306Y011183D01*
X006403Y011183D02*
X006403Y011383D01*
X006536Y011183D01*
X006536Y011383D01*
X006306Y011317D02*
X006239Y011383D01*
X006173Y011317D01*
X006153Y011983D02*
X006019Y011983D01*
X006019Y012183D01*
X006249Y012183D02*
X006316Y012183D01*
X006283Y012183D02*
X006283Y011983D01*
X006316Y011983D02*
X006249Y011983D01*
X006403Y011983D02*
X006403Y012183D01*
X006536Y011983D01*
X006536Y012183D01*
X006136Y012516D02*
X006103Y012483D01*
X006036Y012483D01*
X006003Y012516D01*
X006136Y012650D01*
X006136Y012516D01*
X006003Y012516D02*
X006003Y012650D01*
X006036Y012683D01*
X006103Y012683D01*
X006136Y012650D01*
X006139Y012883D02*
X006139Y013083D01*
X006073Y013017D01*
X005976Y013050D02*
X005976Y012983D01*
X005943Y012950D01*
X005842Y012950D01*
X005842Y012883D02*
X005842Y013083D01*
X005943Y013083D01*
X005976Y013050D01*
X006073Y012883D02*
X006206Y012883D01*
X006303Y012883D02*
X006436Y013017D01*
X006436Y013050D01*
X006403Y013083D01*
X006336Y013083D01*
X006303Y013050D01*
X006303Y012883D02*
X006436Y012883D01*
X005839Y012683D02*
X005839Y012483D01*
X005773Y012483D02*
X005906Y012483D01*
X005773Y012617D02*
X005839Y012683D01*
X005712Y012883D02*
X005746Y012916D01*
X005746Y012950D01*
X005712Y012983D01*
X005646Y012983D01*
X005612Y013017D01*
X005612Y013050D01*
X005646Y013083D01*
X005712Y013083D01*
X005746Y013050D01*
X005712Y012883D02*
X005646Y012883D01*
X005612Y012916D01*
X005412Y012683D02*
X005446Y012650D01*
X005446Y012583D01*
X005412Y012550D01*
X005312Y012550D01*
X005312Y012483D02*
X005312Y012683D01*
X005412Y012683D01*
X005216Y012683D02*
X005216Y012516D01*
X005182Y012483D01*
X005115Y012483D01*
X005082Y012516D01*
X005082Y012683D01*
X004985Y012650D02*
X004952Y012683D01*
X004885Y012683D01*
X004852Y012650D01*
X004852Y012516D01*
X004885Y012483D01*
X004952Y012483D01*
X004985Y012516D01*
X004985Y012650D01*
X004755Y012650D02*
X004755Y012583D01*
X004722Y012550D01*
X004622Y012550D01*
X004688Y012550D02*
X004755Y012483D01*
X004622Y012483D02*
X004622Y012683D01*
X004722Y012683D01*
X004755Y012650D01*
X004525Y012650D02*
X004492Y012683D01*
X004425Y012683D01*
X004391Y012650D01*
X004391Y012516D01*
X004425Y012483D01*
X004492Y012483D01*
X004525Y012516D01*
X004525Y012583D01*
X004458Y012583D01*
X004461Y012883D02*
X004595Y012883D01*
X004691Y012883D02*
X004825Y012883D01*
X004758Y012883D02*
X004758Y013083D01*
X004691Y013017D01*
X004595Y013083D02*
X004461Y013083D01*
X004461Y012883D01*
X004365Y012883D02*
X004231Y012883D01*
X004231Y013083D01*
X004365Y013083D01*
X004298Y012983D02*
X004231Y012983D01*
X004461Y012983D02*
X004528Y012983D01*
X004922Y013017D02*
X004955Y012983D01*
X005055Y012983D01*
X005055Y012916D02*
X005055Y013050D01*
X005022Y013083D01*
X004955Y013083D01*
X004922Y013050D01*
X004922Y013017D01*
X004922Y012916D02*
X004955Y012883D01*
X005022Y012883D01*
X005055Y012916D01*
X005152Y012883D02*
X005285Y013017D01*
X005285Y013050D01*
X005252Y013083D01*
X005185Y013083D01*
X005152Y013050D01*
X005152Y012883D02*
X005285Y012883D01*
X005329Y012183D02*
X005329Y011983D01*
X005462Y011983D01*
X005559Y011983D02*
X005559Y012183D01*
X005659Y012183D01*
X005692Y012150D01*
X005692Y012083D01*
X005659Y012050D01*
X005559Y012050D01*
X005626Y012050D02*
X005692Y011983D01*
X005462Y012183D02*
X005329Y012183D01*
X005329Y012083D02*
X005395Y012083D01*
X005232Y012016D02*
X005199Y011983D01*
X005132Y011983D01*
X005098Y012016D01*
X005098Y012150D01*
X005132Y012183D01*
X005199Y012183D01*
X005232Y012150D01*
X005002Y012183D02*
X005002Y011983D01*
X004868Y012183D01*
X004868Y011983D01*
X004771Y011983D02*
X004638Y011983D01*
X004638Y012183D01*
X004771Y012183D01*
X004705Y012083D02*
X004638Y012083D01*
X004541Y012083D02*
X004508Y012050D01*
X004408Y012050D01*
X004408Y011983D02*
X004408Y012183D01*
X004508Y012183D01*
X004541Y012150D01*
X004541Y012083D01*
X004311Y012050D02*
X004311Y012016D01*
X004278Y011983D01*
X004211Y011983D01*
X004178Y012016D01*
X004211Y012083D02*
X004278Y012083D01*
X004311Y012050D01*
X004311Y012150D02*
X004278Y012183D01*
X004211Y012183D01*
X004178Y012150D01*
X004178Y012117D01*
X004211Y012083D01*
X004568Y011783D02*
X004702Y011783D01*
X004635Y011783D02*
X004635Y011583D01*
X004798Y011583D02*
X004798Y011783D01*
X004798Y011683D02*
X004932Y011683D01*
X004932Y011783D02*
X004932Y011583D01*
X004771Y011283D02*
X004638Y011283D01*
X004638Y011317D02*
X004638Y011183D01*
X004475Y011283D02*
X004408Y011350D01*
X004408Y011383D01*
X004311Y011350D02*
X004311Y011283D01*
X004278Y011250D01*
X004178Y011250D01*
X004244Y011250D02*
X004311Y011183D01*
X004178Y011183D02*
X004178Y011383D01*
X004278Y011383D01*
X004311Y011350D01*
X005329Y011216D02*
X005362Y011183D01*
X005395Y011183D01*
X005429Y011216D01*
X005429Y011383D01*
X005462Y011383D02*
X005395Y011383D01*
D12*
X004845Y010008D02*
X004847Y010051D01*
X004853Y010093D01*
X004863Y010135D01*
X004876Y010175D01*
X004894Y010214D01*
X004914Y010252D01*
X004939Y010287D01*
X004966Y010320D01*
X004996Y010350D01*
X005029Y010377D01*
X005064Y010402D01*
X005102Y010422D01*
X005141Y010440D01*
X005181Y010453D01*
X005223Y010463D01*
X005265Y010469D01*
X005308Y010471D01*
X005351Y010469D01*
X005393Y010463D01*
X005435Y010453D01*
X005475Y010440D01*
X005514Y010422D01*
X005552Y010402D01*
X005587Y010377D01*
X005620Y010350D01*
X005650Y010320D01*
X005677Y010287D01*
X005702Y010252D01*
X005722Y010214D01*
X005740Y010175D01*
X005753Y010135D01*
X005763Y010093D01*
X005769Y010051D01*
X005771Y010008D01*
X005769Y009965D01*
X005763Y009923D01*
X005753Y009881D01*
X005740Y009841D01*
X005722Y009802D01*
X005702Y009764D01*
X005677Y009729D01*
X005650Y009696D01*
X005620Y009666D01*
X005587Y009639D01*
X005552Y009614D01*
X005514Y009594D01*
X005475Y009576D01*
X005435Y009563D01*
X005393Y009553D01*
X005351Y009547D01*
X005308Y009545D01*
X005265Y009547D01*
X005223Y009553D01*
X005181Y009563D01*
X005141Y009576D01*
X005102Y009594D01*
X005064Y009614D01*
X005029Y009639D01*
X004996Y009666D01*
X004966Y009696D01*
X004939Y009729D01*
X004914Y009764D01*
X004894Y009802D01*
X004876Y009841D01*
X004863Y009881D01*
X004853Y009923D01*
X004847Y009965D01*
X004845Y010008D01*
X004845Y007208D02*
X004847Y007251D01*
X004853Y007293D01*
X004863Y007335D01*
X004876Y007375D01*
X004894Y007414D01*
X004914Y007452D01*
X004939Y007487D01*
X004966Y007520D01*
X004996Y007550D01*
X005029Y007577D01*
X005064Y007602D01*
X005102Y007622D01*
X005141Y007640D01*
X005181Y007653D01*
X005223Y007663D01*
X005265Y007669D01*
X005308Y007671D01*
X005351Y007669D01*
X005393Y007663D01*
X005435Y007653D01*
X005475Y007640D01*
X005514Y007622D01*
X005552Y007602D01*
X005587Y007577D01*
X005620Y007550D01*
X005650Y007520D01*
X005677Y007487D01*
X005702Y007452D01*
X005722Y007414D01*
X005740Y007375D01*
X005753Y007335D01*
X005763Y007293D01*
X005769Y007251D01*
X005771Y007208D01*
X005769Y007165D01*
X005763Y007123D01*
X005753Y007081D01*
X005740Y007041D01*
X005722Y007002D01*
X005702Y006964D01*
X005677Y006929D01*
X005650Y006896D01*
X005620Y006866D01*
X005587Y006839D01*
X005552Y006814D01*
X005514Y006794D01*
X005475Y006776D01*
X005435Y006763D01*
X005393Y006753D01*
X005351Y006747D01*
X005308Y006745D01*
X005265Y006747D01*
X005223Y006753D01*
X005181Y006763D01*
X005141Y006776D01*
X005102Y006794D01*
X005064Y006814D01*
X005029Y006839D01*
X004996Y006866D01*
X004966Y006896D01*
X004939Y006929D01*
X004914Y006964D01*
X004894Y007002D01*
X004876Y007041D01*
X004863Y007081D01*
X004853Y007123D01*
X004847Y007165D01*
X004845Y007208D01*
M02*
