G75*
G70*
%OFA0B0*%
%FSLAX24Y24*%
%IPPOS*%
%LPD*%
%AMOC8*
5,1,8,0,0,1.08239X$1,22.5*
%
%ADD10R,0.0425X0.0283*%
%ADD11C,0.0250*%
%ADD12C,0.0100*%
D10*
X004725Y003736D03*
X004725Y004508D03*
X004725Y005280D03*
X005891Y005280D03*
X005891Y004508D03*
X005891Y003736D03*
D11*
X004108Y004108D03*
X004508Y006508D03*
X006108Y006508D03*
X006508Y009208D03*
X006408Y010808D03*
X004208Y009208D03*
D12*
X004008Y009090D02*
X004008Y003508D01*
X004458Y003508D01*
X004413Y003553D01*
X004413Y003920D01*
X004471Y003978D01*
X004979Y003978D01*
X005038Y003920D01*
X005038Y003886D01*
X005058Y003886D01*
X005058Y005046D01*
X005058Y005046D01*
X005030Y005018D01*
X004996Y004998D01*
X004958Y004988D01*
X004746Y004988D01*
X004746Y005259D01*
X004705Y005259D01*
X004705Y004988D01*
X004493Y004988D01*
X004455Y004998D01*
X004421Y005018D01*
X004393Y005046D01*
X004373Y005080D01*
X004363Y005118D01*
X004363Y005259D01*
X004705Y005259D01*
X004705Y005301D01*
X004705Y005571D01*
X004493Y005571D01*
X004455Y005561D01*
X004421Y005541D01*
X004393Y005514D01*
X004373Y005479D01*
X004363Y005441D01*
X004363Y005301D01*
X004705Y005301D01*
X004746Y005301D01*
X004746Y005571D01*
X004958Y005571D01*
X004996Y005561D01*
X005030Y005541D01*
X005058Y005514D01*
X005058Y005513D01*
X005058Y005746D01*
X004521Y006283D01*
X004415Y006283D01*
X004358Y006340D01*
X004358Y004770D01*
X004425Y004703D01*
X004471Y004750D01*
X004979Y004750D01*
X005038Y004691D01*
X005038Y004325D01*
X004979Y004266D01*
X004471Y004266D01*
X004413Y004325D01*
X004413Y004358D01*
X004346Y004358D01*
X004146Y004558D01*
X004058Y004646D01*
X004058Y009040D01*
X004008Y009090D01*
X004008Y009021D02*
X004058Y009021D01*
X004058Y008923D02*
X004008Y008923D01*
X004008Y008824D02*
X004058Y008824D01*
X004058Y008726D02*
X004008Y008726D01*
X004008Y008627D02*
X004058Y008627D01*
X004058Y008529D02*
X004008Y008529D01*
X004008Y008430D02*
X004058Y008430D01*
X004058Y008332D02*
X004008Y008332D01*
X004008Y008233D02*
X004058Y008233D01*
X004058Y008135D02*
X004008Y008135D01*
X004008Y008036D02*
X004058Y008036D01*
X004058Y007938D02*
X004008Y007938D01*
X004008Y007839D02*
X004058Y007839D01*
X004058Y007741D02*
X004008Y007741D01*
X004008Y007642D02*
X004058Y007642D01*
X004058Y007544D02*
X004008Y007544D01*
X004008Y007445D02*
X004058Y007445D01*
X004058Y007347D02*
X004008Y007347D01*
X004008Y007248D02*
X004058Y007248D01*
X004058Y007150D02*
X004008Y007150D01*
X004008Y007051D02*
X004058Y007051D01*
X004058Y006953D02*
X004008Y006953D01*
X004008Y006854D02*
X004058Y006854D01*
X004058Y006756D02*
X004008Y006756D01*
X004008Y006657D02*
X004058Y006657D01*
X004058Y006559D02*
X004008Y006559D01*
X004008Y006460D02*
X004058Y006460D01*
X004058Y006362D02*
X004008Y006362D01*
X004008Y006263D02*
X004058Y006263D01*
X004058Y006165D02*
X004008Y006165D01*
X004008Y006066D02*
X004058Y006066D01*
X004058Y005968D02*
X004008Y005968D01*
X004008Y005869D02*
X004058Y005869D01*
X004058Y005771D02*
X004008Y005771D01*
X004008Y005672D02*
X004058Y005672D01*
X004058Y005574D02*
X004008Y005574D01*
X004008Y005475D02*
X004058Y005475D01*
X004058Y005377D02*
X004008Y005377D01*
X004008Y005278D02*
X004058Y005278D01*
X004058Y005180D02*
X004008Y005180D01*
X004008Y005081D02*
X004058Y005081D01*
X004058Y004983D02*
X004008Y004983D01*
X004008Y004884D02*
X004058Y004884D01*
X004058Y004786D02*
X004008Y004786D01*
X004008Y004687D02*
X004058Y004687D01*
X004008Y004589D02*
X004115Y004589D01*
X004214Y004490D02*
X004008Y004490D01*
X004008Y004392D02*
X004312Y004392D01*
X004408Y004508D02*
X004208Y004708D01*
X004208Y009208D01*
X004658Y009218D02*
X006283Y009218D01*
X006283Y009301D02*
X006283Y009115D01*
X006358Y009040D01*
X006358Y003970D01*
X006246Y003858D01*
X006203Y003858D01*
X006203Y003920D01*
X006145Y003978D01*
X005637Y003978D01*
X005578Y003920D01*
X005578Y003553D01*
X005623Y003508D01*
X004993Y003508D01*
X005038Y003553D01*
X005038Y003586D01*
X005199Y003586D01*
X005270Y003658D01*
X005358Y003746D01*
X005358Y005870D01*
X004733Y006495D01*
X004733Y006601D01*
X004658Y006676D01*
X004658Y007180D01*
X004717Y006923D01*
X004899Y006695D01*
X005162Y006568D01*
X005454Y006568D01*
X005458Y006570D01*
X005358Y006470D01*
X005358Y005246D01*
X005446Y005158D01*
X005474Y005130D01*
X005578Y005130D01*
X005578Y005097D01*
X005637Y005038D01*
X006145Y005038D01*
X006203Y005097D01*
X006203Y005463D01*
X006145Y005521D01*
X005658Y005521D01*
X005658Y006346D01*
X005670Y006358D01*
X005940Y006358D01*
X006015Y006283D01*
X006201Y006283D01*
X006333Y006415D01*
X006333Y006601D01*
X006201Y006733D01*
X006015Y006733D01*
X005940Y006658D01*
X005641Y006658D01*
X005717Y006695D01*
X005717Y006695D01*
X005900Y006923D01*
X005965Y007208D01*
X005900Y007493D01*
X005717Y007721D01*
X005454Y007848D01*
X005162Y007848D01*
X004899Y007721D01*
X004899Y007721D01*
X004717Y007493D01*
X004717Y007493D01*
X004658Y007236D01*
X004658Y009980D01*
X004717Y009723D01*
X004899Y009495D01*
X005162Y009368D01*
X005454Y009368D01*
X005717Y009495D01*
X005717Y009495D01*
X005900Y009723D01*
X005965Y010008D01*
X005900Y010293D01*
X005717Y010521D01*
X005454Y010648D01*
X005162Y010648D01*
X004899Y010521D01*
X004899Y010521D01*
X004717Y010293D01*
X004717Y010293D01*
X004658Y010036D01*
X004658Y010446D01*
X004870Y010658D01*
X006240Y010658D01*
X006315Y010583D01*
X006501Y010583D01*
X006608Y010690D01*
X006608Y009426D01*
X006601Y009433D01*
X006415Y009433D01*
X006283Y009301D01*
X006298Y009317D02*
X004658Y009317D01*
X004658Y009415D02*
X005064Y009415D01*
X004899Y009495D02*
X004899Y009495D01*
X004899Y009495D01*
X004884Y009514D02*
X004658Y009514D01*
X004658Y009612D02*
X004805Y009612D01*
X004727Y009711D02*
X004658Y009711D01*
X004717Y009723D02*
X004717Y009723D01*
X004697Y009809D02*
X004658Y009809D01*
X004658Y009908D02*
X004675Y009908D01*
X004658Y010105D02*
X004674Y010105D01*
X004658Y010203D02*
X004696Y010203D01*
X004724Y010302D02*
X004658Y010302D01*
X004658Y010400D02*
X004802Y010400D01*
X004881Y010499D02*
X004711Y010499D01*
X004809Y010597D02*
X005056Y010597D01*
X004808Y010808D02*
X004508Y010508D01*
X004508Y006508D01*
X005208Y005808D01*
X005208Y003808D01*
X005136Y003736D01*
X004725Y003736D01*
X004413Y003702D02*
X004008Y003702D01*
X004008Y003604D02*
X004413Y003604D01*
X004413Y003801D02*
X004008Y003801D01*
X004008Y003899D02*
X004413Y003899D01*
X004445Y004293D02*
X004008Y004293D01*
X004008Y004195D02*
X005058Y004195D01*
X005058Y004293D02*
X005006Y004293D01*
X005038Y004392D02*
X005058Y004392D01*
X005058Y004490D02*
X005038Y004490D01*
X005038Y004589D02*
X005058Y004589D01*
X005058Y004687D02*
X005038Y004687D01*
X005058Y004786D02*
X004358Y004786D01*
X004358Y004884D02*
X005058Y004884D01*
X005058Y004983D02*
X004358Y004983D01*
X004358Y005081D02*
X004373Y005081D01*
X004363Y005180D02*
X004358Y005180D01*
X004358Y005278D02*
X004705Y005278D01*
X004705Y005180D02*
X004746Y005180D01*
X004746Y005081D02*
X004705Y005081D01*
X004705Y005377D02*
X004746Y005377D01*
X004746Y005475D02*
X004705Y005475D01*
X004372Y005475D02*
X004358Y005475D01*
X004358Y005377D02*
X004363Y005377D01*
X004358Y005574D02*
X005058Y005574D01*
X005058Y005672D02*
X004358Y005672D01*
X004358Y005771D02*
X005033Y005771D01*
X004935Y005869D02*
X004358Y005869D01*
X004358Y005968D02*
X004836Y005968D01*
X004738Y006066D02*
X004358Y006066D01*
X004358Y006165D02*
X004639Y006165D01*
X004541Y006263D02*
X004358Y006263D01*
X004768Y006460D02*
X005358Y006460D01*
X005358Y006362D02*
X004867Y006362D01*
X004965Y006263D02*
X005358Y006263D01*
X005358Y006165D02*
X005064Y006165D01*
X005162Y006066D02*
X005358Y006066D01*
X005358Y005968D02*
X005261Y005968D01*
X005358Y005869D02*
X005358Y005869D01*
X005358Y005771D02*
X005358Y005771D01*
X005358Y005672D02*
X005358Y005672D01*
X005358Y005574D02*
X005358Y005574D01*
X005358Y005475D02*
X005358Y005475D01*
X005358Y005377D02*
X005358Y005377D01*
X005358Y005278D02*
X005358Y005278D01*
X005358Y005180D02*
X005424Y005180D01*
X005358Y005081D02*
X005594Y005081D01*
X005536Y005280D02*
X005508Y005308D01*
X005508Y006408D01*
X005608Y006508D01*
X006108Y006508D01*
X006277Y006657D02*
X006358Y006657D01*
X006358Y006559D02*
X006333Y006559D01*
X006333Y006460D02*
X006358Y006460D01*
X006358Y006362D02*
X006280Y006362D01*
X006358Y006263D02*
X005658Y006263D01*
X005658Y006165D02*
X006358Y006165D01*
X006358Y006066D02*
X005658Y006066D01*
X005658Y005968D02*
X006358Y005968D01*
X006358Y005869D02*
X005658Y005869D01*
X005658Y005771D02*
X006358Y005771D01*
X006358Y005672D02*
X005658Y005672D01*
X005658Y005574D02*
X006358Y005574D01*
X006358Y005475D02*
X006191Y005475D01*
X006203Y005377D02*
X006358Y005377D01*
X006358Y005278D02*
X006203Y005278D01*
X006203Y005180D02*
X006358Y005180D01*
X006358Y005081D02*
X006188Y005081D01*
X006358Y004983D02*
X005358Y004983D01*
X005358Y004884D02*
X006358Y004884D01*
X006358Y004786D02*
X006168Y004786D01*
X006161Y004790D02*
X006123Y004800D01*
X005912Y004800D01*
X005912Y004529D01*
X006253Y004529D01*
X006253Y004670D01*
X006243Y004708D01*
X006223Y004742D01*
X006195Y004770D01*
X006161Y004790D01*
X006249Y004687D02*
X006358Y004687D01*
X006358Y004589D02*
X006253Y004589D01*
X006253Y004487D02*
X005912Y004487D01*
X005912Y004529D01*
X005870Y004529D01*
X005870Y004800D01*
X005658Y004800D01*
X005620Y004790D01*
X005586Y004770D01*
X005558Y004742D01*
X005538Y004708D01*
X005528Y004670D01*
X005528Y004529D01*
X005870Y004529D01*
X005870Y004487D01*
X005912Y004487D01*
X005912Y004216D01*
X006123Y004216D01*
X006161Y004227D01*
X006195Y004246D01*
X006223Y004274D01*
X006243Y004308D01*
X006253Y004347D01*
X006253Y004487D01*
X006253Y004392D02*
X006358Y004392D01*
X006358Y004490D02*
X005912Y004490D01*
X005870Y004490D02*
X005358Y004490D01*
X005358Y004392D02*
X005528Y004392D01*
X005528Y004347D02*
X005538Y004308D01*
X005558Y004274D01*
X005586Y004246D01*
X005620Y004227D01*
X005658Y004216D01*
X005870Y004216D01*
X005870Y004487D01*
X005528Y004487D01*
X005528Y004347D01*
X005547Y004293D02*
X005358Y004293D01*
X005358Y004195D02*
X006358Y004195D01*
X006358Y004293D02*
X006234Y004293D01*
X006358Y004096D02*
X005358Y004096D01*
X005358Y003998D02*
X006358Y003998D01*
X006287Y003899D02*
X006203Y003899D01*
X006308Y003708D02*
X005919Y003708D01*
X005891Y003736D01*
X005578Y003702D02*
X005314Y003702D01*
X005358Y003801D02*
X005578Y003801D01*
X005578Y003899D02*
X005358Y003899D01*
X005216Y003604D02*
X005578Y003604D01*
X005870Y004293D02*
X005912Y004293D01*
X005912Y004392D02*
X005870Y004392D01*
X005870Y004589D02*
X005912Y004589D01*
X005912Y004687D02*
X005870Y004687D01*
X005870Y004786D02*
X005912Y004786D01*
X005613Y004786D02*
X005358Y004786D01*
X005358Y004687D02*
X005533Y004687D01*
X005528Y004589D02*
X005358Y004589D01*
X005058Y004096D02*
X004008Y004096D01*
X004008Y003998D02*
X005058Y003998D01*
X005058Y003899D02*
X005038Y003899D01*
X004725Y004508D02*
X004408Y004508D01*
X005536Y005280D02*
X005891Y005280D01*
X005446Y006559D02*
X004733Y006559D01*
X004677Y006657D02*
X004977Y006657D01*
X004899Y006695D02*
X004899Y006695D01*
X004899Y006695D01*
X004850Y006756D02*
X004658Y006756D01*
X004658Y006854D02*
X004772Y006854D01*
X004717Y006923D02*
X004717Y006923D01*
X004710Y006953D02*
X004658Y006953D01*
X004658Y007051D02*
X004687Y007051D01*
X004665Y007150D02*
X004658Y007150D01*
X004658Y007248D02*
X004661Y007248D01*
X004658Y007347D02*
X004683Y007347D01*
X004706Y007445D02*
X004658Y007445D01*
X004658Y007544D02*
X004757Y007544D01*
X004836Y007642D02*
X004658Y007642D01*
X004658Y007741D02*
X004939Y007741D01*
X005143Y007839D02*
X004658Y007839D01*
X004658Y007938D02*
X006358Y007938D01*
X006358Y008036D02*
X004658Y008036D01*
X004658Y008135D02*
X006358Y008135D01*
X006358Y008233D02*
X004658Y008233D01*
X004658Y008332D02*
X006358Y008332D01*
X006358Y008430D02*
X004658Y008430D01*
X004658Y008529D02*
X006358Y008529D01*
X006358Y008627D02*
X004658Y008627D01*
X004658Y008726D02*
X006358Y008726D01*
X006358Y008824D02*
X004658Y008824D01*
X004658Y008923D02*
X006358Y008923D01*
X006358Y009021D02*
X004658Y009021D01*
X004658Y009120D02*
X006283Y009120D01*
X006508Y009208D02*
X006508Y003908D01*
X006308Y003708D01*
X006358Y006756D02*
X005766Y006756D01*
X005844Y006854D02*
X006358Y006854D01*
X006358Y006953D02*
X005906Y006953D01*
X005900Y006923D02*
X005900Y006923D01*
X005929Y007051D02*
X006358Y007051D01*
X006358Y007150D02*
X005951Y007150D01*
X005965Y007208D02*
X005965Y007208D01*
X005955Y007248D02*
X006358Y007248D01*
X006358Y007347D02*
X005933Y007347D01*
X005910Y007445D02*
X006358Y007445D01*
X006358Y007544D02*
X005859Y007544D01*
X005900Y007493D02*
X005900Y007493D01*
X005781Y007642D02*
X006358Y007642D01*
X006358Y007741D02*
X005677Y007741D01*
X005717Y007721D02*
X005717Y007721D01*
X005717Y007721D01*
X005473Y007839D02*
X006358Y007839D01*
X006397Y009415D02*
X005552Y009415D01*
X005732Y009514D02*
X006608Y009514D01*
X006608Y009612D02*
X005811Y009612D01*
X005889Y009711D02*
X006608Y009711D01*
X006608Y009809D02*
X005919Y009809D01*
X005900Y009723D02*
X005900Y009723D01*
X005942Y009908D02*
X006608Y009908D01*
X006608Y010006D02*
X005964Y010006D01*
X005965Y010008D02*
X005965Y010008D01*
X005943Y010105D02*
X006608Y010105D01*
X006608Y010203D02*
X005920Y010203D01*
X005900Y010293D02*
X005900Y010293D01*
X005893Y010302D02*
X006608Y010302D01*
X006608Y010400D02*
X005814Y010400D01*
X005735Y010499D02*
X006608Y010499D01*
X006608Y010597D02*
X006515Y010597D01*
X006408Y010808D02*
X004808Y010808D01*
X005560Y010597D02*
X006301Y010597D01*
X005717Y010521D02*
X005717Y010521D01*
X005717Y010521D01*
M02*
