G75*
G70*
%OFA0B0*%
%FSLAX24Y24*%
%IPPOS*%
%LPD*%
%AMOC8*
5,1,8,0,0,1.08239X$1,22.5*
%
%ADD10C,0.0100*%
%ADD11C,0.0000*%
D10*
X003808Y003308D02*
X003808Y013308D01*
X006808Y013308D01*
X006808Y003308D01*
X003808Y003308D01*
D11*
X004845Y007208D02*
X004847Y007251D01*
X004853Y007293D01*
X004863Y007335D01*
X004876Y007375D01*
X004894Y007414D01*
X004914Y007452D01*
X004939Y007487D01*
X004966Y007520D01*
X004996Y007550D01*
X005029Y007577D01*
X005064Y007602D01*
X005102Y007622D01*
X005141Y007640D01*
X005181Y007653D01*
X005223Y007663D01*
X005265Y007669D01*
X005308Y007671D01*
X005351Y007669D01*
X005393Y007663D01*
X005435Y007653D01*
X005475Y007640D01*
X005514Y007622D01*
X005552Y007602D01*
X005587Y007577D01*
X005620Y007550D01*
X005650Y007520D01*
X005677Y007487D01*
X005702Y007452D01*
X005722Y007414D01*
X005740Y007375D01*
X005753Y007335D01*
X005763Y007293D01*
X005769Y007251D01*
X005771Y007208D01*
X005769Y007165D01*
X005763Y007123D01*
X005753Y007081D01*
X005740Y007041D01*
X005722Y007002D01*
X005702Y006964D01*
X005677Y006929D01*
X005650Y006896D01*
X005620Y006866D01*
X005587Y006839D01*
X005552Y006814D01*
X005514Y006794D01*
X005475Y006776D01*
X005435Y006763D01*
X005393Y006753D01*
X005351Y006747D01*
X005308Y006745D01*
X005265Y006747D01*
X005223Y006753D01*
X005181Y006763D01*
X005141Y006776D01*
X005102Y006794D01*
X005064Y006814D01*
X005029Y006839D01*
X004996Y006866D01*
X004966Y006896D01*
X004939Y006929D01*
X004914Y006964D01*
X004894Y007002D01*
X004876Y007041D01*
X004863Y007081D01*
X004853Y007123D01*
X004847Y007165D01*
X004845Y007208D01*
X004845Y010008D02*
X004847Y010051D01*
X004853Y010093D01*
X004863Y010135D01*
X004876Y010175D01*
X004894Y010214D01*
X004914Y010252D01*
X004939Y010287D01*
X004966Y010320D01*
X004996Y010350D01*
X005029Y010377D01*
X005064Y010402D01*
X005102Y010422D01*
X005141Y010440D01*
X005181Y010453D01*
X005223Y010463D01*
X005265Y010469D01*
X005308Y010471D01*
X005351Y010469D01*
X005393Y010463D01*
X005435Y010453D01*
X005475Y010440D01*
X005514Y010422D01*
X005552Y010402D01*
X005587Y010377D01*
X005620Y010350D01*
X005650Y010320D01*
X005677Y010287D01*
X005702Y010252D01*
X005722Y010214D01*
X005740Y010175D01*
X005753Y010135D01*
X005763Y010093D01*
X005769Y010051D01*
X005771Y010008D01*
X005769Y009965D01*
X005763Y009923D01*
X005753Y009881D01*
X005740Y009841D01*
X005722Y009802D01*
X005702Y009764D01*
X005677Y009729D01*
X005650Y009696D01*
X005620Y009666D01*
X005587Y009639D01*
X005552Y009614D01*
X005514Y009594D01*
X005475Y009576D01*
X005435Y009563D01*
X005393Y009553D01*
X005351Y009547D01*
X005308Y009545D01*
X005265Y009547D01*
X005223Y009553D01*
X005181Y009563D01*
X005141Y009576D01*
X005102Y009594D01*
X005064Y009614D01*
X005029Y009639D01*
X004996Y009666D01*
X004966Y009696D01*
X004939Y009729D01*
X004914Y009764D01*
X004894Y009802D01*
X004876Y009841D01*
X004863Y009881D01*
X004853Y009923D01*
X004847Y009965D01*
X004845Y010008D01*
M02*
